<?xml version="1.0" encoding="utf-8"?>
<!-- Generator: Adobe Illustrator 27.0.0, SVG Export Plug-In . SVG Version: 6.00 Build 0)  -->
<svg version="1.1" xmlns="http://www.w3.org/2000/svg" xmlns:xlink="http://www.w3.org/1999/xlink" x="0px" y="0px"
	 viewBox="0 0 577.3 443.1" style="enable-background:new 0 0 577.3 443.1;" xml:space="preserve">
<style type="text/css">
	.st0{fill:#F5F5F5;}
	.st1{fill:#E0E0E0;}
	.st2{fill:none;stroke:#FFFFFF;stroke-miterlimit:10;}
	.st3{opacity:0.2;}
	.st4{display:none;}
	.st5{display:inline;fill:#EBEBEB;}
	.st6{fill:#E8505B;}
	.st7{fill:#263238;}
	.st8{fill:#455A64;}
	.st9{fill:#B78876;}
	.st10{fill:#A36957;}
	.st11{opacity:0.3;}
	.st12{fill:#FAFAFA;}
	.st13{opacity:0.5;}
	.st14{fill:#FFFFFF;}
</style>
<g id="Background_Complete">
	<g>
		<g>
			
				<rect x="65.2" y="143" transform="matrix(0.8312 -0.556 0.556 0.8312 -112.372 114.691)" class="st0" width="135" height="198.8"/>
		</g>
		<g>
			<g>
				<polygon class="st1" points="186.1,279.7 184.8,287.5 129,279.5 130.3,271.6 				"/>
			</g>
			<g>
				<polygon class="st1" points="158,251.5 166,252.7 157.1,307.6 149.1,306.5 				"/>
			</g>
		</g>
		<g>
			<g>
				<path class="st2" d="M142.1,185"/>
			</g>
		</g>
		<g>
			<g>
				<path class="st1" d="M106.6,181.7c0.1,0.1-11.2,7.8-25.1,17.1c-14,9.3-25.3,16.8-25.4,16.7c-0.1-0.1,11.2-7.8,25.1-17.1
					C95.2,189.1,106.5,181.6,106.6,181.7z"/>
			</g>
		</g>
		<g>
			<g>
				<path class="st1" d="M147.9,171.4c0.1,0.1-18.6,12.8-41.8,28.2c-23.1,15.5-42,27.9-42.1,27.8c-0.1-0.1,18.6-12.8,41.8-28.2
					C129,183.7,147.8,171.3,147.9,171.4z"/>
			</g>
		</g>
		<g>
			<g>
				<path class="st1" d="M156.2,183.8c0.1,0.1-18.6,12.8-41.8,28.2c-23.1,15.5-42,27.9-42.1,27.8c-0.1-0.1,18.6-12.8,41.8-28.2
					C137.2,196.1,156.1,183.6,156.2,183.8z"/>
			</g>
		</g>
		<g>
			<g>
				<path class="st1" d="M164.4,196.1c0.1,0.1-18.6,12.8-41.8,28.2c-23.1,15.5-42,27.9-42.1,27.8c-0.1-0.1,18.6-12.8,41.8-28.2
					C145.5,208.5,164.3,196,164.4,196.1z"/>
			</g>
		</g>
		<g>
			<g>
				<path class="st1" d="M172.7,208.5c0.1,0.1-18.6,12.8-41.8,28.2c-23.1,15.5-42,27.9-42.1,27.8c-0.1-0.1,18.6-12.8,41.8-28.2
					C153.8,220.8,172.6,208.4,172.7,208.5z"/>
			</g>
		</g>
	</g>
	<g>
		<g>
			
				<rect x="451.3" y="250.4" transform="matrix(0.8312 -0.556 0.556 0.8312 -99.8823 338.802)" class="st0" width="113.4" height="166.9"/>
		</g>
		<g>
			<g>
				<polygon class="st1" points="552.9,365.2 551.8,371.8 505,365 506,358.4 				"/>
			</g>
			<g>
				<polygon class="st1" points="529.3,341.6 536,342.5 528.5,388.7 521.8,387.7 				"/>
			</g>
		</g>
		<g>
			<g>
				<path class="st2" d="M516,285.7"/>
			</g>
		</g>
		<g>
			<g>
				<path class="st1" d="M486.1,282.9c0.1,0.1-9.4,6.6-21.1,14.4c-11.7,7.8-21.3,14.1-21.4,14c-0.1-0.1,9.4-6.6,21.1-14.4
					C476.5,289.1,486,282.8,486.1,282.9z"/>
			</g>
		</g>
		<g>
			<g>
				<path class="st1" d="M520.8,274.2c0.1,0.1-15.6,10.8-35,23.8c-19.4,13-35.3,23.4-35.3,23.3c-0.1-0.1,15.6-10.8,35.1-23.8
					C504.9,284.6,520.7,274.1,520.8,274.2z"/>
			</g>
		</g>
		<g>
			<g>
				<path class="st1" d="M527.7,284.6c0.1,0.1-15.6,10.8-35,23.8c-19.4,13-35.3,23.4-35.3,23.3c-0.1-0.1,15.6-10.8,35.1-23.8
					C511.8,295,527.6,284.5,527.7,284.6z"/>
			</g>
		</g>
		<g>
			<g>
				<path class="st1" d="M534.7,295c0.1,0.1-15.6,10.8-35,23.8c-19.4,13-35.3,23.4-35.3,23.3c-0.1-0.1,15.6-10.8,35.1-23.8
					C518.8,305.3,534.6,294.9,534.7,295z"/>
			</g>
		</g>
		<g>
			<g>
				<path class="st1" d="M541.6,305.4c0.1,0.1-15.6,10.8-35,23.8c-19.4,13-35.3,23.4-35.3,23.3c-0.1-0.1,15.6-10.8,35.1-23.8
					C525.7,315.7,541.5,305.3,541.6,305.4z"/>
			</g>
		</g>
	</g>
	<g>
		<g>
			
				<rect x="209.5" y="90.7" transform="matrix(0.8818 0.4716 -0.4716 0.8818 114.9024 -105.4151)" class="st0" width="116.6" height="171.7"/>
		</g>
		<g>
			<g>
				<polygon class="st1" points="261.1,232.4 254.6,234.6 238,188.8 244.5,186.6 				"/>
			</g>
			<g>
				<polygon class="st1" points="271.1,199.5 273.5,206.1 228,221.7 225.6,215.1 				"/>
			</g>
		</g>
		<g>
			<g>
				<path class="st2" d="M315.4,160.4"/>
			</g>
		</g>
		<g>
			<g>
				<path class="st1" d="M303.4,132c-0.1,0.2-10.5-5.3-23.3-12.1c-12.8-6.8-23.1-12.5-23-12.7c0.1-0.2,10.5,5.3,23.3,12.1
					C293.2,126.2,303.5,131.8,303.4,132z"/>
			</g>
		</g>
		<g>
			<g>
				<path class="st1" d="M328.1,159.2c-0.1,0.2-17.3-8.9-38.5-20.3c-21.2-11.3-38.3-20.7-38.3-20.8c0.1-0.2,17.3,8.9,38.5,20.3
					C311,149.8,328.1,159.1,328.1,159.2z"/>
			</g>
		</g>
		<g>
			<g>
				<path class="st1" d="M322,170.6c-0.1,0.2-17.3-8.9-38.5-20.3c-21.2-11.3-38.3-20.7-38.3-20.8c0.1-0.2,17.3,8.9,38.5,20.3
					C305,161.1,322.1,170.4,322,170.6z"/>
			</g>
		</g>
		<g>
			<g>
				<path class="st1" d="M315.9,181.9c-0.1,0.2-17.3-8.9-38.5-20.3c-21.2-11.3-38.3-20.7-38.3-20.8c0.1-0.2,17.3,8.9,38.5,20.3
					C298.9,172.4,316,181.7,315.9,181.9z"/>
			</g>
		</g>
		<g>
			<g>
				<path class="st1" d="M309.9,193.2c-0.1,0.2-17.3-8.9-38.5-20.3c-21.2-11.3-38.3-20.7-38.3-20.8c0.1-0.2,17.3,8.9,38.5,20.3
					C292.8,183.8,310,193.1,309.9,193.2z"/>
			</g>
		</g>
	</g>
	<rect x="307.8" class="st3" width="2.6" height="44"/>
</g>
<g id="Background_Simple" class="st4">
	<path class="st5" d="M64.3,164.4c-8.5,67.1,25.9,135.9,80.3,176.1s125.9,53.5,192.9,43.9c47.8-6.8,95.2-25.6,128.9-60.2
		c33.7-34.6,51.5-86.6,37.9-132.9c-5.1-17.5-15.2-34.5-31.2-43.2c-25.5-14-57-3.7-84.2,6.8c-27.2,10.5-58.6,20.9-84.2,7
		c-19.7-10.7-29.7-32.7-44.2-49.8c-24.5-29.1-64.3-44.6-102-39.6c-4.7,0.6-9.4,1.6-14,2.8c-40.1,10.8-70.5,43.7-79.2,84.4
		L64.3,164.4z"/>
</g>
<g id="Lamp">
	<g>
		<g>
			<g>
				<path class="st6" d="M248.9,97.2h120.5c0,0-11.1-53.2-61.1-53.2C263.7,44,248.9,97.2,248.9,97.2z"/>
			</g>
		</g>
		<rect x="307.8" class="st6" width="2.6" height="44"/>
	</g>
</g>
<g id="Floor">
	<g>
		<g>
			<path class="st7" d="M577.3,439.8c0,0.1-129.3,0.3-288.7,0.3C129.2,440.1,0,440,0,439.8c0-0.1,129.2-0.3,288.7-0.3
				C448.1,439.6,577.3,439.7,577.3,439.8z"/>
		</g>
	</g>
</g>
<g id="Plant">
	<g>
		<g>
			<path class="st6" d="M32,377.2c3.4,0.1,6.6,2,8.8,4.5c2.2,2.5,3.6,5.7,4.5,9c1.7,6.3,0.7,13.8-1.2,20.1
				c-6.8-2.4-11.1-9.7-13-13.6C28.1,391.1,26.3,378.3,32,377.2"/>
		</g>
		<g>
			<path class="st6" d="M53.9,418.5c-2.2-3.1-2.2-7.4-0.5-10.8c1.7-3.4,5-5.8,8.6-6.9c1.7-0.5,3.6-0.7,5.1,0.2
				c1.4,0.9,1.9,2.7,1.8,4.3c-0.2,1.6-1,3.1-2,4.4C63.5,414.2,59.5,418,53.9,418.5"/>
		</g>
		<g>
			<g>
				<path class="st7" d="M54.7,439.6c0,0-0.1-0.5-0.3-1.3c-0.2-0.9-0.4-2.1-0.7-3.6c-0.5-3-1.4-7.3-0.7-12.1
					c0.6-4.7,2.5-8.8,4.5-11.2c1-1.2,1.9-2.1,2.6-2.6c0.3-0.3,0.6-0.5,0.8-0.6c0.2-0.1,0.3-0.2,0.3-0.2c0.1,0.1-1.6,1.1-3.5,3.6
					c-1.9,2.4-3.7,6.4-4.3,11.1c-0.6,4.7,0.2,8.9,0.6,12c0.2,1.5,0.4,2.8,0.6,3.6C54.7,439.1,54.7,439.6,54.7,439.6z"/>
			</g>
		</g>
		<g>
			<g>
				<path class="st7" d="M34.2,386.8c0,0,0.1,0.2,0.3,0.5c0.2,0.4,0.4,0.9,0.7,1.5c0.6,1.3,1.5,3.3,2.5,5.7
					c2.1,4.8,4.8,11.4,7.7,18.9c2.9,7.4,5.3,14.2,7,19.1c0.9,2.5,1.5,4.5,2,5.9c0.2,0.7,0.4,1.2,0.5,1.6c0.1,0.4,0.2,0.6,0.1,0.6
					c0,0-0.1-0.2-0.2-0.5c-0.2-0.4-0.3-0.9-0.6-1.6c-0.5-1.4-1.2-3.4-2.1-5.8c-1.8-4.9-4.3-11.6-7.2-19.1
					c-2.9-7.4-5.6-14.1-7.6-18.9c-1-2.4-1.8-4.3-2.3-5.7c-0.3-0.6-0.5-1.2-0.6-1.6C34.2,387,34.1,386.8,34.2,386.8z"/>
			</g>
		</g>
		<g>
			<path class="st6" d="M46.5,425.6c-4-6.9-11.6-11.6-19.5-12.1c-2-0.1-4.5,0.2-5.4,2c-0.9,1.8,0.3,4,1.7,5.5
				c5.7,6.2,15.4,8.4,23.3,5.2"/>
		</g>
		<g>
			<g>
				<path class="st7" d="M30.1,418.9c0,0,0.5,0,1.3,0c0.4,0,0.9,0.1,1.5,0.2c0.6,0.1,1.2,0.2,1.9,0.4c0.7,0.2,1.5,0.3,2.3,0.6
					c0.8,0.2,1.7,0.6,2.6,1c1.8,0.8,3.6,1.8,5.4,3.2c1.8,1.4,3.3,2.9,4.5,4.4c0.6,0.8,1.1,1.5,1.6,2.3c0.5,0.7,0.8,1.4,1.2,2.1
					c0.4,0.6,0.6,1.3,0.8,1.8c0.2,0.5,0.4,1,0.5,1.4c0.2,0.8,0.4,1.2,0.3,1.2c-0.1,0-0.6-1.7-1.9-4.3c-0.4-0.6-0.7-1.3-1.2-2
					c-0.4-0.7-1-1.4-1.6-2.2c-1.2-1.5-2.7-3-4.4-4.3c-1.8-1.3-3.6-2.4-5.3-3.2c-0.9-0.4-1.7-0.7-2.5-1c-0.8-0.3-1.6-0.5-2.3-0.7
					C31.9,419.1,30.1,419,30.1,418.9z"/>
			</g>
		</g>
	</g>
</g>
<g id="Character">
	<g>
		<g>
			<g>
				<path class="st7" d="M484,105.5c-2.9,0.7-4.4,4.1-4.7,7.1c-0.3,3,0.1,6.2-1.2,8.9c-1.4,3.1-4.8,5.4-4.9,8.8
					c-0.1,2.1,1.2,4,1.1,6.1c-0.1,3.4-3.6,6-3.7,9.4c-0.1,2.4,1.5,4.8,1.1,7.2c-0.3,1.9-1.8,3.4-2.4,5.2c-1.2,3.6,1.2,7.5,4.4,9.6
					c3.6,2.3,8.2,2.8,12.2,1.5c4-1.3,7.4-4.4,9-8.3c1.8-4.3,1.4-9.2,1-13.8c-1.2-14.5-2.1-29-2.7-43.6"/>
			</g>
			<g>
				<g>
					<path class="st8" d="M475.5,156.7c-0.1-0.1,0.8-0.3,1.3-1.6c0.3-0.6,0.4-1.5,0.3-2.4c0-1-0.4-2-0.7-3.2
						c-0.3-1.2-0.8-2.6-0.5-4.1c0.3-1.6,1.4-2.8,2.4-4.1c0.5-0.6,1-1.3,1.4-2.1c0.3-0.7,0.4-1.6,0.2-2.4c-0.5-1.6-2.1-2.8-2.9-4.7
						c-0.4-0.9-0.4-2-0.2-2.9c0.2-0.9,0.6-1.8,1-2.6c0.8-1.6,1.6-3.1,2-4.7c0.7-3.2,0.4-6.2,0.9-8.7c0.4-2.5,1.5-4.4,2.5-5.3
						c0.5-0.5,1-0.8,1.3-0.9c0.3-0.1,0.5-0.2,0.5-0.2c0,0.1-0.7,0.3-1.7,1.3c-1,1-1.9,2.8-2.3,5.2c-0.2,1.2-0.2,2.6-0.3,4
						c-0.1,1.5-0.1,3.1-0.5,4.7c-0.3,1.7-1.2,3.2-2,4.8c-0.8,1.6-1.4,3.4-0.8,5.1c0.6,1.7,2.2,2.9,2.9,4.8c0.3,0.9,0.2,1.9-0.2,2.7
						c-0.4,0.8-0.9,1.5-1.4,2.2c-1,1.3-2.1,2.5-2.3,3.9c-0.3,1.4,0.1,2.7,0.5,3.9c0.3,1.2,0.7,2.3,0.7,3.3c0,1-0.1,1.9-0.4,2.5
						c-0.3,0.7-0.7,1.1-1,1.3C475.7,156.6,475.5,156.7,475.5,156.7z"/>
				</g>
			</g>
		</g>
		<path class="st9" d="M467.6,180.4l-9,26l-37.6,2l-6.3,14l39.3,4c7.8,3.2,16.8-0.7,19.7-8.7l10.5-29.3L467.6,180.4z"/>
		<g>
			<g>
				<g>
					<path class="st9" d="M545.5,425.7c0,0-27.6-87.6-28.2-90.5c-0.5-2.6,10-65.6,11.3-81.9l-37.3,1.4c0,0,0,0.1,0,0.3l-15.8,0.9
						L489.7,435h17.2l-1.7-59.5c10.6,28.4,25.7,57.3,25.7,57.3L545.5,425.7z"/>
				</g>
				<g>
					<path class="st10" d="M505.9,396.9c0-0.5-0.2-19.9-0.2-19.9c-0.2,1.2-6.6-16.8-6.4-17.9C499.3,358.5,505.9,396.9,505.9,396.9z"
						/>
				</g>
			</g>
			<g>
				<path class="st10" d="M498.5,350.5c0,0-0.1,0.4-0.1,1.1c0,0.7,0,1.7,0,3c0,0.6,0.1,1.3,0.2,2c0.1,0.7,0.2,1.5,0.4,2.3
					c0.3,1.6,0.8,3.4,1.4,5.2c1.2,3.6,2.6,6.8,3.6,9.1c0.5,1,0.9,2,1.2,2.7c0.3,0.6,0.5,1,0.5,1c0,0-0.1-0.4-0.3-1
					c-0.2-0.7-0.6-1.6-1-2.8c-0.9-2.3-2.2-5.5-3.4-9.1c-0.6-1.8-1.1-3.5-1.4-5.1c-0.2-0.8-0.3-1.6-0.4-2.3c-0.1-0.7-0.2-1.4-0.2-2
					c-0.1-1.2-0.2-2.2-0.2-2.9C498.6,350.9,498.6,350.5,498.5,350.5z"/>
			</g>
		</g>
		<g>
			<g>
				<g>
					<g>
						<path class="st8" d="M489.4,435.9l0-1.6l17.6-0.8l0,6.6l-1.1,0.1c-4.8,0.3-24.5,1.1-27.8,0.1
							C474.6,439.3,489.4,435.9,489.4,435.9z"/>
					</g>
				</g>
				<g>
					<g>
						<path class="st7" d="M507.3,439.8c0,0-0.1,0-0.3,0c-0.3,0-0.5,0-0.9,0.1c-0.9,0-1.9,0.1-3.2,0.1c-2.7,0.1-6.4,0.2-10.5,0.2
							c-4.1,0-7.8,0-10.5-0.1c-1.3,0-2.3-0.1-3.2-0.1c-0.3,0-0.6,0-0.9,0c-0.2,0-0.3,0-0.3,0c0,0,0.1,0,0.3,0c0.3,0,0.5,0,0.9,0
							c0.9,0,1.9,0,3.2,0.1c2.7,0,6.4,0.1,10.5,0.1c4.1,0,7.8-0.1,10.5-0.2c1.3,0,2.3-0.1,3.2-0.1c0.3,0,0.6,0,0.9,0
							C507.1,439.8,507.3,439.8,507.3,439.8z"/>
					</g>
				</g>
				<g>
					<g>
						<path class="st7" d="M483.7,440.3c-0.1,0-0.1-0.8-0.6-1.5c-0.5-0.8-1.1-1.2-1.1-1.2c0-0.1,0.8,0.3,1.3,1.1
							C483.8,439.5,483.8,440.4,483.7,440.3z"/>
					</g>
				</g>
				<g>
					<g>
						<path class="st7" d="M488.9,437.7c0,0-0.3-0.3-0.6-0.7c-0.3-0.4-0.4-0.8-0.4-0.8c0,0,0.3,0.3,0.6,0.7
							C488.7,437.3,488.9,437.7,488.9,437.7z"/>
					</g>
				</g>
				<g>
					<g>
						<path class="st7" d="M490.3,437c0,0-0.3-0.1-0.6-0.4c-0.3-0.3-0.5-0.5-0.5-0.6c0,0,0.3,0.1,0.6,0.4
							C490.1,436.7,490.3,436.9,490.3,437z"/>
					</g>
				</g>
				<g>
					<g>
						<path class="st7" d="M491.2,435.3c0,0.1-0.4,0.1-0.9,0.1c-0.5,0-0.9,0-0.9-0.1c0-0.1,0.4-0.1,0.9-0.1
							C490.7,435.2,491.2,435.2,491.2,435.3z"/>
					</g>
				</g>
				<g>
					<g>
						<path class="st7" d="M491.5,434.1c0,0.1-0.4,0.3-1,0.3c-0.6,0-1.1-0.1-1.1-0.1c0-0.1,0.5,0,1-0.1
							C491,434.2,491.4,434.1,491.5,434.1z"/>
					</g>
				</g>
				<g>
					<g>
						<path class="st7" d="M488.3,436.2c0,0-0.4,0.1-1.1,0c-0.3,0-0.8-0.1-1.2-0.3c-0.2-0.1-0.4-0.1-0.7-0.3
							c-0.1-0.1-0.2-0.2-0.3-0.3c0-0.2,0-0.4,0.2-0.4c1.1-0.6,2.1,0,2.5,0.6c0.2,0.3,0.3,0.6,0.4,0.7c0,0.2,0,0.3,0,0.3
							c0,0-0.1-0.4-0.5-1c-0.2-0.3-0.5-0.5-1-0.6c-0.4-0.1-1-0.1-1.3,0.1c-0.2,0.1-0.1,0.3,0.1,0.5c0.2,0.1,0.4,0.2,0.6,0.3
							c0.4,0.1,0.8,0.2,1.2,0.3C487.8,436.2,488.3,436.1,488.3,436.2z"/>
					</g>
				</g>
				<g>
					<g>
						<path class="st7" d="M488,436.2c0,0-0.2-0.3-0.1-0.8c0-0.2,0.1-0.5,0.3-0.8c0.2-0.2,0.5-0.6,0.9-0.6c0.3,0,0.4,0.3,0.3,0.5
							c0,0.2-0.1,0.4-0.2,0.5c-0.2,0.3-0.4,0.5-0.5,0.7C488.3,436.1,488.1,436.2,488,436.2c0.1,0,0.3-0.2,0.6-0.6
							c0.2-0.2,0.3-0.4,0.5-0.7c0.2-0.2,0.3-0.7,0-0.7c-0.3,0-0.6,0.3-0.7,0.5c-0.2,0.2-0.3,0.5-0.3,0.7
							C487.9,435.9,488,436.2,488,436.2z"/>
					</g>
				</g>
				<g>
					<g>
						<path class="st7" d="M506.9,435c0,0-0.5,0-1.3,0.1c-0.8,0.1-1.9,0.4-2.8,1.2c-0.9,0.8-1.5,1.8-1.8,2.5
							c-0.3,0.8-0.3,1.3-0.3,1.2c0,0,0-0.1,0-0.4c0-0.2,0.1-0.6,0.2-0.9c0.2-0.8,0.8-1.8,1.8-2.6c1-0.8,2.1-1.1,2.9-1.2
							c0.4,0,0.7,0,1,0C506.8,434.9,506.9,435,506.9,435z"/>
					</g>
				</g>
				<g>
					<g>
						<path class="st7" d="M498.5,438.4c0,0.1-1.1,0.2-2.6,0.2c-1.4,0-2.6-0.2-2.6-0.2c0-0.1,1.1,0,2.6,0
							C497.3,438.4,498.5,438.3,498.5,438.4z"/>
					</g>
				</g>
				<g>
					<g>
						<path class="st7" d="M501.9,438.3c0,0-0.1,0.2-0.2,0.5c-0.1,0.3-0.2,0.5-0.2,0.5c-0.1,0-0.1-0.3,0-0.6
							C501.6,438.5,501.8,438.3,501.9,438.3z"/>
					</g>
				</g>
				<g>
					<g>
						<path class="st7" d="M503.2,436.7c0,0-0.1,0.2-0.3,0.4c-0.2,0.2-0.4,0.3-0.4,0.3c0,0,0.1-0.2,0.3-0.4
							C503,436.8,503.1,436.7,503.2,436.7z"/>
					</g>
				</g>
				<g>
					<g>
						<path class="st7" d="M505,436c0,0.1-0.2,0.1-0.5,0.1c-0.3,0.1-0.4,0.2-0.5,0.2c0,0,0.1-0.3,0.4-0.4
							C504.8,435.8,505,435.9,505,436z"/>
					</g>
				</g>
				<g>
					<g>
						<path class="st7" d="M506.3,435.6c0,0.1-0.1,0.1-0.2,0.2c-0.1,0.1-0.3,0.1-0.3,0c0-0.1,0.1-0.1,0.2-0.2
							C506.2,435.6,506.3,435.6,506.3,435.6z"/>
					</g>
				</g>
			</g>
		</g>
		<g>
			<g>
				<g>
					<g>
						<path class="st8" d="M530.6,434.4l-0.7-1.5l15.7-7.9l2.8,6l-1,0.5c-4.3,2.2-21.9,11.1-25.3,11.5
							C518.4,443.5,530.6,434.4,530.6,434.4z"/>
					</g>
				</g>
				<g>
					<g>
						<path class="st7" d="M548.4,430.6c0,0-0.1,0.1-0.3,0.2c-0.2,0.1-0.5,0.3-0.8,0.4c-0.8,0.4-1.7,0.9-2.8,1.4
							c-2.4,1.2-5.7,2.8-9.5,4.5c-3.7,1.7-7.1,3.2-9.6,4.2c-1.2,0.5-2.1,0.9-2.9,1.2c-0.3,0.1-0.6,0.2-0.8,0.3
							c-0.2,0.1-0.3,0.1-0.3,0.1c0,0,0.1-0.1,0.3-0.1c0.2-0.1,0.5-0.2,0.8-0.3c0.8-0.3,1.8-0.8,2.9-1.3c2.5-1.1,5.9-2.5,9.6-4.2
							c3.7-1.7,7.1-3.3,9.5-4.4c1.1-0.5,2.1-1,2.9-1.4c0.3-0.1,0.5-0.3,0.8-0.4C548.3,430.6,548.4,430.6,548.4,430.6z"/>
					</g>
				</g>
				<g>
					<g>
						<path class="st7" d="M527.2,440.7c-0.1,0-0.4-0.6-1.2-1.1c-0.7-0.5-1.5-0.6-1.5-0.7c0-0.1,0.8-0.1,1.6,0.5
							C526.9,440,527.2,440.7,527.2,440.7z"/>
					</g>
				</g>
				<g>
					<g>
						<path class="st7" d="M530.8,436.2c0,0-0.4-0.1-0.8-0.4c-0.4-0.3-0.7-0.5-0.7-0.6c0,0,0.4,0.1,0.8,0.4
							C530.5,435.9,530.8,436.2,530.8,436.2z"/>
					</g>
				</g>
				<g>
					<g>
						<path class="st7" d="M531.8,435c0,0.1-0.3,0-0.7-0.1c-0.4-0.1-0.7-0.3-0.7-0.3c0-0.1,0.3,0,0.7,0.1
							C531.5,434.8,531.8,434.9,531.8,435z"/>
					</g>
				</g>
				<g>
					<g>
						<path class="st7" d="M531.9,433.1c0,0.1-0.3,0.3-0.8,0.5c-0.5,0.2-0.8,0.3-0.9,0.3c0-0.1,0.3-0.3,0.8-0.5
							C531.5,433.2,531.9,433,531.9,433.1z"/>
					</g>
				</g>
				<g>
					<g>
						<path class="st7" d="M531.7,431.9c0,0-0.3,0.4-0.8,0.7c-0.5,0.3-1,0.4-1,0.3c0-0.1,0.4-0.2,0.9-0.5
							C531.3,432.1,531.7,431.9,531.7,431.9z"/>
					</g>
				</g>
				<g>
					<g>
						<path class="st7" d="M529.6,435.1c0,0-0.4,0.2-1,0.5c-0.3,0.1-0.7,0.2-1.2,0.3c-0.2,0-0.5,0.1-0.7,0c-0.1,0-0.3-0.1-0.4-0.2
							c-0.1-0.1-0.1-0.3,0-0.5c0.7-1,2-0.8,2.6-0.5c0.3,0.2,0.5,0.4,0.6,0.5c0.1,0.2,0.2,0.3,0.2,0.3c0,0-0.3-0.4-0.9-0.7
							c-0.3-0.1-0.7-0.2-1.1-0.2c-0.4,0.1-0.9,0.3-1.2,0.6c-0.1,0.2,0,0.4,0.3,0.4c0.2,0,0.5,0,0.7,0c0.4,0,0.8-0.1,1.2-0.2
							C529.2,435.2,529.6,435,529.6,435.1z"/>
					</g>
				</g>
				<g>
					<g>
						<path class="st7" d="M529.4,435.2c0,0-0.3-0.2-0.4-0.7c-0.1-0.2-0.1-0.5-0.1-0.9c0.1-0.3,0.2-0.7,0.6-0.9
							c0.3-0.1,0.8,0.4,0.9,0.6c0.1,0.2-0.3,0.1-0.3,0.2c0,0.3-0.1,0.6-0.2,0.8C529.7,435,529.5,435.2,529.4,435.2
							c0-0.1,0.2-0.3,0.3-0.8c0.1-0.2,0.1-0.5,0.1-0.8c0-0.3,0-0.7-0.3-0.6c-0.3,0.1-0.4,0.5-0.5,0.7c-0.1,0.3,0,0.6,0,0.8
							C529.2,435,529.4,435.2,529.4,435.2z"/>
					</g>
				</g>
				<g>
					<g>
						<path class="st7" d="M546.1,426.4c0,0-0.5,0.2-1.2,0.6c-0.7,0.4-1.5,1.1-2.1,2.2c-0.5,1.1-0.6,2.2-0.6,3
							c0.1,0.8,0.3,1.3,0.2,1.3c0,0-0.1-0.1-0.1-0.3c-0.1-0.2-0.2-0.5-0.2-0.9c-0.1-0.8,0-2,0.5-3.1c0.6-1.1,1.5-1.9,2.2-2.3
							c0.4-0.2,0.7-0.3,0.9-0.4C546,426.4,546.1,426.4,546.1,426.4z"/>
					</g>
				</g>
				<g>
					<g>
						<path class="st7" d="M539.8,432.9c0,0-0.9,0.7-2.2,1.3c-1.3,0.6-2.4,0.9-2.4,0.9c0-0.1,1.1-0.5,2.3-1
							C538.8,433.4,539.8,432.8,539.8,432.9z"/>
					</g>
				</g>
				<g>
					<g>
						<path class="st7" d="M543,431.5c0.1,0,0,0.3,0,0.5c0,0.3,0,0.5,0,0.5c-0.1,0-0.2-0.2-0.2-0.5
							C542.8,431.7,542.9,431.4,543,431.5z"/>
					</g>
				</g>
				<g>
					<g>
						<path class="st7" d="M543.5,429.5c0.1,0,0,0.2-0.1,0.5c-0.1,0.2-0.2,0.4-0.3,0.4c-0.1,0,0-0.2,0.1-0.5
							C543.3,429.6,543.4,429.4,543.5,429.5z"/>
					</g>
				</g>
				<g>
					<g>
						<path class="st7" d="M544.8,428c0,0.1-0.2,0.2-0.4,0.3c-0.2,0.2-0.3,0.4-0.4,0.4c-0.1,0,0-0.3,0.2-0.5
							C544.6,428,544.8,428,544.8,428z"/>
					</g>
				</g>
				<g>
					<g>
						<path class="st7" d="M545.9,427.2c0,0,0,0.2-0.1,0.3c-0.1,0.1-0.2,0.2-0.3,0.1c0,0,0-0.2,0.1-0.3
							C545.7,427.2,545.9,427.1,545.9,427.2z"/>
					</g>
				</g>
			</g>
		</g>
		<g>
			<g>
				<g>
					<g>
						<g>
							<g>
								<g>
									<g>
										<path class="st6" d="M526.2,223.6l-2.9-35.7l15,0.3c0,0,0.7-5.3-1.5-16.8c-1.4-7.1-6.1-11.4-11.4-14l0-0.1l-0.5-0.1
											c-6.7-3.1-13.8-3.6-13.8-3.6l-18.4,0.2c0,0-14.1-1.8-21.9,8.3c-3,3.9-12.3,30.4-12.3,30.4l22.1,10.7l-2.1-14.7
											c0,0,0.4,10.6,1.8,14c0.8,1.9,2.9,7.7,2.9,7.7l-0.3,17.6L526.2,223.6z"/>
									</g>
								</g>
							</g>
						</g>
					</g>
					<g>
						<polygon class="st6" points="516.1,182.8 513.3,194.4 539.1,194.4 537.4,174.9 						"/>
					</g>
					<g>
						<g>
							<path class="st7" d="M539.1,194.4c0-0.1-1.3-0.2-3.4-0.3c-2.1-0.1-5-0.2-8.3-0.2c-3.2,0-6.2,0.2-8.3,0.3
								c-2.1,0.2-3.4,0.3-3.4,0.4c0,0.1,1.3,0,3.4,0c2.1-0.1,5-0.1,8.3-0.2c3.2,0,6.1,0,8.3,0C537.8,194.5,539.1,194.5,539.1,194.4z
								"/>
						</g>
					</g>
					<g>
						<g>
							<path class="st7" d="M514.9,174.8c-0.1,0-0.1,1.1-0.1,3c0,1.8,0.1,4.4,0.2,7.1c0.1,2.8,0.2,5.3,0.4,7.1c0.1,1.8,0.2,3,0.3,3
								c0.1,0,0.1-1.1,0.1-3c0-1.8-0.1-4.4-0.2-7.1c-0.1-2.8-0.2-5.3-0.4-7.1C515.1,175.9,515,174.8,514.9,174.8z"/>
						</g>
					</g>
					<g class="st11">
						<path d="M491.4,184.9c0,0,5.7,42.6,21.9,41.4c0,0,7.3-0.1,9.6-4.9v-1.9L491.4,184.9z"/>
					</g>
				</g>
			</g>
			<g class="st11">
				<polygon points="514.9,177.3 511.9,198.1 513.9,201.8 517.1,194.6 515.7,194.6 				"/>
			</g>
			<g>
				<g>
					<path class="st7" d="M483.4,210.2c0,0-0.2-0.3-0.4-1c-0.3-0.7-0.6-1.6-1-2.8c-0.8-2.4-1.7-5.7-2.5-9.4
						c-0.7-3.7-1.1-7.2-1.2-9.7c-0.1-1.2-0.1-2.3-0.1-3c0-0.7,0-1.1,0.1-1.1c0.1,0,0.1,1.5,0.4,4c0.2,2.5,0.6,5.9,1.4,9.6
						c0.7,3.7,1.6,7,2.3,9.4c0.3,1.1,0.6,2.1,0.8,2.8C483.3,209.8,483.4,210.1,483.4,210.2z"/>
				</g>
			</g>
			<g>
				<g>
					<path class="st7" d="M489.9,222.4c-0.1,0-0.5-0.9-0.9-2.1c-0.4-1.2-0.5-2.2-0.4-2.2c0.1,0,0.5,0.9,0.9,2.1
						C489.8,221.4,490,222.4,489.9,222.4z"/>
				</g>
			</g>
			<g>
				<g>
					<path class="st7" d="M492.1,222.2c-0.1,0-0.6-1.3-0.6-3.1c0-1.8,0.4-3.2,0.5-3.1c0.1,0,0,1.4,0,3.1
						C492.1,220.8,492.3,222.2,492.1,222.2z"/>
				</g>
			</g>
			<g>
				<g>
					<path class="st7" d="M481.2,203.6c-0.1,0.1-5.2-2.3-11.5-5.5c-6.3-3.1-11.3-5.8-11.3-5.9c0.1-0.1,5.2,2.3,11.5,5.5
						C476.2,200.8,481.2,203.5,481.2,203.6z"/>
				</g>
			</g>
		</g>
		<g>
			<g>
				<g>
					<g>
						<g>
							<g>
								<g>
									<g>
										<g>
											<path class="st9" d="M490.3,157.3c0.1-5.1,0.1-10.4,0.1-10.4s-6.5-1.3-7.6-9.8c-1.1-8.1,1.9-27.2,1.9-27.2l0,0
												c9.5-3.6,19.3-0.3,25.8,7.3l0,0l-1.6,41.1c-0.2,4.8-4.4,8.4-9.5,8.2h0C494.2,166.2,490.2,162.1,490.3,157.3z"/>
										</g>
									</g>
								</g>
								<g>
									<g>
										<g>
											<g>
												<path class="st7" d="M484.2,125.1c0,0.6,0.4,1.1,1,1.1c0.6,0,1.1-0.4,1.1-1c0-0.6-0.4-1.1-1-1.1
													C484.8,124.1,484.3,124.5,484.2,125.1z"/>
											</g>
										</g>
									</g>
									<g>
										<g>
											<g>
												<g>
													<path class="st7" d="M483.8,123.7c0.1,0.1,1-0.4,2.1-0.4c1.2,0,2,0.6,2.1,0.5c0.1-0.1-0.1-0.3-0.4-0.6
														c-0.4-0.3-1-0.6-1.7-0.6c-0.7,0-1.4,0.2-1.7,0.5C483.9,123.3,483.8,123.6,483.8,123.7z"/>
												</g>
											</g>
										</g>
									</g>
								</g>
								<g>
									<g>
										<g>
											<g>
												<path class="st7" d="M496.1,125.8c0,0.6,0.4,1.1,1,1.1c0.6,0,1.1-0.4,1.1-1c0-0.6-0.4-1.1-1-1.1
													C496.7,124.8,496.2,125.3,496.1,125.8z"/>
											</g>
										</g>
									</g>
									<g>
										<g>
											<g>
												<g>
													<path class="st7" d="M496.1,124.4c0.1,0.1,1-0.4,2.1-0.4c1.2,0,2,0.6,2.1,0.5c0.1-0.1-0.1-0.3-0.4-0.6
														c-0.4-0.3-1-0.6-1.7-0.6c-0.7,0-1.4,0.2-1.7,0.5C496.1,124.1,496,124.3,496.1,124.4z"/>
												</g>
											</g>
										</g>
									</g>
								</g>
								<g>
									<g>
										<g>
											<g>
												<path class="st7" d="M491.6,133c0-0.1-0.7-0.2-1.9-0.4c-0.3,0-0.6-0.1-0.6-0.3c-0.1-0.2,0.1-0.5,0.2-0.9
													c0.3-0.7,0.6-1.5,0.9-2.3c1.3-3.2,2.3-5.9,2.1-5.9c-0.1-0.1-1.3,2.5-2.6,5.7c-0.3,0.8-0.6,1.5-0.9,2.3
													c-0.1,0.3-0.3,0.7-0.2,1.2c0.1,0.2,0.3,0.4,0.5,0.5c0.2,0.1,0.4,0.1,0.5,0.1C490.8,133,491.6,133.1,491.6,133z"/>
											</g>
										</g>
									</g>
								</g>
								<g>
									<g>
										<g>
											<path class="st10" d="M490.4,146.9c0,0,5.7,0.5,11.5-2.7c0,0-2.9,5.8-11.4,4.8L490.4,146.9z"/>
										</g>
									</g>
								</g>
							</g>
						</g>
					</g>
				</g>
			</g>
			<g>
				<g>
					<path class="st7" d="M499.8,121c-0.2,0.4-1.1,0.2-2.1,0c-1-0.2-1.9-0.4-2-0.8c-0.1-0.4,0.9-1,2.3-0.7
						C499.3,119.8,500.1,120.7,499.8,121z"/>
				</g>
			</g>
			<g>
				<g>
					<path class="st7" d="M488.1,119.3c-0.1,0.4-1,0.6-2.1,0.6c-1.1,0-2.1,0-2.2-0.4c-0.1-0.4,0.8-1.1,2.1-1.1
						C487.3,118.3,488.2,118.9,488.1,119.3z"/>
				</g>
			</g>
			<g>
				<path class="st10" d="M491.6,135.8c-0.2-0.1-0.5,0.1-0.6,0.3c-0.1,0.3-0.1,0.6,0.2,0.8c0.2,0.2,0.6,0.2,0.8,0
					c0.2-0.2,0.3-0.6,0.2-0.8c-0.1-0.3-0.5-0.4-0.8-0.3"/>
			</g>
			<g>
				<g>
					<path class="st7" d="M491.9,135.9c0.1,0-0.2-0.3-0.7-0.2c-0.2,0.1-0.5,0.3-0.6,0.6c-0.1,0.3,0,0.8,0.4,1.1
						c0.4,0.3,0.8,0.2,1.1,0c0.3-0.2,0.4-0.6,0.4-0.8c-0.1-0.5-0.5-0.6-0.5-0.5c0,0.1,0.1,0.2,0.1,0.6c0,0.2-0.1,0.3-0.2,0.4
						c-0.1,0.1-0.4,0.1-0.5,0c-0.1-0.1-0.2-0.3-0.2-0.5c0-0.2,0.1-0.3,0.3-0.4C491.6,135.9,491.8,136,491.9,135.9z"/>
				</g>
			</g>
			<g>
				<g>
					<path class="st7" d="M506.6,127.2c-1,2.3-3.5,4.2-3.1,6.7c0.2,1.6,1.3,3.2,1.1,4.8c-0.3,2.1-2.4,3.5-2.7,5.5
						c-0.4,2.5,2.1,4.5,3,6.8c1.4,3.4-0.4,7.3-0.4,10.9c-0.1,5.7,4.8,11,10.4,11.4c2.3,0.2,4.9-0.5,6-2.5c1-1.6,0.8-3.7,1.4-5.5
						c0.9-2.7,3.4-4.6,4-7.4c1-5-5.1-9.2-4.7-14.3c0.2-2.2,1.5-4.1,2.1-6.2c0.8-2.8,0.1-5.9-1.8-8.1c-1.5-1.8-3.7-3-5-4.9
						c-1.5-2.2-1.5-5-2-7.6c-1.3-6.3-6.1-11.8-12.1-14c-6.1-2.2-13.2-1.1-18.3,2.8c0,0-1.5,6.6,5.3,7.7c6.8,1.1,9.9-0.2,10.7,2.5
						c0,0-0.8,3.2,2,6.2C505.2,125.1,507.8,124.5,506.6,127.2z"/>
				</g>
				<g>
					<g>
						<path class="st8" d="M517.4,172.9c0,0-0.2,0-0.6-0.1c-0.4-0.1-1-0.2-1.7-0.5c-1.4-0.5-3.5-1.7-5.2-3.9c-0.9-1.1-1.7-2.4-2.2-4
							c-0.6-1.5-0.9-3.3-0.9-5.1c0-1.8,0.2-3.8,0.7-5.7c0.3-1,0.6-1.9,1-2.9c0.4-1,0.8-1.9,1.1-2.9c0.3-1,0.2-2,0-2.9
							c-0.3-1-0.7-1.9-1.1-2.7c-0.4-0.9-0.9-1.8-1.2-2.7c-0.3-0.9-0.4-1.9-0.2-2.9c0.4-1.9,1.5-3.3,2.2-4.7c0.7-1.4,0.9-2.9,0.9-4.3
							c-0.1-2.7-1.3-4.7-2.2-5.9c-1-1.2-1.7-1.6-1.7-1.7c0,0,0.8,0.4,1.9,1.5c1,1.1,2.3,3.2,2.4,6c0.1,1.4-0.2,3-0.9,4.5
							c-0.7,1.5-1.8,2.9-2.1,4.6c-0.4,1.7,0.5,3.5,1.4,5.3c0.4,0.9,0.9,1.8,1.2,2.8c0.3,1,0.3,2.2,0,3.2c-0.3,1-0.8,2-1.1,2.9
							c-0.4,0.9-0.7,1.9-0.9,2.8c-0.5,1.9-0.8,3.8-0.7,5.6c0,3.6,1.2,6.8,2.9,8.9c1.7,2.2,3.6,3.3,5,3.9
							C516.6,172.8,517.4,172.9,517.4,172.9z"/>
					</g>
				</g>
				<g>
					<g>
						<path class="st8" d="M516.4,122.5c0,0-0.5,0.1-1.5,0.2c-1,0.1-2.4,0.2-4.1-0.1c-1.7-0.3-3.8-1.1-5.2-3.2
							c-0.7-1-0.9-2.2-1.4-3.4c-0.4-1.1-1.2-2.1-2.3-2.8c-2.2-1.4-4.8-1.6-7-1.8c-2.3-0.3-4.4-0.7-5.8-1.8c-1.5-1-2.2-2.4-2.4-3.3
							c-0.1-0.5-0.1-0.9-0.1-1.1c0-0.3,0.1-0.4,0.1-0.4c0.1,0-0.1,0.5,0.2,1.5c0.2,0.9,1,2.1,2.4,3.1c1.4,1,3.4,1.4,5.7,1.6
							c2.2,0.3,4.9,0.4,7.2,1.9c1.2,0.7,2.1,1.9,2.5,3.1c0.4,1.2,0.7,2.4,1.3,3.3c1.2,1.9,3.2,2.7,4.9,3.1c1.7,0.3,3.1,0.3,4,0.3
							C515.9,122.4,516.4,122.4,516.4,122.5z"/>
					</g>
				</g>
				<g>
					<g>
						<path class="st8" d="M513.9,114.3c0,0-0.4,0.2-1.2,0.2c-0.8,0-1.9-0.1-3.2-0.7c-0.6-0.3-1.3-0.7-1.9-1.3
							c-0.6-0.6-1.1-1.3-1.6-2.1c-0.9-1.5-1.8-3.4-3.6-4.2c-1.8-0.8-3.9-0.6-5.6-0.5c-1.8,0.2-3.4,0.2-4.8,0c-1.4-0.2-2.4-0.8-3-1.3
							c-0.3-0.3-0.5-0.5-0.6-0.7c-0.1-0.2-0.2-0.3-0.1-0.3c0,0,0.3,0.3,0.9,0.8c0.6,0.5,1.6,0.9,2.9,1.1c1.3,0.2,2.9,0.1,4.7-0.1
							c1.8-0.1,3.8-0.4,5.9,0.5c1,0.4,1.8,1.2,2.4,2c0.6,0.8,1,1.7,1.5,2.4c0.4,0.8,0.9,1.5,1.4,2c0.5,0.5,1.1,1,1.7,1.3
							c1.2,0.6,2.3,0.8,3,0.8C513.5,114.3,513.9,114.3,513.9,114.3z"/>
					</g>
				</g>
				<g>
					<g>
						<path class="st8" d="M520.4,170.8c-0.1,0,0.3-0.7,0.6-1.9c0.4-1.2,0.7-3.1,0.7-5.4c-0.1-2.3-0.6-5-2.1-7.6
							c-0.7-1.3-1.8-2.5-2.7-3.9c-0.4-0.7-0.8-1.5-1-2.4c-0.2-0.9-0.1-1.8,0.2-2.7c0.6-1.7,1.6-3.2,1.8-4.8c0.3-1.6-0.5-3-1.3-4.3
							c-0.4-0.7-0.8-1.3-1.1-2c-0.3-0.7-0.5-1.4-0.6-2.1c-0.2-1.4,0-2.7,0.1-3.8c0.3-2.3,0.1-4.2-0.5-5.3c-0.5-1.2-1.2-1.5-1.2-1.6
							c0,0,0,0,0.1,0.1c0.1,0,0.2,0.1,0.3,0.2c0.3,0.2,0.6,0.6,0.9,1.2c0.6,1.2,0.9,3.1,0.7,5.4c-0.1,1.2-0.2,2.4-0.1,3.7
							c0.1,1.3,0.8,2.6,1.6,3.9c0.4,0.7,0.8,1.3,1.1,2.1c0.3,0.8,0.4,1.7,0.3,2.5c-0.2,1.7-1.3,3.2-1.8,4.9
							c-0.3,0.8-0.4,1.6-0.2,2.4c0.2,0.8,0.5,1.5,0.9,2.2c0.9,1.4,2,2.6,2.7,3.9c1.5,2.7,2.1,5.5,2.1,7.9c0,2.3-0.4,4.2-0.8,5.4
							c-0.2,0.6-0.4,1.1-0.6,1.4C520.5,170.6,520.4,170.8,520.4,170.8z"/>
					</g>
				</g>
			</g>
		</g>
		<g>
			<g>
				<path class="st7" d="M479.7,357.1c0,0-6.7-63.8-7.1-87.4c-0.4-23.6,10.6-46.9,10.6-46.9l43.1-1.8c0,0,8.5,23.9,8.7,34
					c0.3,19.5-5.2,38.8-4.6,54.3l1.4,47.8"/>
			</g>
			<g>
				<g>
					<path class="st12" d="M533.2,278.6c0,0-0.2,0.2-0.7,0.5c-0.1,0.1-0.3,0.2-0.4,0.3c-0.1,0.1-0.3,0.3-0.4,0.4
						c-0.3,0.3-0.7,0.6-1,1.1c-1.4,1.7-2.4,4.7-3.4,8.5c-0.5,1.9-1.1,4-2.2,6.1c-0.3,0.5-0.6,1-1,1.5c-0.2,0.2-0.4,0.5-0.6,0.7
						l-0.7,0.7c-0.9,0.9-2,1.6-3.2,2.1c-2.4,1.1-5.1,1.6-7.6,2.8c-2.5,1.2-4.4,3.6-5.5,6.3c-1.2,2.7-1.9,5.6-3,8.2
						c-1,2.6-2.3,5.2-4.5,6.8c-2.1,1.7-4.8,2.1-7.1,2.2c-2.3,0.1-4.5,0.1-6.4,0.4c-1.9,0.3-3.6,0.9-4.8,1.8
						c-1.2,0.9-1.9,2.1-2.2,3.2c-0.3,1-0.3,1.9-0.2,2.5c0.1,0.6,0.3,0.8,0.2,0.8c0,0-0.2-0.3-0.3-0.8c-0.2-0.6-0.2-1.5,0.1-2.5
						c0.3-1.1,1-2.3,2.3-3.3c1.2-1,3-1.7,4.9-2c2-0.3,4.1-0.3,6.4-0.4c2.3-0.2,4.8-0.6,6.8-2.2c2-1.5,3.3-4,4.3-6.6
						c1-2.6,1.7-5.5,3-8.2c1.2-2.8,3.2-5.3,5.8-6.5c2.6-1.3,5.3-1.8,7.7-2.8c1.2-0.5,2.3-1.1,3.1-2l0.6-0.6c0.2-0.2,0.4-0.5,0.5-0.7
						c0.4-0.4,0.6-1,0.9-1.5c1.1-2,1.7-4.1,2.2-6c1-3.8,2.1-6.9,3.6-8.6c0.3-0.5,0.7-0.8,1-1.1c0.2-0.1,0.3-0.3,0.4-0.4
						c0.1-0.1,0.3-0.2,0.4-0.3C533,278.7,533.2,278.6,533.2,278.6z"/>
				</g>
			</g>
			<g>
				<g>
					<path class="st12" d="M533.5,249.1c0,0,0,0.3,0.1,0.9c0,0.6-0.1,1.4-0.3,2.4c-0.5,2.1-2,4.9-4.9,7.5c-1.4,1.3-3.1,2.6-5,3.7
						c-1.9,1.1-4.1,2.2-6.2,3.5c-2.2,1.2-4.4,2.6-6.4,4.5c-2,1.8-3.5,4.2-4.8,6.8c-1.4,2.5-2.6,5.1-4.2,7.4c-0.8,1.1-1.7,2.1-2.7,3
						c-1,0.9-2.1,1.6-3.3,2.2c-2.3,1.2-4.6,1.9-6.7,2.6c-2.1,0.7-4.1,1.2-5.9,2c-1.7,0.7-3.3,1.5-4.5,2.4c-1.2,0.9-2.2,1.8-2.8,2.6
						c-1.3,1.6-1.6,2.8-1.7,2.8c0,0,0.1-0.3,0.3-0.8c0.2-0.5,0.6-1.3,1.3-2.1c0.6-0.9,1.6-1.8,2.8-2.7c1.2-0.9,2.8-1.8,4.5-2.5
						c1.8-0.8,3.8-1.4,5.9-2c2.1-0.7,4.4-1.4,6.6-2.6c1.1-0.6,2.2-1.3,3.2-2.1c1-0.9,1.9-1.8,2.6-2.9c1.6-2.2,2.8-4.8,4.1-7.3
						c1.4-2.6,2.9-5,4.9-6.9c2-1.9,4.3-3.3,6.5-4.5c2.2-1.2,4.3-2.3,6.3-3.4c1.9-1.1,3.6-2.3,5-3.6c2.8-2.5,4.4-5.3,4.9-7.3
						C533.6,250.3,533.4,249.1,533.5,249.1z"/>
				</g>
			</g>
			<g>
				<g>
					<path class="st12" d="M472.8,273c0,0,0-0.1-0.1-0.2c0-0.1-0.1-0.3-0.2-0.6c-0.1-0.5-0.2-1.4,0.1-2.4c0.6-2,2.8-4.6,6.3-5.8
						c1.8-0.6,3.8-1,5.9-1.5c2.1-0.6,4.3-1.3,6-3.1c0.8-0.9,1.5-1.9,2.1-3c0.6-1.1,1-2.3,1.5-3.6c0.9-2.5,1.6-5.2,3.2-7.7
						c1.5-2.5,4-4.2,6.5-5.1c2.5-0.9,5.1-1.3,7.5-1.9c2.4-0.5,4.6-1.2,6.5-2.2c1.9-1.1,3.4-2.5,4.4-4c2.2-3,2.7-6.1,2.8-8.1
						c0-2.1-0.3-3.2-0.2-3.2c0,0,0.4,1.1,0.4,3.2c0,2.1-0.5,5.2-2.7,8.3c-1.1,1.5-2.6,3-4.5,4.1c-1.9,1.1-4.2,1.8-6.6,2.3
						c-2.4,0.6-4.9,1-7.4,1.9c-2.5,0.9-4.8,2.5-6.3,4.9c-1.5,2.4-2.2,5.1-3.1,7.6c-0.5,1.3-0.9,2.5-1.5,3.7
						c-0.6,1.2-1.4,2.2-2.2,3.1c-1.8,1.8-4.1,2.6-6.2,3.1c-2.1,0.5-4.1,0.9-5.9,1.5c-3.5,1.2-5.7,3.6-6.3,5.5
						c-0.3,1-0.3,1.8-0.2,2.3C472.7,272.8,472.8,273,472.8,273z"/>
				</g>
			</g>
			<g>
				<g>
					<path class="st12" d="M529.8,327c0,0,0,0.2,0.1,0.6c0,0.4,0,1-0.2,1.8c-0.4,1.5-1.5,3.6-3.8,5.4c-1.1,0.9-2.4,1.7-4,2.4
						c-1.5,0.7-3.2,1.2-5,1.7c-1.8,0.5-3.6,1.1-5.4,2c-1.8,0.8-3.5,2-4.9,3.6c-1.5,1.5-2.7,3.2-4.1,4.7c-1.4,1.5-3,2.7-4.6,3.6
						c-3.3,1.8-6.7,2.4-9.5,2.5c-2.8,0-5.1-0.6-6.5-1.1c-0.7-0.3-1.3-0.5-1.7-0.7c-0.4-0.2-0.6-0.3-0.6-0.3c0,0,0.2,0.1,0.6,0.2
						c0.4,0.2,0.9,0.4,1.7,0.6c1.5,0.5,3.7,1,6.5,0.9c2.8-0.1,6.1-0.7,9.3-2.5c1.6-0.9,3.1-2.1,4.5-3.5c1.4-1.5,2.6-3.1,4.1-4.7
						c1.5-1.6,3.2-2.9,5.1-3.7c1.8-0.9,3.7-1.4,5.5-2c1.8-0.5,3.4-1,5-1.7c1.5-0.6,2.8-1.4,3.9-2.2c2.2-1.7,3.4-3.7,3.8-5.2
						C529.9,327.9,529.7,327,529.8,327z"/>
				</g>
			</g>
		</g>
		<g>
			<path class="st9" d="M524.9,194.5l-8.3,0.2c-0.5,2.8-1.9,4.7-1.9,4.7c-7-12.1-12.4-28.3-13.7-34.8c0.2-0.7,0.4-1.4,0.7-2.2
				c0.3-0.9,0-2.7-0.1-3.7c-0.2-1.4-0.6-3.4-0.8-4.3c-0.4-2.8-0.8-3.2-1.8-2.9c-1.3,0.4,0.5,7.7-0.5,7.9c-0.6,0.1-1.3-2.4-1.5-4.5
				c-0.2-2.1-1.1-8.4-1.8-8.8c-1-0.6-1.9,0.4-1.6,2.4c0.3,2.1,0.6,8.2-0.5,8.3c-1.1,0.1-2-10.4-2-10.4s0.2-2.3-1.1-2.2
				c-2.3,0.1-0.5,11.1-0.3,12.2c0.1,0.7-1,0.9-1.1,0.1c-0.1-0.8-0.7-10.5-3-10.4c-1.8,0.1,1.4,9.1,0.4,11.2c-1,2.1-1.7-7.1-3.4-7
				c-0.6,0-1.1,0.2,0.1,5.4c0.6,2.8,2.4,8,4,12.2c2.7,14.4,14.4,60.7,32.9,52.2c10.3-4.7,14.5-25.7,14.5-25.7L524.9,194.5z"/>
			<g>
				<g>
					<path class="st10" d="M489.3,157.2c0,0,0.1,0,0.2,0c0.1,0,0.4-0.2,0.4-0.6c0-0.6-0.1-1.5-0.3-2.7c-0.1-1.2-0.5-2.6-0.5-4.3
						c0-0.8,0-1.7,0.1-2.7c0-0.5,0-1,0.1-1.4c0.1-0.5,0.4-1,0.7-0.9l0,0l0,0c0.4,0,0.6,0.3,0.7,0.7c0.1,0.4,0.2,0.9,0.1,1.3l0,0l0,0
						c0.2,2.6,0.5,5.4,1.1,8.3c0.1,0.4,0.2,0.7,0.3,1.1c0.1,0.2,0.1,0.4,0.2,0.6c0.1,0.1,0.1,0.2,0.2,0.3c0.1,0.1,0.2,0.2,0.4,0.3
						c0.4,0,0.5-0.3,0.6-0.5c0.1-0.2,0.1-0.4,0.2-0.6c0.1-0.4,0.1-0.8,0.2-1.2c0.1-1.6,0.1-3.3-0.1-5c0-0.9-0.3-1.7-0.1-2.5
						c0.1-0.4,0.2-0.8,0.5-0.9c0.1-0.1,0.3-0.1,0.4-0.1c0.1,0,0.2,0.1,0.2,0.1c0.1,0.1,0.1,0,0.1,0.1c0.3,0.7,0.5,1.6,0.7,2.5
						c0.2,0.9,0.3,1.8,0.5,2.7c0.1,0.9,0.3,1.8,0.4,2.8c0.1,0.9,0.2,1.9,0.5,2.8c0.1,0.5,0.3,0.9,0.5,1.4c0.1,0.2,0.2,0.5,0.4,0.7
						c0.1,0.1,0.3,0.3,0.6,0.2c0.3-0.1,0.4-0.3,0.4-0.4c0.2-0.6,0.1-1.1,0.1-1.6c0-0.5-0.1-1-0.1-1.5c-0.1-0.8-0.2-1.7-0.2-2.5
						c0-0.4,0-0.8,0-1.2c0-0.2,0.1-0.4,0.1-0.5c0-0.1,0.1-0.1,0.1-0.1c0,0,0,0,0,0l0.1,0c0.7-0.3,0.9,0.6,1.1,1.4
						c0.2,0.8,0.3,1.6,0.4,2.4c0.3,1.6,0.6,3.1,0.8,4.6c0.1,0.7,0.1,1.5-0.1,2.2c-0.2,0.7-0.5,1.4-0.7,2.1l0,0.1l0,0.1
						c1.2,5.4,2.9,10.2,4.5,14.5c1.6,4.3,3.2,8,4.6,11c1.4,3,2.6,5.3,3.5,6.9c0.4,0.8,0.8,1.3,1,1.8c0.2,0.4,0.4,0.6,0.4,0.6
						c0,0-0.1-0.2-0.3-0.6c-0.2-0.5-0.6-1.1-1-1.8c-0.8-1.6-2-4-3.4-7c-1.4-3-2.9-6.7-4.4-11c-1.5-4.3-3.2-9.1-4.4-14.4l0,0.1
						c0.2-0.7,0.5-1.4,0.7-2.1c0.3-0.8,0.2-1.6,0.1-2.4c-0.2-1.6-0.5-3.1-0.8-4.7c-0.2-0.8-0.2-1.6-0.4-2.4
						c-0.1-0.4-0.2-0.8-0.4-1.2c-0.1-0.2-0.3-0.4-0.6-0.6c-0.3-0.1-0.6-0.1-0.8,0l-0.2,0c-0.1,0-0.2,0.1-0.2,0.1
						c-0.1,0.1-0.2,0.2-0.3,0.4c-0.1,0.2-0.1,0.5-0.2,0.7c0,0.4,0,0.9,0,1.3c0,0.8,0.1,1.7,0.2,2.5c0,0.5,0.1,1,0.1,1.5
						c0,0.5,0,1-0.1,1.3c0,0.1-0.1,0.1,0,0.1l0,0c0,0,0,0.1,0,0l0,0c0,0,0,0,0,0c0,0,0,0,0,0c0,0,0,0-0.1-0.1
						c-0.1-0.1-0.2-0.3-0.3-0.5c-0.2-0.4-0.3-0.9-0.4-1.3c-0.2-0.9-0.4-1.8-0.5-2.8c-0.1-0.9-0.2-1.9-0.4-2.8
						c-0.1-0.9-0.3-1.8-0.5-2.7c-0.2-0.9-0.3-1.8-0.8-2.7c0-0.1-0.2-0.3-0.3-0.4c-0.1-0.1-0.2-0.1-0.4-0.2c-0.3-0.1-0.6,0-0.8,0.1
						c-0.5,0.3-0.6,0.8-0.7,1.3c-0.1,0.5-0.1,0.9,0,1.4c0.1,0.4,0.1,0.8,0.1,1.3c0.1,1.7,0.2,3.3,0.1,4.9c0,0.4-0.1,0.8-0.1,1.2
						c0,0.2-0.1,0.4-0.2,0.5c0,0.1-0.1,0.1-0.1,0.2c0,0.1-0.1,0-0.1,0.1c0.1-0.1,0,0,0-0.1c0,0-0.1-0.1-0.1-0.2
						c-0.1-0.2-0.1-0.3-0.2-0.5c-0.1-0.4-0.2-0.7-0.3-1.1c-0.6-2.9-0.9-5.7-1.1-8.3l0,0c0-0.5,0-1-0.2-1.5c-0.1-0.2-0.2-0.5-0.4-0.7
						c-0.2-0.2-0.5-0.3-0.7-0.3l0.1,0c-0.4-0.1-0.7,0.2-0.9,0.4c-0.2,0.2-0.2,0.5-0.3,0.8c-0.1,0.5-0.1,1-0.1,1.5c0,1,0,1.9,0,2.7
						c0,1.7,0.4,3.1,0.6,4.3c0.2,1.2,0.3,2.1,0.4,2.7c0.1,0.3-0.2,0.5-0.3,0.5C489.4,157.2,489.3,157.2,489.3,157.2z"/>
				</g>
			</g>
		</g>
		<path class="st9" d="M424.2,208.2c0,0-2.8-0.1-5.8,0.7c-5.2,1.4-14.1,6.8-14.4,13.4h6.5c0,0-3.6,7.7-2.6,7
			c2.8-1.9,8.3-7.4,8.3-7.4L424.2,208.2z"/>
		<g>
			<g>
				<g>
					<path class="st7" d="M512.5,92c-0.1,0-0.7-5.3-1.3-12c-0.6-6.6-0.9-12-0.8-12c0.1,0,0.7,5.3,1.3,12
						C512.3,86.7,512.7,92,512.5,92z"/>
				</g>
			</g>
			<g>
				<g>
					<path class="st7" d="M540.9,68.4c0.1,0.1-4.3,6.4-9.8,14.2c-5.5,7.8-10.1,14-10.2,13.9c-0.1-0.1,4.3-6.4,9.8-14.2
						C536.2,74.5,540.8,68.3,540.9,68.4z"/>
				</g>
			</g>
			<g>
				<g>
					<path class="st7" d="M552.7,97.2c0,0.1-5.1,1.3-11.4,2.6c-6.3,1.3-11.5,2.2-11.5,2.1c0-0.1,5.1-1.3,11.4-2.6
						C547.6,98,552.7,97,552.7,97.2z"/>
				</g>
			</g>
		</g>
	</g>
</g>
<g id="Folder">
	<g>
		<g>
			<path class="st6" d="M212.6,234.5l-35.4,181.8l-4.6,23.8l236.1-1.2c10.6-0.1,20-9.5,23.4-23.4l41.9-171.6
				c2.6-10.6-3.1-21.6-11.1-21.6l-238.9,0.3C218.6,222.5,214,227.4,212.6,234.5z"/>
		</g>
		<g class="st13">
			<path d="M212.6,234.5l-35.4,181.8l-4.6,23.8l236.1-1.2c10.6-0.1,20-9.5,23.4-23.4l41.9-171.6c2.6-10.6-3.1-21.6-11.1-21.6
				l-238.9,0.3C218.6,222.5,214,227.4,212.6,234.5z"/>
		</g>
		<g>
			<path class="st6" d="M386.1,404l-25-201.4c-1-8.3-7.6-14.4-15.4-14.4l-54.8,0.2c-4.1,0-7.9,1.7-10.8,4.8l-26,27.7l-152.4,0.8
				c-9.3,0-16.5,8.9-15.2,18.8l23.2,186.2c1,8.2,7.6,14.4,15.3,14.4l265.6-0.5c29.6,0.6,32.4-8.1,32.4-8.1
				C389.1,439.8,386.1,404,386.1,404z"/>
		</g>
		<g class="st13">
			<polygon class="st14" points="271.5,363.7 262.5,373.3 193.5,311.3 202.5,301.6 			"/>
			<polygon class="st14" points="258.8,299.5 268.7,308.4 206.3,375.5 196.4,366.6 			"/>
		</g>
	</g>
</g>
<g id="Speech_Bubble">
	<g>
		<g>
			<g>
				<g>
					<path class="st6" d="M424,103.8c-0.6-0.3-1.1-0.9-1.1-1.6l-0.4-9.3c0-0.6,0.2-1.1,0.7-1.5c0.5-0.4,1-0.5,1.6-0.4
						c1.5,0.4,3.1,0,4.5-0.9c1.3-0.8,2.1-2.1,2.3-3.4c0.2-1.3-0.2-2.8-1.1-4c-1-1.3-2.5-2.2-3.9-2.4c-3-0.3-6.3,2-7.1,5
						c-0.3,1-1.3,1.6-2.3,1.3c-1-0.3-1.6-1.3-1.3-2.3c1.3-4.8,6.3-8.3,11.1-7.8c2.5,0.3,4.9,1.7,6.5,3.8c1.5,2,2.2,4.5,1.8,6.9
						c-0.4,2.3-1.8,4.5-3.9,5.9c-1.5,1-3.3,1.6-5.1,1.7l0.3,7.2c0,1-0.8,1.9-1.8,1.9C424.5,103.9,424.2,103.9,424,103.8z"/>
				</g>
			</g>
			<g>
				<g>
					<path class="st6" d="M426.7,107.6c0.1,0.8-0.6,1.6-1.4,1.6c-0.8,0.1-1.6-0.6-1.6-1.4c-0.1-0.8,0.6-1.6,1.4-1.6
						S426.7,106.7,426.7,107.6z"/>
				</g>
			</g>
		</g>
		<g>
			<g>
				<g>
					<path class="st7" d="M391.9,90.7c0,0,0-0.2,0.1-0.6c0-0.4,0.1-1,0.2-1.8c0-0.8,0.2-1.7,0.5-2.9c0.1-0.6,0.2-1.2,0.4-1.8
						c0.2-0.6,0.4-1.3,0.6-2c1-2.8,2.5-6.2,5-9.5c2.5-3.3,6-6.6,10.5-9.1c2.2-1.3,4.8-2.2,7.4-3.1c2.7-0.6,5.6-1.2,8.5-1.1
						c1.5-0.1,3,0.1,4.5,0.3c0.8,0.1,1.5,0.3,2.3,0.4c0.8,0.1,1.5,0.3,2.3,0.6c3.1,0.8,6.1,2.2,8.9,4.1c5.7,3.6,10.6,9.5,13.2,16.6
						c1.3,3.6,2,7.5,2,11.4c0.1,4-0.7,8-2.1,11.7l-0.5,1.1l-0.1,0.2l0.1,0.1c2.5,5.8,5,11.4,7.4,16.9l0.4-0.5
						c-5.2-2-10.2-3.9-15-5.8l-0.2-0.1l-0.1,0.1c-4.2,4-9.1,6.7-14.1,8.2c-5,1.4-10.1,1.5-14.7,0.7c-4.6-0.8-8.8-2.6-12.3-4.9
						c-3.5-2.3-6.3-5-8.4-7.9c-2.1-2.8-3.5-5.8-4.6-8.4c-0.9-2.7-1.5-5-1.8-7c-0.1-1-0.2-1.8-0.3-2.6c0-0.7,0-1.4,0-1.9
						c0-0.5,0-0.9,0-1.2C391.9,90.8,391.9,90.7,391.9,90.7c0,0,0,0.1,0,0.4c0,0.3,0,0.7,0,1.2c0,0.5,0,1.2,0,1.9
						c0.1,0.8,0.2,1.6,0.3,2.6c0.2,2,0.8,4.4,1.7,7.1c1,2.6,2.4,5.6,4.6,8.5c2.2,2.9,5,5.7,8.5,8c3.5,2.3,7.7,4.2,12.4,5
						c4.7,0.9,9.8,0.8,15-0.6c5.1-1.4,10.2-4.2,14.4-8.3l-0.3,0.1c4.8,1.9,9.8,3.8,15,5.8l0.8,0.3l-0.3-0.8
						c-2.4-5.5-4.8-11.2-7.3-16.9l0,0.3l0.5-1.2c1.4-3.9,2.2-8,2.1-12c0-4-0.7-8-2-11.7c-2.7-7.3-7.7-13.2-13.5-16.9
						c-2.9-1.8-6-3.3-9.1-4.1c-0.8-0.3-1.6-0.4-2.3-0.6c-0.8-0.1-1.6-0.3-2.3-0.4c-1.6-0.1-3.1-0.3-4.6-0.3c-3-0.1-5.9,0.5-8.7,1.2
						c-2.7,0.8-5.3,1.8-7.5,3.1c-4.6,2.6-8.1,5.9-10.6,9.3c-2.5,3.4-4,6.8-4.9,9.7c-0.2,0.7-0.4,1.4-0.6,2c-0.2,0.6-0.3,1.3-0.4,1.8
						c-0.2,1.1-0.4,2.1-0.4,2.9c-0.1,0.8-0.1,1.4-0.1,1.8C391.8,90.5,391.8,90.7,391.9,90.7z"/>
				</g>
			</g>
		</g>
	</g>
</g>
</svg>
