<?xml version="1.0" encoding="utf-8"?>
<!-- Generator: Adobe Illustrator 27.0.0, SVG Export Plug-In . SVG Version: 6.00 Build 0)  -->
<svg version="1.1" xmlns="http://www.w3.org/2000/svg" xmlns:xlink="http://www.w3.org/1999/xlink" x="0px" y="0px"
	 viewBox="0 0 655.5 326" style="enable-background:new 0 0 655.5 326;" xml:space="preserve">
<style type="text/css">
	.st0{fill:#EBEBEB;}
	.st1{fill:#E0E0E0;}
	.st2{fill:#F5F5F5;}
	.st3{fill:#FFFFFF;}
	.st4{fill:#FAFAFA;}
	.st5{fill:none;stroke:#FBFBFB;stroke-width:0.25;stroke-miterlimit:10;}
	.st6{display:none;}
	.st7{display:inline;fill:#F5F5F5;}
	.st8{fill:#FF725E;}
	.st9{fill:#263238;}
	.st10{fill:#455A64;}
	.st11{opacity:0.3;}
	.st12{fill:#FFBE9D;}
	.st13{fill:#EB996E;}
	.st14{fill:none;stroke:#4E585D;stroke-width:5.000000e-02;stroke-miterlimit:10;}
	.st15{opacity:0.6;}
</style>
<g id="Background_Complete">
	<g>
		<g>
			<g>
				<g>
					<g>
						<path class="st0" d="M616.6,308.5c3.1,4.5,9.3,3,12.1,0.3c2.8-2.7,4-6.7,5.1-10.5c2.5-8.7,5-17.8,3.2-26.6
							c-0.6-2.6-1.5-5.3-3.4-7.2c-1.9-2-4.7-3.1-7.3-2.4c-3.1,0.8-5,3.8-6.4,6.7c-4.1,8.5-6.2,17.8-6.3,27.2
							C613.6,300.3,614.2,304.9,616.6,308.5"/>
					</g>
				</g>
			</g>
			<g>
				<g>
					<g>
						<path class="st0" d="M608,315c3.4-4.1,4.1-10,2.5-15.1c-1.5-5.1-5-9.4-8.9-12.9c-4.6-4.1-10.1-7.4-16-9.4
							c-2.3-0.8-4.7-1.5-7.2-1.2c-2.4,0.2-4.9,1.5-6,3.6c-1.7,3.2-0.1,7.1,1.7,10.3c3.1,5.6,6.6,10.9,10.5,16
							c3.1,4.1,6.7,8.1,11.5,9.9c4.8,1.8,9.8,1.6,12.3-1.7"/>
					</g>
				</g>
			</g>
			<g>
				<g>
					<g>
						<g>
							<path class="st1" d="M616.8,372.1c0,0,0-0.3,0.1-0.9c0-0.7,0-1.6,0-2.7c0-2.4,0-5.8,0.1-10c0.2-8.4,0.9-17.5,2.3-30.2
								c1.3-12,3.1-26,5-35c0.4-2.1,0.8-3.9,1.2-5.6c0.4-1.6,0.7-3,1-4.2c0.3-1.1,0.5-1.9,0.6-2.6c0.1-0.6,0.2-0.9,0.2-0.9
								c0,0-0.1,0.3-0.3,0.9c-0.2,0.7-0.5,1.5-0.8,2.6c-0.3,1.1-0.7,2.5-1.1,4.1c-0.4,1.6-0.9,3.5-1.3,5.5
								c-1.9,8.2-3.8,19.7-5.2,32.5c-1.4,12.8-2,24.4-2.1,32.9c-0.1,4.2,0,7.6,0.1,10c0.1,1.1,0.1,2,0.2,2.7
								C616.7,371.8,616.8,372.1,616.8,372.1z"/>
						</g>
					</g>
				</g>
			</g>
			<g>
				<g>
					<g>
						<g>
							<path class="st1" d="M616.9,349.6c0.1,0,0-1,0-2.8c-0.1-1.8-0.4-4.5-0.9-7.7c-0.5-3.2-1.3-7-2.5-11.2
								c-0.5-1.9-1.7-6.4-4.7-13.2c-3.9-9.2-9.1-16.7-13.7-21.4c-1.1-1.2-2.3-2.1-3.2-3c-0.5-0.4-0.9-0.8-1.4-1.2
								c-0.4-0.3-0.9-0.6-1.3-0.9c-1.5-1-2.4-1.6-2.4-1.5c-0.1,0.2,3.4,2.3,7.8,7c4.4,4.7,9.5,12.2,13.4,21.3
								c2.1,4.9,3.6,9.4,4.7,13.1c1.2,4.1,2,7.9,2.7,11.1c0.6,3.2,0.9,5.8,1.1,7.6C616.7,348.6,616.8,349.6,616.9,349.6z"/>
						</g>
					</g>
				</g>
			</g>
		</g>
	</g>
	<g>
		<g>
			<g>
				<g>
					<g>
						<polygon class="st1" points="43.5,319.3 43.5,327.9 145.5,327.9 145.5,319.3 92.5,319.3 						"/>
					</g>
				</g>
				<g>
					<g>
						<polygon class="st1" points="94.5,358.7 142.2,358.7 142.2,327.9 145.5,327.9 145.5,319.3 92.5,319.3 92.5,327.1 						"/>
					</g>
				</g>
			</g>
		</g>
		<g>
			<g>
				<g>
					<path class="st1" d="M156.4,424.9l-2-421.8h-8.2v83.1h-21.1l-0.4-83.1h-8.2v83.1H46.5h-2.4L43.7,3.1h-8.2v83.1h-21L14.1,3.1
						H5.9v421.8h10.2l-0.3-56.6h19.7v56.6h10.2l-0.3-56.6h71.2v56.6h10.2l-0.3-56.6h19.8v56.6H156.4z M25.1,312.4l-7.3-31.3h15
						L25.1,312.4z M35.5,283v73.8L26.7,319L35.5,283z M35.5,175.7l-8.8-37.9l8.8-36V175.7z M33.9,182.5H15.7l9.4-38.1L33.9,182.5z
						 M25.1,131.2l-8.4-35.8h17.2L25.1,131.2z M23.5,137.8l-8.6,35.1l-0.3-73.5L23.5,137.8z M15.4,284.3l8.1,34.7l-7.8,31.6
						L15.4,284.3z M25,325.6l7.8,33.4h-16L25,325.6z M15.7,271.9l-0.1-0.3l-0.3,0.1l-0.4-80h20.5v80.2H15.7z M44.6,191.7h72.1v80.2
						H46.5h-1.5L44.6,191.7z M135.3,144.4l8.9,38.1h-18.2L135.3,144.4z M125.6,170.8l-0.3-69.2l8.4,36.2L125.6,170.8z M146.3,178.1
						l-9.4-40.3l9.4-38.3V178.1z M146.3,182.3v0.1h-0.6L146.3,182.3z M146.3,285.2v69.4L138,319L146.3,285.2z M136.4,312.4
						l-7.3-31.3h15L136.4,312.4z M135.3,131.2L127,95.4h17.2L135.3,131.2z M146.3,191.7v80.2H127l-0.1-0.3l-0.9,0.2l-0.4-80.1H146.3
						z M134.8,319l-8.4,34l-0.3-71.3L134.8,319z M136.4,325.6l7.8,33.4h-16L136.4,325.6z M116.6,95.4v87.1H46.5h-1.9l-0.4-87.1
						H116.6z M46.7,359h-1.3L45,281.1h71.6V359H46.7z"/>
				</g>
				<g>
					<g>
						<rect x="96.8" y="119.9" class="st1" width="13.5" height="62.9"/>
					</g>
					<g>
						<path class="st4" d="M106.5,167.7c0,1.5-1.2,2.7-2.7,2.7c-1.5,0-2.7-1.2-2.7-2.7c0-1.5,1.2-2.7,2.7-2.7
							C105.3,165.1,106.5,166.3,106.5,167.7z"/>
					</g>
					<g>
						<rect x="101.7" y="136.6" class="st4" width="4.1" height="25.7"/>
					</g>
				</g>
				<g>
					<g>
						<rect x="83.1" y="119.9" class="st0" width="13.5" height="62.9"/>
					</g>
					<g>
						<path class="st4" d="M92.8,167.7c0,1.5-1.2,2.7-2.7,2.7c-1.5,0-2.7-1.2-2.7-2.7c0-1.5,1.2-2.7,2.7-2.7
							C91.6,165.1,92.8,166.3,92.8,167.7z"/>
					</g>
					<g>
						<rect x="88" y="136.6" class="st4" width="4.1" height="25.7"/>
					</g>
				</g>
				<g>
					<g>
						<rect x="70.1" y="119.9" class="st2" width="13.5" height="62.9"/>
					</g>
					<g>
						<path class="st1" d="M79.8,167.7c0,1.5-1.2,2.7-2.7,2.7c-1.5,0-2.7-1.2-2.7-2.7c0-1.5,1.2-2.7,2.7-2.7
							C78.6,165.1,79.8,166.3,79.8,167.7z"/>
					</g>
					<g>
						<rect x="74.9" y="136.6" class="st1" width="4.1" height="25.7"/>
					</g>
				</g>
				<g>
					<polygon class="st2" points="53.4,181.9 69.6,126.6 64,124.1 47.4,179.9 					"/>
				</g>
				<g>
					<g>
						<polygon class="st2" points="29.4,271.9 29.4,262.4 96.6,262.4 96.8,271.9 						"/>
					</g>
					<g>
						<path class="st3" d="M96.6,263.9c0,0-59.6,0.4-63.5,1.3c-0.8,0.2-1.7,3.9,0,4.2c1.7,0.3,63.5,0.8,63.5,0.8V263.9z"/>
					</g>
				</g>
				<g>
					<g>
						<polygon class="st0" points="37.2,262 37.2,252.5 90.4,252.5 90.6,262 						"/>
					</g>
					<g>
						<path class="st4" d="M90.5,254c0,0-47.2,0.4-50.3,1.3c-0.7,0.2-1.3,3.9,0,4.2c1.3,0.3,50.3,0.8,50.3,0.8V254z"/>
					</g>
				</g>
				<g>
					<g>
						<polygon class="st1" points="36.9,252.6 36.9,243.1 90.2,243.1 90.4,252.6 						"/>
					</g>
					<g>
						<path class="st4" d="M90.2,244.6c0,0-47.2,0.4-50.3,1.3c-0.7,0.2-1.3,3.9,0,4.2c1.3,0.3,50.3,0.8,50.3,0.8V244.6z"/>
					</g>
				</g>
			</g>
			<g>
				<g>
					<rect x="102.9" y="24.5" class="st2" width="13.5" height="62.9"/>
				</g>
				<g>
					<path class="st1" d="M112.6,72.3c0,1.5-1.2,2.7-2.7,2.7c-1.5,0-2.7-1.2-2.7-2.7c0-1.5,1.2-2.7,2.7-2.7
						C111.4,69.6,112.6,70.8,112.6,72.3z"/>
				</g>
				<g>
					<rect x="107.7" y="41.1" class="st1" width="4.1" height="25.7"/>
				</g>
			</g>
			<g>
				<g>
					<rect x="89.2" y="24.5" class="st0" width="13.5" height="62.9"/>
				</g>
				<g>
					<path class="st4" d="M98.9,72.3c0,1.5-1.2,2.7-2.7,2.7c-1.5,0-2.7-1.2-2.7-2.7c0-1.5,1.2-2.7,2.7-2.7
						C97.7,69.6,98.9,70.8,98.9,72.3z"/>
				</g>
				<g>
					<rect x="94" y="41.1" class="st4" width="4.1" height="25.7"/>
				</g>
			</g>
			<g>
				<g>
					<rect x="76.1" y="24.5" class="st1" width="13.5" height="62.9"/>
				</g>
				<g>
					<path class="st4" d="M85.8,72.3c0,1.5-1.2,2.7-2.7,2.7c-1.5,0-2.7-1.2-2.7-2.7c0-1.5,1.2-2.7,2.7-2.7
						C84.6,69.6,85.8,70.8,85.8,72.3z"/>
				</g>
				<g>
					<rect x="81" y="41.1" class="st4" width="4.1" height="25.7"/>
				</g>
			</g>
		</g>
	</g>
	<g>
		<g>
			<g>
				<rect x="547.3" y="4.4" class="st1" width="96.2" height="139.5"/>
			</g>
		</g>
		<g>
			<g>
				<rect x="542.5" y="4.4" class="st2" width="96.2" height="139.5"/>
			</g>
		</g>
		<g>
			<g>
				<g>
					<rect x="554.4" y="19.5" class="st3" width="72.3" height="109.3"/>
				</g>
			</g>
			<g>
				<g>
					<g>
						<path class="st1" d="M626.7,128.8c0,0,0-0.2,0-0.5c0-0.4,0-0.9,0-1.5c0-1.4,0-3.4,0-6c0-5.2,0-12.9-0.1-22.5
							c0-19.3-0.1-46.5-0.1-78.7l0.2,0.2c-22.1,0-46.6,0-72.3,0h0l0.3-0.3c0,41.2,0,79.2-0.1,109.3l-0.2-0.2c22,0,40.1,0.1,52.6,0.1
							c6.3,0,11.2,0,14.5,0.1c1.7,0,2.9,0,3.8,0C626.3,128.7,626.7,128.8,626.7,128.8s-0.4,0-1.3,0c-0.9,0-2.1,0-3.8,0
							c-3.3,0-8.2,0-14.5,0.1c-12.6,0-30.7,0.1-52.8,0.1l-0.2,0l0-0.2c0-30,0-68-0.1-109.3l0-0.3h0.3h0c25.7,0,50.2,0,72.3,0l0.2,0
							l0,0.2c0,32.2-0.1,59.5-0.1,78.8c0,9.6,0,17.2-0.1,22.5c0,2.6,0,4.6,0,5.9c0,0.7,0,1.2,0,1.5
							C626.7,128.6,626.7,128.8,626.7,128.8z"/>
					</g>
				</g>
			</g>
		</g>
		<g>
			<g>
				<g>
					<path class="st1" d="M638.9,4.4c0.1,0-0.6,1-1.7,2.5c-1.1,1.5-2.7,3.5-4.5,5.7c-1.8,2.2-3.5,4.1-4.8,5.5
						c-1.3,1.4-2.1,2.2-2.1,2.2c-0.1,0,0.7-1,1.8-2.4c1.3-1.6,2.9-3.5,4.6-5.6c1.8-2.1,3.3-4.1,4.6-5.6
						C638.1,5.2,638.9,4.4,638.9,4.4z"/>
				</g>
			</g>
		</g>
		<g>
			<g>
				<g>
					<path class="st3" d="M627.1,128.4c3.6,5.7,7.8,11,12.6,15.8"/>
				</g>
			</g>
			<g>
				<g>
					<g>
						<path class="st1" d="M639.7,144.2c0,0-0.9-0.7-2.2-2c-1.3-1.3-3-3.2-4.8-5.4c-1.7-2.2-3.2-4.3-4.2-5.8c-1-1.5-1.5-2.5-1.5-2.6
							c0.1,0,0.7,0.9,1.8,2.4c1.1,1.5,2.6,3.5,4.3,5.7c1.7,2.2,3.4,4.1,4.6,5.4C639,143.3,639.8,144.1,639.7,144.2z"/>
					</g>
				</g>
			</g>
		</g>
		<g>
			<g>
				<g>
					<path class="st3" d="M542.4,143.8c4.2-5.2,8.4-10.4,12.6-15.6"/>
				</g>
			</g>
			<g>
				<g>
					<g>
						<path class="st1" d="M555,128.2c0.1,0.1-2.6,3.6-6.1,7.9c-3.5,4.3-6.4,7.7-6.5,7.6c-0.1-0.1,2.6-3.6,6.1-7.9
							C552,131.5,554.9,128.1,555,128.2z"/>
					</g>
				</g>
			</g>
		</g>
		<g>
			<g>
				<g>
					<path class="st1" d="M542.5,4.4c0.1-0.1,2.9,3.2,6.1,7.3c3.3,4.1,5.8,7.5,5.7,7.6c-0.1,0.1-2.9-3.2-6.1-7.3
						C544.9,7.9,542.3,4.5,542.5,4.4z"/>
				</g>
			</g>
		</g>
		<g>
			<g>
				<rect x="580" y="41.7" class="st1" width="24.2" height="68.7"/>
			</g>
		</g>
	</g>
</g>
<g id="Background_Simple" class="st6">
	<path class="st7" d="M567,70.7l-2.7-4.4C541.9,29.3,501.4,7.1,458.7,9.8c-5.5,0.3-11,1.1-16.4,2.2c-38.8,8.3-72.6,37.7-86.6,75.3
		c-8.2,22.1-10.5,47.6-26.2,65.1c-20.3,22.9-54.9,23.6-85.3,22.6c-30.4-0.9-64.9-0.1-85.2,22.8c-12.7,14.4-16.7,34.8-15.7,54
		c2.7,50.9,38.2,96.5,83.4,119.1c45.1,22.6,98.3,24.7,147.7,14.7c69.2-14,135-52.3,174.6-111.5S598.6,134.5,567,70.7z"/>
	<circle class="st7" cx="56.8" cy="131.7" r="43.6"/>
</g>
<g id="Floor">
</g>
<g id="Screen">
	<g>
		<rect x="120.7" y="6.4" class="st3" width="378.9" height="302.3"/>
	</g>
	<g>
		<g>
			
				<ellipse transform="matrix(0.7071 -0.7071 0.7071 0.7071 12.0977 128.9331)" class="st8" cx="161.7" cy="49.9" rx="11.2" ry="11.2"/>
		</g>
		<g>
			<g>
				<path class="st3" d="M161.7,55.1c-0.6,0-1-0.4-1-1v-8.5c0-0.6,0.4-1,1-1c0.6,0,1,0.4,1,1v8.5C162.7,54.7,162.2,55.1,161.7,55.1z
					"/>
			</g>
			<g>
				<path class="st3" d="M165.9,50.9h-8.5c-0.6,0-1-0.4-1-1c0-0.6,0.4-1,1-1h8.5c0.6,0,1,0.4,1,1C166.9,50.4,166.5,50.9,165.9,50.9z
					"/>
			</g>
		</g>
	</g>
	<g>
		<g>
			<path class="st0" d="M462.3,106.8H153.9c-3.8,0-6.8-3.1-6.8-6.8v-7.5c0-3.8,3.1-6.8,6.8-6.8h308.4c3.8,0,6.8,3.1,6.8,6.8v7.5
				C469.1,103.8,466.1,106.8,462.3,106.8z"/>
		</g>
		<g>
			<g>
				<path class="st9" d="M462.3,106.8c0,0,0.1,0,0.4,0c0.3,0,0.7-0.1,1.3-0.2c1.1-0.3,2.8-1,4-2.9c0.6-0.9,1-2.2,1-3.5
					c0-1.4,0-2.9,0-4.5c0-0.8,0-1.7,0-2.6c0-0.9-0.1-1.8-0.4-2.7c-0.6-1.8-2-3.4-4-4.1c-1-0.4-2.1-0.5-3.2-0.4c-1.1,0-2.3,0-3.5,0
					c-2.4,0-4.9,0-7.4,0c-5.2,0-10.8,0-16.9,0c-12.1,0-25.9,0-41.2,0c-61.1,0-145.4,0-238.5,0.1c-2.8,0-5.5,2-6.3,4.6
					c-0.4,1.3-0.3,2.8-0.3,4.2c0,1.4,0,2.9,0,4.3c0,0.7,0,1.4,0.1,2.1c0.1,0.7,0.4,1.3,0.7,1.9c0.7,1.2,1.7,2.2,3,2.8
					c0.6,0.3,1.3,0.5,2,0.6c0.7,0.1,1.4,0.1,2.1,0.1c1.4,0,2.8,0,4.3,0c11.3,0,22.5,0,33.5,0c22,0,43.1,0,63.3,0
					c40.4,0,76.7,0,107.2,0.1c30.5,0,55.2,0.1,72.3,0.1c8.5,0,15.2,0,19.7,0c2.2,0,4,0,5.1,0C461.7,106.8,462.3,106.8,462.3,106.8
					s-0.6,0-1.7,0c-1.2,0-2.9,0-5.1,0c-4.5,0-11.1,0-19.7,0c-17.1,0-41.8,0-72.3,0.1c-30.5,0-66.9,0-107.2,0.1
					c-20.2,0-41.4,0-63.3,0c-11,0-22.2,0-33.5,0c-1.4,0-2.8,0-4.3,0c-0.7,0-1.4,0-2.2-0.1c-0.7-0.1-1.5-0.3-2.1-0.6
					c-1.4-0.6-2.5-1.7-3.2-3c-0.4-0.7-0.6-1.4-0.7-2.1c-0.2-0.7-0.1-1.5-0.1-2.2c0-1.4,0-2.9,0-4.3v-2.2c0-0.7,0.1-1.5,0.3-2.2
					c0.8-2.9,3.7-5.1,6.8-5c93.1,0,177.5,0.1,238.5,0.1c15.3,0,29.1,0,41.2,0c6.1,0,11.7,0,16.9,0c2.6,0,5.1,0,7.4,0
					c1.2,0,2.3,0,3.5,0c1.1,0,2.3,0.1,3.3,0.5c2,0.8,3.5,2.5,4.1,4.3c0.3,0.9,0.4,1.9,0.4,2.7c0,0.9,0,1.7,0,2.6c0,1.6,0,3.2,0,4.5
					c0,1.4-0.5,2.6-1.1,3.6c-1.3,1.9-3,2.7-4.1,2.9c-0.6,0.1-1,0.2-1.3,0.2C462.4,106.8,462.3,106.8,462.3,106.8z"/>
			</g>
		</g>
	</g>
	<g>
		<g>
			<path class="st0" d="M236.2,142.3h-82.3c-3.8,0-6.8-3.1-6.8-6.8v-7.5c0-3.8,3.1-6.8,6.8-6.8h82.3c3.8,0,6.8,3.1,6.8,6.8v7.5
				C243,139.2,240,142.3,236.2,142.3z"/>
		</g>
		<g>
			<g>
				<path class="st9" d="M236.2,142.3c0-0.1,0.8,0.1,2.2-0.4c0.7-0.2,1.5-0.7,2.3-1.4c0.8-0.7,1.5-1.8,1.9-3.1
					c0.4-1.3,0.2-2.9,0.3-4.6c0-1.7,0-3.6-0.1-5.6c-0.2-1.9-1.4-3.9-3.3-5c-1-0.6-2.1-0.9-3.3-0.9c-1.2,0-2.4,0-3.7,0
					c-20.1,0-47.9,0-78.7,0.1c-1.9,0-3.7,0.8-4.9,2.2c-1.2,1.4-1.8,3.2-1.7,5c0,1.9,0,3.7,0,5.6c0,0.9-0.1,1.8,0.1,2.7
					c0.2,0.9,0.5,1.7,1,2.4c1,1.4,2.6,2.4,4.3,2.7c0.8,0.1,1.7,0.1,2.6,0.1c0.9,0,1.8,0,2.6,0c3.5,0,6.9,0,10.2,0
					c13.3,0,25.3,0,35.4,0.1c10.1,0,18.2,0.1,23.8,0.1c2.8,0,5,0,6.5,0c0.7,0,1.3,0,1.7,0C236,142.3,236.2,142.3,236.2,142.3
					s-0.2,0-0.6,0c-0.4,0-1,0-1.7,0c-1.5,0-3.7,0-6.5,0c-5.6,0-13.8,0-23.8,0.1c-10.1,0-22.1,0-35.4,0.1c-3.3,0-6.7,0-10.2,0
					c-0.9,0-1.7,0-2.6,0c-0.9,0-1.8,0.1-2.7-0.1c-1.8-0.3-3.5-1.4-4.6-2.9c-0.5-0.8-0.9-1.6-1.1-2.6c-0.2-0.9-0.1-1.9-0.2-2.8
					c0-1.8,0-3.7,0-5.6c-0.1-1.9,0.5-3.9,1.8-5.4c1.3-1.5,3.3-2.4,5.3-2.4c30.7,0,58.5,0.1,78.7,0.1c1.3,0,2.5,0,3.7,0
					c1.2,0,2.4,0.3,3.4,0.9c2,1.2,3.2,3.3,3.4,5.3c0.1,2,0,3.9,0,5.6c0,1.7,0.1,3.3-0.3,4.7c-0.4,1.4-1.2,2.4-2,3.1
					c-0.8,0.7-1.7,1.1-2.4,1.4c-0.7,0.2-1.3,0.3-1.7,0.3C236.4,142.3,236.2,142.3,236.2,142.3z"/>
			</g>
		</g>
	</g>
	<g>
		<g>
			<path class="st0" d="M462.3,178.8H154c-3.8,0-6.8-3.1-6.8-6.8v-7.5c0-3.8,3.1-6.8,6.8-6.8h308.3c3.8,0,6.8,3.1,6.8,6.8v7.5
				C469.1,175.7,466.1,178.8,462.3,178.8z"/>
		</g>
		<g>
			<g>
				<path class="st9" d="M462.3,178.8c0,0,0.1,0,0.4,0c0.3,0,0.7-0.1,1.3-0.2c1.1-0.3,2.8-1,4-2.9c0.6-0.9,1-2.2,1-3.5
					c0-1.4,0-2.9,0-4.5c0-0.8,0-1.7,0-2.6c0-0.9,0-1.8-0.4-2.7c-0.6-1.8-2-3.4-4-4.1c-1-0.4-2.1-0.5-3.2-0.4c-1.1,0-2.3,0-3.5,0
					c-2.4,0-4.9,0-7.4,0c-5.2,0-10.8,0-16.9,0c-12.1,0-25.9,0-41.2,0c-61,0-145.3,0-238.4,0.1c-2.8,0-5.5,2-6.3,4.6
					c-0.4,1.3-0.3,2.8-0.3,4.2c0,1.4,0,2.9,0,4.3c0,0.7,0,1.4,0.1,2.1c0.1,0.7,0.4,1.3,0.7,1.9c0.7,1.2,1.7,2.2,3,2.8
					c0.6,0.3,1.3,0.5,2,0.6c0.7,0.1,1.4,0.1,2.1,0.1c1.4,0,2.8,0,4.3,0c11.3,0,22.5,0,33.5,0c22,0,43.1,0,63.3,0
					c40.3,0,76.7,0,107.2,0.1c30.5,0,55.2,0.1,72.3,0.1c8.5,0,15.1,0,19.6,0c2.2,0,4,0,5.1,0C461.7,178.8,462.3,178.8,462.3,178.8
					s-0.6,0-1.7,0c-1.2,0-2.9,0-5.1,0c-4.5,0-11.1,0-19.6,0c-17.1,0-41.8,0-72.3,0.1c-30.5,0-66.8,0-107.2,0.1
					c-20.2,0-41.4,0-63.3,0c-11,0-22.1,0-33.5,0c-1.4,0-2.8,0-4.3,0c-0.7,0-1.4,0-2.2-0.1c-0.7-0.1-1.5-0.3-2.1-0.6
					c-1.3-0.6-2.5-1.7-3.2-3c-0.3-0.7-0.6-1.4-0.7-2.1c-0.2-0.7-0.1-1.5-0.1-2.2c0-1.4,0-2.9,0-4.3l0-2.2c0-0.7,0.1-1.5,0.3-2.2
					c0.9-2.9,3.7-5.1,6.8-5c93.1,0,177.4,0.1,238.4,0.1c15.3,0,29.1,0,41.2,0c6.1,0,11.7,0,16.9,0c2.6,0,5.1,0,7.4,0
					c1.2,0,2.3,0,3.5,0c1.1,0,2.3,0.1,3.3,0.5c2,0.8,3.5,2.5,4.1,4.3c0.3,0.9,0.4,1.9,0.4,2.7c0,0.9,0,1.7,0,2.6c0,1.6,0,3.2,0,4.5
					c0,1.4-0.5,2.6-1.1,3.6c-1.3,1.9-3,2.7-4.1,2.9c-0.6,0.1-1,0.2-1.3,0.2C462.4,178.8,462.3,178.8,462.3,178.8z"/>
			</g>
		</g>
	</g>
	<g>
		<g>
			<path class="st0" d="M462.3,254.2H154c-3.8,0-6.8-3.1-6.8-6.8v-46.5c0-3.8,3.1-6.8,6.8-6.8h308.3c3.8,0,6.8,3.1,6.8,6.8v46.5
				C469.1,251.2,466.1,254.2,462.3,254.2z"/>
		</g>
		<g>
			<g>
				<path class="st9" d="M462.3,254.2c0,0,0.2,0,0.5,0c0.3,0,0.8-0.1,1.4-0.3c0.6-0.2,1.4-0.5,2.1-1.1c0.8-0.6,1.5-1.4,2.1-2.5
					c0.6-1.1,0.7-2.5,0.7-4.1c0-1.5,0-3.2,0-5.1c0-3.7,0-7.9,0-12.7c0-4.8,0-10.1,0-15.8c0-2.9,0-5.9,0-9.1c0-0.8,0-1.6,0-2.4
					c0-0.8-0.1-1.6-0.3-2.4c-0.5-1.5-1.5-2.9-3-3.7c-0.7-0.4-1.5-0.7-2.3-0.9c-0.8-0.1-1.7-0.1-2.6-0.1c-1.7,0-3.5,0-5.3,0
					c-3.6,0-7.3,0-11.2,0c-7.7,0-15.8,0-24.3,0c-68.1,0-162.1,0-266,0.1c-1.6,0-3.1,0.6-4.3,1.6c-1.2,1-2,2.5-2.2,4
					c-0.1,0.8-0.1,1.6-0.1,2.4v2.4c0,1.6,0,3.2,0,4.8c0,6.4,0,12.8,0,19.1c0,6.3,0,12.6,0,18.8c0,1.5,0.6,3,1.5,4.1
					c1,1.1,2.3,1.9,3.8,2.2c0.7,0.2,1.5,0.1,2.3,0.1l2.3,0c1.5,0,3.1,0,4.6,0c24.5,0,48.1,0,70.6,0c45,0,85.5,0,119.6,0.1
					c34,0,61.6,0.1,80.6,0.1c9.5,0,16.9,0,21.9,0c2.5,0,4.4,0,5.7,0C461.6,254.2,462.3,254.2,462.3,254.2s-0.7,0-1.9,0
					c-1.3,0-3.2,0-5.7,0c-5,0-12.4,0-21.9,0c-19,0-46.6,0-80.6,0.1c-34,0-74.6,0-119.6,0.1c-22.5,0-46.1,0-70.6,0
					c-1.5,0-3.1,0-4.6,0l-2.3,0c-0.8,0-1.6,0-2.4-0.1c-1.6-0.3-3-1.2-4.1-2.4c-1-1.2-1.6-2.8-1.6-4.5c0-6.2,0-12.5,0-18.8
					c0-6.3,0-12.7,0-19.1c0-1.6,0-3.2,0-4.8l0-2.4c0-0.8,0-1.6,0.1-2.5c0.2-1.7,1.1-3.2,2.4-4.3c1.3-1.1,2.9-1.7,4.6-1.7
					c103.9,0,197.9,0.1,266,0.1c8.5,0,16.6,0,24.3,0c3.8,0,7.6,0,11.2,0c1.8,0,3.6,0,5.3,0c0.9,0,1.7,0,2.6,0.1
					c0.9,0.1,1.7,0.5,2.4,0.9c1.5,0.9,2.6,2.3,3.1,3.9c0.3,0.8,0.3,1.6,0.3,2.4c0,0.8,0,1.6,0,2.4c0,3.1,0,6.2,0,9.1
					c0,5.8,0,11.1,0,15.8c0,4.8,0,9,0,12.7c0,1.8,0,3.5,0,5.1c0.1,1.5-0.1,3-0.7,4.1c-0.5,1.1-1.4,2-2.1,2.5
					c-0.8,0.6-1.5,0.9-2.1,1.1c-0.6,0.2-1.1,0.2-1.4,0.2C462.5,254.2,462.3,254.2,462.3,254.2z"/>
			</g>
		</g>
	</g>
	<g>
		<g>
			<path class="st0" d="M350,142.3h-91.1c-3.8,0-6.8-3.1-6.8-6.8v-7.5c0-3.8,3.1-6.8,6.8-6.8H350c3.8,0,6.8,3.1,6.8,6.8v7.5
				C356.8,139.2,353.8,142.3,350,142.3z"/>
		</g>
		<g>
			<g>
				<path class="st9" d="M350,142.3c0-0.1,0.9,0.1,2.4-0.5c0.7-0.3,1.6-0.8,2.4-1.6c0.8-0.8,1.5-2,1.8-3.5c0.2-0.7,0.1-1.5,0.1-2.4
					c0-0.8,0-1.7,0-2.7c0-0.9,0-1.9,0-2.9c0-1,0-2-0.4-3c-0.7-2-2.5-3.8-4.8-4.3c-1.2-0.3-2.4-0.1-3.7-0.2c-1.3,0-2.6,0-4,0
					c-21.8,0-51.8,0-84.9,0.1c-2,0-4,0.9-5.2,2.5c-0.6,0.8-1,1.7-1.2,2.6c-0.2,0.9-0.1,2-0.2,3c0,2,0,4,0,6c0,1.9,0.9,3.8,2.3,5
					c0.7,0.6,1.6,1,2.5,1.3c0.9,0.3,1.8,0.2,2.8,0.2c1.9,0,3.8,0,5.7,0c3.8,0,7.4,0,11,0c14.4,0,27.3,0,38.2,0.1
					c10.9,0,19.6,0.1,25.7,0.1c3,0,5.4,0,7,0c0.8,0,1.4,0,1.8,0C349.8,142.3,350,142.3,350,142.3s-0.2,0-0.6,0c-0.4,0-1,0-1.8,0
					c-1.6,0-4,0-7,0c-6.1,0-14.9,0-25.7,0.1c-10.9,0-23.8,0-38.2,0.1c-3.6,0-7.3,0-11,0c-1.9,0-3.8,0-5.7,0c-0.9,0-2,0-2.9-0.3
					c-1-0.3-1.9-0.7-2.7-1.4c-1.6-1.3-2.5-3.3-2.5-5.4c0-2,0-4,0-6c0-1-0.1-2,0.2-3.1c0.2-1,0.7-2,1.3-2.8c1.3-1.7,3.4-2.7,5.6-2.7
					c33.2,0,63.2,0.1,84.9,0.1c1.4,0,2.7,0,4,0c0.6,0,1.3,0,1.9,0c0.6,0,1.3,0,1.9,0.2c2.5,0.6,4.3,2.5,5,4.5c0.4,1,0.4,2.1,0.4,3.1
					c0,1,0,2,0,2.9c0,0.9,0,1.8,0,2.7c0,0.8,0,1.7-0.1,2.4c-0.3,1.5-1.1,2.7-1.9,3.6c-0.8,0.8-1.7,1.3-2.5,1.6
					c-0.8,0.3-1.4,0.3-1.8,0.4C350.2,142.3,350,142.3,350,142.3z"/>
			</g>
		</g>
	</g>
	<g>
		<g>
			<path class="st0" d="M462.3,142.3h-88.7c-3.8,0-6.8-3.1-6.8-6.8v-7.5c0-3.8,3.1-6.8,6.8-6.8h88.7c3.8,0,6.8,3.1,6.8,6.8v7.5
				C469.1,139.2,466.1,142.3,462.3,142.3z"/>
		</g>
		<g>
			<g>
				<path class="st9" d="M462.3,142.3c0-0.1,0.9,0.1,2.3-0.5c0.7-0.3,1.6-0.7,2.4-1.5c0.8-0.8,1.5-1.9,1.8-3.4
					c0.2-0.7,0.2-1.5,0.1-2.3c0-0.8,0-1.7,0-2.6c0-0.9,0-1.9,0-2.8c0-1,0-2-0.3-3c-0.5-2-2.2-3.9-4.4-4.6c-1.1-0.4-2.3-0.3-3.6-0.3
					c-1.3,0-2.6,0-3.9,0c-21.3,0-50.7,0-83.2,0.1c-2,0-3.9,0.9-5.1,2.4c-0.6,0.8-1,1.6-1.3,2.6c-0.2,0.9-0.2,1.9-0.2,2.9
					c0,2,0,3.9,0,5.9c-0.1,1.9,0.7,3.8,2,5c1.3,1.3,3.2,1.9,5,1.9c1.9,0,3.7,0,5.6,0c3.7,0,7.3,0,10.8,0c14.1,0,26.8,0,37.4,0.1
					c10.6,0,19.2,0.1,25.2,0.1c3,0,5.3,0,6.9,0c0.8,0,1.4,0,1.8,0C462.1,142.3,462.3,142.3,462.3,142.3s-0.2,0-0.6,0
					c-0.4,0-1,0-1.8,0c-1.6,0-3.9,0-6.9,0c-6,0-14.6,0-25.2,0.1c-10.7,0-23.3,0-37.4,0.1c-3.5,0-7.1,0-10.8,0c-1.8,0-3.7,0-5.6,0
					c-1.9,0.1-3.9-0.6-5.4-2c-1.5-1.4-2.2-3.4-2.2-5.4c0-1.9,0-3.9,0-5.9c0-1-0.1-2,0.2-3c0.2-1,0.7-2,1.4-2.8
					c1.3-1.6,3.4-2.6,5.5-2.6c32.5,0,61.9,0.1,83.2,0.1c1.3,0,2.6,0,3.9,0c1.2,0,2.5-0.1,3.7,0.3c2.4,0.8,4.1,2.7,4.6,4.8
					c0.3,1,0.3,2.1,0.3,3.1c0,1,0,1.9,0,2.8c0,0.9,0,1.8,0,2.6c0,0.8,0,1.6-0.2,2.4c-0.3,1.5-1.1,2.6-1.9,3.4
					c-0.8,0.8-1.7,1.3-2.5,1.5c-0.7,0.3-1.3,0.3-1.7,0.4C462.5,142.3,462.3,142.3,462.3,142.3z"/>
			</g>
		</g>
	</g>
	<g>
		<path class="st9" d="M267.6,129.1v5.2h-0.5v-0.7c-0.3,0.5-0.8,0.8-1.4,0.8c-1,0-1.8-0.8-1.8-1.9s0.8-1.9,1.8-1.9
			c0.6,0,1.1,0.3,1.4,0.7v-2.2H267.6z M267.1,132.4c0-0.9-0.6-1.4-1.4-1.4c-0.8,0-1.4,0.6-1.4,1.4c0,0.9,0.6,1.4,1.4,1.4
			C266.5,133.9,267.1,133.3,267.1,132.4z"/>
		<path class="st9" d="M272.3,129.1v5.2h-0.5v-0.7c-0.3,0.5-0.8,0.8-1.4,0.8c-1,0-1.8-0.8-1.8-1.9s0.8-1.9,1.8-1.9
			c0.6,0,1.1,0.3,1.4,0.7v-2.2H272.3z M271.9,132.4c0-0.9-0.6-1.4-1.4-1.4c-0.8,0-1.4,0.6-1.4,1.4c0,0.9,0.6,1.4,1.4,1.4
			C271.3,133.9,271.9,133.3,271.9,132.4z"/>
		<path class="st9" d="M275.2,128.4h0.5l-2.3,6.6h-0.5L275.2,128.4z"/>
		<path class="st9" d="M281.7,132.2v2.1h-0.5v-2.1c0-0.8-0.4-1.2-1.1-1.2c-0.8,0-1.2,0.5-1.2,1.3v1.9h-0.5v-2.1
			c0-0.8-0.4-1.2-1.1-1.2c-0.7,0-1.2,0.5-1.2,1.3v1.9h-0.5v-3.7h0.5v0.7c0.3-0.4,0.7-0.7,1.3-0.7c0.6,0,1.1,0.3,1.3,0.8
			c0.3-0.5,0.8-0.8,1.5-0.8C281.1,130.6,281.7,131.1,281.7,132.2z"/>
		<path class="st9" d="M289.1,132.2v2.1h-0.5v-2.1c0-0.8-0.4-1.2-1.1-1.2c-0.8,0-1.2,0.5-1.2,1.3v1.9h-0.5v-2.1
			c0-0.8-0.4-1.2-1.1-1.2c-0.7,0-1.2,0.5-1.2,1.3v1.9H283v-3.7h0.5v0.7c0.3-0.4,0.7-0.7,1.3-0.7c0.6,0,1.1,0.3,1.3,0.8
			c0.3-0.5,0.8-0.8,1.5-0.8C288.5,130.6,289.1,131.1,289.1,132.2z"/>
		<path class="st9" d="M291.9,128.4h0.5L290,135h-0.5L291.9,128.4z"/>
		<path class="st9" d="M295.1,132v2.3h-0.5v-0.6c-0.2,0.4-0.7,0.6-1.3,0.6c-0.8,0-1.3-0.4-1.3-1.1c0-0.6,0.4-1,1.4-1h1.2V132
			c0-0.6-0.4-1-1-1c-0.5,0-0.9,0.2-1.2,0.4l-0.2-0.4c0.4-0.3,0.9-0.5,1.5-0.5C294.5,130.6,295.1,131.1,295.1,132z M294.6,133.2v-0.6
			h-1.2c-0.7,0-0.9,0.3-0.9,0.7c0,0.4,0.3,0.7,0.9,0.7C294,133.9,294.4,133.7,294.6,133.2z"/>
		<path class="st9" d="M299.2,132v2.3h-0.5v-0.6c-0.2,0.4-0.7,0.6-1.3,0.6c-0.8,0-1.3-0.4-1.3-1.1c0-0.6,0.4-1,1.4-1h1.2V132
			c0-0.6-0.4-1-1-1c-0.5,0-0.9,0.2-1.2,0.4l-0.2-0.4c0.4-0.3,0.9-0.5,1.5-0.5C298.6,130.6,299.2,131.1,299.2,132z M298.7,133.2v-0.6
			h-1.2c-0.7,0-0.9,0.3-0.9,0.7c0,0.4,0.3,0.7,0.9,0.7C298.1,133.9,298.5,133.7,298.7,133.2z"/>
		<path class="st9" d="M303.3,132v2.3h-0.5v-0.6c-0.2,0.4-0.7,0.6-1.3,0.6c-0.8,0-1.3-0.4-1.3-1.1c0-0.6,0.4-1,1.4-1h1.2V132
			c0-0.6-0.4-1-1-1c-0.5,0-0.9,0.2-1.2,0.4l-0.2-0.4c0.4-0.3,0.9-0.5,1.5-0.5C302.8,130.6,303.3,131.1,303.3,132z M302.8,133.2v-0.6
			h-1.2c-0.7,0-0.9,0.3-0.9,0.7c0,0.4,0.3,0.7,0.9,0.7C302.2,133.9,302.6,133.7,302.8,133.2z"/>
		<path class="st9" d="M307.4,132v2.3H307v-0.6c-0.2,0.4-0.7,0.6-1.3,0.6c-0.8,0-1.3-0.4-1.3-1.1c0-0.6,0.4-1,1.4-1h1.2V132
			c0-0.6-0.4-1-1-1c-0.5,0-0.9,0.2-1.2,0.4l-0.2-0.4c0.4-0.3,0.9-0.5,1.5-0.5C306.9,130.6,307.4,131.1,307.4,132z M306.9,133.2v-0.6
			h-1.2c-0.7,0-0.9,0.3-0.9,0.7c0,0.4,0.3,0.7,0.9,0.7C306.3,133.9,306.7,133.7,306.9,133.2z"/>
	</g>
	<g>
		<path class="st9" d="M378.4,132.2h1.8v0.4h-1.8V132.2z"/>
		<path class="st9" d="M381.1,132.2h1.8v0.4h-1.8V132.2z"/>
		<path class="st9" d="M383.7,131c0-0.2,0.2-0.4,0.4-0.4c0.2,0,0.4,0.2,0.4,0.4c0,0.2-0.2,0.4-0.4,0.4
			C383.9,131.3,383.7,131.2,383.7,131z M383.7,133.9c0-0.2,0.2-0.4,0.4-0.4c0.2,0,0.4,0.2,0.4,0.4c0,0.2-0.2,0.4-0.4,0.4
			C383.9,134.3,383.7,134.2,383.7,133.9z"/>
		<path class="st9" d="M385.3,132.2h1.8v0.4h-1.8V132.2z"/>
		<path class="st9" d="M388,132.2h1.8v0.4H388V132.2z"/>
	</g>
	<g>
		<g>
			<path d="M297.5,206.1c0,0.1-31.6,0.3-70.6,0.3c-39,0-70.6-0.1-70.6-0.3c0-0.1,31.6-0.3,70.6-0.3
				C265.9,205.8,297.5,206,297.5,206.1z"/>
		</g>
	</g>
	<g>
		<g>
			<path d="M453.4,217.3c0,0.1-66.5,0.3-148.5,0.3c-82,0-148.5-0.1-148.5-0.3s66.5-0.3,148.5-0.3C386.9,217,453.4,217.1,453.4,217.3
				z"/>
		</g>
	</g>
	<g>
		<g>
			<path d="M453.4,227.4c0,0.1-66.5,0.3-148.5,0.3c-82,0-148.5-0.1-148.5-0.3s66.5-0.3,148.5-0.3
				C386.9,227.2,453.4,227.3,453.4,227.4z"/>
		</g>
	</g>
	<g>
		<path class="st8" d="M387.2,294.5h-40.9c-6.6,0-11.9-5.3-11.9-11.9c0-6.6,5.3-11.9,11.9-11.9h40.9c6.6,0,11.9,5.3,11.9,11.9
			C399.1,289.1,393.8,294.5,387.2,294.5z M346.3,271.6c-6,0-10.9,4.9-10.9,10.9c0,6,4.9,10.9,10.9,10.9h40.9c6,0,10.9-4.9,10.9-10.9
			c0-6-4.9-10.9-10.9-10.9H346.3z"/>
	</g>
	<g>
		<path class="st8" d="M457.7,294h-40.9c-6.3,0-11.4-5.1-11.4-11.4l0,0c0-6.3,5.1-11.4,11.4-11.4h40.9c6.3,0,11.4,5.1,11.4,11.4l0,0
			C469.1,288.9,464,294,457.7,294z"/>
	</g>
	<g>
		<rect x="120.7" y="3.1" class="st1" width="378.9" height="24.7"/>
	</g>
	<g>
		<path class="st3" d="M140.6,15.4c0,2.5-2,4.5-4.5,4.5c-2.5,0-4.5-2-4.5-4.5c0-2.5,2-4.5,4.5-4.5C138.6,11,140.6,13,140.6,15.4z"/>
	</g>
	<g>
		<path class="st3" d="M155,15.4c0,2.5-2,4.5-4.5,4.5c-2.5,0-4.5-2-4.5-4.5c0-2.5,2-4.5,4.5-4.5C153,11,155,13,155,15.4z"/>
	</g>
	<g>
		<path class="st3" d="M169.5,15.4c0,2.5-2,4.5-4.5,4.5c-2.5,0-4.5-2-4.5-4.5c0-2.5,2-4.5,4.5-4.5C167.5,11,169.5,13,169.5,15.4z"/>
	</g>
	<g>
		<g>
			<path class="st1" d="M498.1,70.1c0,0.1-84.2,0.3-187.9,0.3c-103.8,0-188-0.1-188-0.3c0-0.1,84.1-0.3,188-0.3
				C414,69.8,498.1,69.9,498.1,70.1z"/>
		</g>
	</g>
	<g>
		<circle class="st9" cx="160.2" cy="168.2" r="2"/>
	</g>
	<g>
		<circle class="st9" cx="166.9" cy="168.2" r="2"/>
	</g>
	<g>
		<path class="st9" d="M175.7,168.2c0,1.1-0.9,2-2,2c-1.1,0-2-0.9-2-2c0-1.1,0.9-2,2-2C174.8,166.2,175.7,167.1,175.7,168.2z"/>
	</g>
	<g>
		<g>
			<path class="st9" d="M499.6,308.7c0-1.8-0.1-121.4-0.2-305.7l0.2,0.2c-108.3,0-238.7,0-378.9,0h0l0.3-0.3
				c0,110.5,0,214.8,0,305.7l-0.2-0.2C346,308.6,497.6,308.7,499.6,308.7c-2,0-153.6,0.1-378.9,0.2l-0.2,0v-0.2
				c0-90.9,0-195.2,0-305.7V2.8h0.3h0c140.2,0,270.6,0,378.9,0l0.2,0l0,0.2C499.7,187.4,499.6,306.9,499.6,308.7z"/>
		</g>
	</g>
	<g>
		<path class="st8" d="M351,286.4c-0.4,0.2-1.2,0.4-2.1,0.4c-2.3,0-4-1.4-4-4.1c0-2.5,1.7-4.2,4.2-4.2c1,0,1.6,0.2,1.9,0.4l-0.3,0.9
			c-0.4-0.2-1-0.3-1.6-0.3c-1.9,0-3.2,1.2-3.2,3.3c0,2,1.1,3.2,3.1,3.2c0.6,0,1.3-0.1,1.7-0.3L351,286.4z"/>
		<path class="st8" d="M355.4,286.6l-0.1-0.7h0c-0.3,0.5-0.9,0.9-1.8,0.9c-1.2,0-1.8-0.8-1.8-1.7c0-1.4,1.2-2.2,3.5-2.2v-0.1
			c0-0.5-0.1-1.3-1.3-1.3c-0.5,0-1.1,0.2-1.5,0.4l-0.2-0.7c0.5-0.3,1.2-0.5,1.9-0.5c1.8,0,2.2,1.2,2.2,2.4v2.2c0,0.5,0,1,0.1,1.4
			H355.4z M355.2,283.7c-1.2,0-2.5,0.2-2.5,1.3c0,0.7,0.5,1,1,1c0.8,0,1.2-0.5,1.4-1c0-0.1,0.1-0.2,0.1-0.3V283.7z"/>
		<path class="st8" d="M357.9,282.4c0-0.6,0-1.1,0-1.6h0.9l0.1,1h0c0.3-0.6,1-1.1,1.9-1.1c0.8,0,2.1,0.5,2.1,2.5v3.5h-1.1v-3.3
			c0-0.9-0.3-1.7-1.3-1.7c-0.7,0-1.2,0.5-1.4,1.1c0,0.1-0.1,0.3-0.1,0.5v3.5h-1.1V282.4z"/>
		<path class="st8" d="M368.7,286.4c-0.3,0.1-0.9,0.3-1.7,0.3c-1.8,0-2.9-1.2-2.9-3c0-1.8,1.2-3.1,3.1-3.1c0.6,0,1.2,0.2,1.5,0.3
			l-0.2,0.8c-0.3-0.1-0.6-0.3-1.2-0.3c-1.3,0-2.1,1-2.1,2.2c0,1.3,0.9,2.2,2,2.2c0.6,0,1-0.2,1.3-0.3L368.7,286.4z"/>
		<path class="st8" d="M370.5,283.9c0,1.4,0.9,2,2,2c0.8,0,1.2-0.1,1.6-0.3l0.2,0.8c-0.4,0.2-1,0.4-1.9,0.4c-1.8,0-2.9-1.2-2.9-2.9
			s1-3.1,2.7-3.1c1.9,0,2.4,1.7,2.4,2.7c0,0.2,0,0.4,0,0.5H370.5z M373.6,283.2c0-0.7-0.3-1.7-1.5-1.7c-1.1,0-1.5,1-1.6,1.7H373.6z"
			/>
		<path class="st8" d="M375.9,278.1h1.1v8.5h-1.1V278.1z"/>
		<path class="st8" d="M382,286.6l-0.1-0.7h0c-0.3,0.5-0.9,0.9-1.8,0.9c-1.2,0-1.8-0.8-1.8-1.7c0-1.4,1.2-2.2,3.5-2.2v-0.1
			c0-0.5-0.1-1.3-1.3-1.3c-0.5,0-1.1,0.2-1.5,0.4l-0.2-0.7c0.5-0.3,1.2-0.5,1.9-0.5c1.8,0,2.2,1.2,2.2,2.4v2.2c0,0.5,0,1,0.1,1.4
			H382z M381.8,283.7c-1.2,0-2.5,0.2-2.5,1.3c0,0.7,0.5,1,1,1c0.8,0,1.2-0.5,1.4-1c0-0.1,0.1-0.2,0.1-0.3V283.7z"/>
		<path class="st8" d="M384.5,282.6c0-0.7,0-1.3,0-1.8h0.9l0,1.1h0c0.3-0.8,0.9-1.3,1.6-1.3c0.1,0,0.2,0,0.3,0v1c-0.1,0-0.2,0-0.4,0
			c-0.7,0-1.3,0.6-1.4,1.4c0,0.1,0,0.3,0,0.5v3.1h-1V282.6z"/>
	</g>
	<g>
		<path class="st3" d="M424.9,286.2c-0.5,0.2-1.4,0.4-2.5,0.4c-1.2,0-2.2-0.3-3-1.1c-0.7-0.7-1.1-1.8-1.1-3c0-2.4,1.7-4.2,4.4-4.2
			c0.9,0,1.7,0.2,2,0.4l-0.3,0.9c-0.4-0.2-1-0.3-1.8-0.3c-2,0-3.2,1.2-3.2,3.2c0,2.1,1.2,3.3,3.1,3.3c0.7,0,1.2-0.1,1.4-0.2v-2.4
			h-1.6v-0.8h2.7V286.2z"/>
		<path class="st3" d="M431.3,285c0,0.6,0,1.1,0,1.6h-0.9l-0.1-0.9h0c-0.3,0.5-0.9,1.1-1.9,1.1c-0.9,0-2-0.5-2-2.5v-3.4h1.1v3.2
			c0,1.1,0.3,1.8,1.3,1.8c0.7,0,1.2-0.5,1.4-1c0.1-0.2,0.1-0.3,0.1-0.5v-3.6h1.1V285z"/>
		<path class="st3" d="M436.3,286.6l-0.1-0.7h0c-0.3,0.5-0.9,0.9-1.8,0.9c-1.2,0-1.8-0.8-1.8-1.7c0-1.4,1.2-2.2,3.5-2.2v-0.1
			c0-0.5-0.1-1.3-1.3-1.3c-0.5,0-1.1,0.2-1.5,0.4l-0.2-0.7c0.5-0.3,1.2-0.5,1.9-0.5c1.8,0,2.2,1.2,2.2,2.4v2.2c0,0.5,0,1,0.1,1.4
			H436.3z M436.2,283.6c-1.2,0-2.5,0.2-2.5,1.3c0,0.7,0.5,1,1,1c0.8,0,1.2-0.5,1.4-1c0-0.1,0.1-0.2,0.1-0.3V283.6z"/>
		<path class="st3" d="M438.9,282.6c0-0.7,0-1.3,0-1.8h0.9l0,1.1h0c0.3-0.8,0.9-1.3,1.6-1.3c0.1,0,0.2,0,0.3,0v1c-0.1,0-0.2,0-0.4,0
			c-0.7,0-1.3,0.6-1.4,1.4c0,0.1,0,0.3,0,0.5v3.1h-1V282.6z"/>
		<path class="st3" d="M447.7,278.1v7c0,0.5,0,1.1,0,1.5h-0.9l0-1h0c-0.3,0.6-1,1.1-2,1.1c-1.4,0-2.5-1.2-2.5-3
			c0-1.9,1.2-3.1,2.6-3.1c0.9,0,1.5,0.4,1.8,0.9h0v-3.5H447.7z M446.6,283.1c0-0.1,0-0.3,0-0.4c-0.2-0.7-0.7-1.2-1.5-1.2
			c-1.1,0-1.7,1-1.7,2.2c0,1.2,0.6,2.1,1.7,2.1c0.7,0,1.4-0.5,1.5-1.3c0-0.1,0-0.3,0-0.5V283.1z"/>
		<path class="st3" d="M452.7,286.6l-0.1-0.7h0c-0.3,0.5-0.9,0.9-1.8,0.9c-1.2,0-1.8-0.8-1.8-1.7c0-1.4,1.2-2.2,3.5-2.2v-0.1
			c0-0.5-0.1-1.3-1.3-1.3c-0.5,0-1.1,0.2-1.5,0.4l-0.2-0.7c0.5-0.3,1.2-0.5,1.9-0.5c1.8,0,2.2,1.2,2.2,2.4v2.2c0,0.5,0,1,0.1,1.4
			H452.7z M452.5,283.6c-1.2,0-2.5,0.2-2.5,1.3c0,0.7,0.5,1,1,1c0.8,0,1.2-0.5,1.4-1c0-0.1,0.1-0.2,0.1-0.3V283.6z"/>
		<path class="st3" d="M455.2,282.6c0-0.7,0-1.3,0-1.8h0.9l0,1.1h0c0.3-0.8,0.9-1.3,1.6-1.3c0.1,0,0.2,0,0.3,0v1c-0.1,0-0.2,0-0.4,0
			c-0.7,0-1.3,0.6-1.4,1.4c0,0.1,0,0.3,0,0.5v3.1h-1V282.6z"/>
	</g>
	<g>
		<path class="st8" d="M177.2,56.2V42h2l4.5,7.2c1,1.7,1.9,3.1,2.5,4.6l0,0c-0.2-1.9-0.2-3.6-0.2-5.8V42h1.7v14.2H186l-4.5-7.2
			c-1-1.6-1.9-3.2-2.6-4.7l-0.1,0c0.1,1.8,0.1,3.5,0.1,5.8v6H177.2z"/>
		<path class="st8" d="M199.5,53.4c0,1,0,2,0.1,2.8H198l-0.1-1.7h0c-0.5,0.8-1.6,1.9-3.4,1.9c-1.6,0-3.5-0.9-3.5-4.5V46h1.8v5.6
			c0,1.9,0.6,3.2,2.3,3.2c1.2,0,2.1-0.9,2.4-1.7c0.1-0.3,0.2-0.6,0.2-0.9V46h1.8V53.4z"/>
		<path class="st8" d="M203.6,51.4c0,2.5,1.6,3.5,3.5,3.5c1.3,0,2.1-0.2,2.8-0.5l0.3,1.3c-0.7,0.3-1.8,0.6-3.4,0.6
			c-3.1,0-5-2.1-5-5.1s1.8-5.5,4.8-5.5c3.3,0,4.2,2.9,4.2,4.8c0,0.4,0,0.7-0.1,0.9H203.6z M209,50.1c0-1.2-0.5-3-2.6-3
			c-1.9,0-2.7,1.7-2.8,3H209z"/>
		<path class="st8" d="M213.8,46l2,5.7c0.3,0.9,0.6,1.8,0.8,2.6h0.1c0.2-0.8,0.5-1.7,0.9-2.6l2-5.7h1.9l-4,10.2h-1.8L211.8,46H213.8
			z"/>
		<path class="st8" d="M232.2,51c0,3.8-2.6,5.4-5.1,5.4c-2.8,0-4.9-2-4.9-5.2c0-3.4,2.2-5.4,5-5.4C230.2,45.8,232.2,47.9,232.2,51z
			 M224.1,51.1c0,2.2,1.3,3.9,3.1,3.9c1.8,0,3.1-1.7,3.1-3.9c0-1.7-0.9-3.9-3-3.9S224.1,49.2,224.1,51.1z"/>
	</g>
</g>
<g id="Plant">
	<g>
		<g>
			<g>
				<g>
					<g>
						<path class="st10" d="M35.8,317.1c-5.1-3.2-11-5.2-17-5.9c-2.8-0.3-5.8-0.2-8,1.5c-0.5,0.4-0.9,0.9-0.8,1.5
							c0.1,0.4,0.4,0.7,0.8,1C17.6,320.4,28.1,321.1,35.8,317.1"/>
					</g>
				</g>
			</g>
			<g>
				<g>
					<g>
						<path class="st10" d="M35.3,316.6c-3.9-3-7.7-6-11-9.7c-3.3-3.6-5.9-8-6.9-12.7c-0.3-1.5-0.4-3.1,0.5-4.3
							C26.8,296.7,33.6,305.6,35.3,316.6"/>
					</g>
				</g>
			</g>
			<g>
				<g>
					<g>
						<path class="st10" d="M35.7,317c-0.7-4.8-0.9-9.7,0.2-14.4c1.1-4.7,3.7-9.2,7.7-11.9c1.5,3.5,0.9,7.6-0.2,11.3
							c-1.6,5.7-4.2,11.2-7.6,16"/>
					</g>
				</g>
			</g>
			<g>
				<g>
					<g>
						<path class="st10" d="M46.1,334.8C41.9,324.5,43.5,312,50,303C53,313.6,51.9,325.5,46.1,334.8"/>
					</g>
				</g>
			</g>
			<g>
				<g>
					<g>
						<path class="st10" d="M57.1,347.6c-2.4-7.8-2.6-16.3-0.4-24.2c0.9-3.1,2.3-6.4,5.2-7.9c0.2-0.1,0.5-0.2,0.8-0.1
							c0.2,0.1,0.4,0.3,0.5,0.6c1,2.1,1.3,4.6,1.2,6.9c-0.1,2.4-0.6,4.7-1.1,7c-0.9,4.3-1.4,8.9-3.7,12.6c-0.6,0.9-1.1,1.8-1.5,2.8
							c-0.4,0.9-0.4,1.3-0.9,2"/>
					</g>
				</g>
			</g>
			<g>
				<g>
					<g>
						<path class="st10" d="M87.1,352.1c-2.2-8.5,0.1-18.7,5.5-25.7c0.4-0.5,0.9-1.1,1.6-1c1,0.1,1.2,1.4,1.2,2.4
							C95,336.4,92.1,345,87.1,352.1"/>
					</g>
				</g>
			</g>
			<g>
				<g>
					<g>
						<path class="st10" d="M87.7,320.9c1.6-5.3,3.1-10.7,3.6-16.3c0.4-5.5-0.4-11.3-3.2-16.1c-5.4,10.4-5.9,22.6-0.5,32.9"/>
					</g>
				</g>
			</g>
			<g>
				<g>
					<g>
						<path class="st10" d="M105.8,311.8c6.3-11.4,19.1-20.6,32.1-21.8C132.9,302.4,119.3,312.1,105.8,311.8"/>
					</g>
				</g>
			</g>
			<g>
				<g>
					<g>
						<path class="st10" d="M101.9,314c9.4,1.4,17.4,7.4,26.1,11.1c1.9,0.8,3.9,1.4,5.9,1.1c2-0.3,4-1.6,4.4-3.6
							c0.4-1.6-0.4-3.4-1.6-4.6c-1.2-1.2-2.7-2-4.3-2.6c-9.5-4-19.8-4.1-29.8-1.7"/>
					</g>
				</g>
			</g>
			<g>
				<g>
					<g>
						<path class="st10" d="M96.4,320.6c2.1,0.6,2.8,1.7,4.5,3.1c5.7,4.9,12.5,8.4,19.8,10.2c0.8,0.2,1.8,0.3,2.1-0.4
							c0.3-0.6-0.1-1.3-0.5-1.9c-3-3.8-7.4-6.4-12-8.1c-4.6-1.7-8.5-3.8-14-3.3"/>
					</g>
				</g>
			</g>
			<g>
				<g>
					<g>
						<path class="st10" d="M90.3,280.9c7.6,7.1,18.4,10.8,28.8,9.8c0.5,0,1-0.1,1.3-0.5c0.7-0.8-0.1-2-1-2.7
							C110.9,280.9,100.7,278.2,90.3,280.9"/>
					</g>
				</g>
			</g>
			<g>
				<g>
					<g>
						<path class="st10" d="M97.6,278.2c10.1-7.6,23.9-9.8,35.9-5.9c-4.5,4.5-10.8,6.8-17.1,7.5C110.1,280.5,103.7,279.8,97.6,278.2
							"/>
					</g>
				</g>
			</g>
			<g>
				<g>
					<g>
						<path class="st10" d="M94.7,260c-0.8-8.4-0.3-15.1-0.9-23.6c0-0.7-0.2-1.5-0.8-1.7c-0.9-0.3-1.6,0.7-1.9,1.6
							c-2.5,7.8-1.1,16.8,3.6,23.5"/>
					</g>
				</g>
			</g>
			<g>
				<g>
					<g>
						<path class="st10" d="M94.1,260.9c5.7-3.5,10-8.2,14-13.6c2.8-3.8,5.1-8.3,4.5-12.9c-3.9-0.1-7.6,2.1-10.1,5
							c-2.5,2.9-4,6.6-5.1,10.3C96.2,253.4,95.4,257.2,94.1,260.9"/>
					</g>
				</g>
			</g>
			<g>
				<g>
					<g>
						<path class="st10" d="M107.8,257.1c12.6-4.6,24.3-11.5,34.4-20.3c-4.1-1.7-8.8-0.7-12.9,1c-9.4,3.8-17.1,10.2-21.7,19.2"/>
					</g>
				</g>
			</g>
			<g>
				<g>
					<g>
						<path class="st10" d="M97.9,265.5c6.4,0.7,12.8,1.1,19.1,0.1c6.2-1,12-3.5,17.8-5.9c0.5-0.2,1-0.4,1.2-0.9
							c0.2-0.5,0-1.1-0.4-1.5c-0.4-0.4-1-0.6-1.5-0.7c-6.3-1.8-13.1-0.9-19.3,1.2C108.7,259.8,103.6,262.2,97.9,265.5"/>
					</g>
				</g>
			</g>
			<g>
				<g>
					<g>
						<path class="st10" d="M61.7,281.2c-4.3-8.7-4.1-19-0.3-28c2.6,4,3,9.1,2.5,13.9c-0.5,4.8-1.9,9.7-2,14.5"/>
					</g>
				</g>
			</g>
			<g>
				<g>
					<g>
						<path class="st10" d="M44.4,272.4c-10.8-0.2-21.6,4.4-29,12.3c5.4,0.8,11-0.5,15.9-2.9c4.9-2.4,9.3-5.8,13.6-9.1"/>
					</g>
				</g>
			</g>
			<g>
				<g>
					<g>
						<path class="st10" d="M32.7,268.5c-5.3-0.4-10.4-1.1-15.5,0.5c-5.1,1.6-9.7,5.1-11.8,10c4.9,0.6,10-0.7,14.5-2.7
							C24.5,274.2,28.6,271.4,32.7,268.5"/>
					</g>
				</g>
			</g>
			<g>
				<g>
					<g>
						<path class="st10" d="M50,268.7c-4.8-3.1-9.6-6.3-15.2-7.6c-5.5-1.3-12-0.3-15.8,3.8c4.5,2.6,9.9,2.9,15.1,2.9
							c5.2,0,11.6-0.1,16.5,1.7"/>
					</g>
				</g>
			</g>
			<g>
				<g>
					<g>
						<path class="st10" d="M50,269c-8.1-8-11.2-22.3-8-33.3C48.4,245.4,51.3,257.4,50,269"/>
					</g>
				</g>
			</g>
			<g>
				<g>
					<g>
						<path class="st10" d="M72.4,246.3c1.5-3.6,2.6-7.3,4-10.9c1.4-3.6,3.1-7.2,5.7-10.1c2.6-2.9,6.2-5,10.1-5.2
							c-2.4,11-9.7,20.8-19.6,26.3"/>
					</g>
				</g>
			</g>
			<g>
				<g>
					<g>
						<path class="st10" d="M68.3,251.1c-2.5-3.5-5.5-8.2-8.9-10.9c-3.4-2.6-7.9-4.2-12.1-3.2C51.5,244.7,59.6,250,68.3,251.1"/>
					</g>
				</g>
			</g>
			<g>
				<g>
					<g>
						<path class="st10" d="M69.1,246.6c-1.7-4.2-3.3-8.5-4-13c-0.7-4.5-0.3-9.3,2-13.2c4.5,8.4,5.9,17.5,2.2,26.3"/>
					</g>
				</g>
			</g>
			<g>
				<g>
					<g>
						<path class="st10" d="M72.4,220.4c2.5-8.4,10.2-14.5,18.5-17.4c1-0.4,2.1-0.7,3.2-0.5c1.1,0.2,2.2,0.9,2.4,2
							c0.3,1.4-0.9,2.7-2,3.6C88.1,213.7,80.5,217.9,72.4,220.4"/>
					</g>
				</g>
			</g>
			<g>
				<g>
					<g>
						<path class="st10" d="M72.5,213.6c0.3-5.4,0.7-10.9,2.4-16c1.8-5.1,5.1-9.9,10.1-12.2c0.8,5.5-1.6,10.9-4.5,15.6
							c-2.9,4.7-6.4,9.1-8.1,14.4"/>
					</g>
				</g>
			</g>
			<g>
				<g>
					<g>
						<path class="st10" d="M72.4,217.3c-2.1-6.1-2.3-13.9-6-19.2c-2.6-3.7-6.6-6.2-8.8-10.2c-1.5,3.7-1,7.9,0.5,11.6
							c1.5,3.6,4.1,6.8,6.8,9.7C67.5,212,69.9,214.2,72.4,217.3"/>
					</g>
				</g>
			</g>
			<g>
				<g>
					<g>
						<g>
							<path class="st9" d="M72.4,397c-0.2,0-0.3-40.7-0.3-90.9c0-50.2,0.1-90.9,0.3-90.9s0.3,40.7,0.3,90.9
								C72.7,356.3,72.6,397,72.4,397z"/>
						</g>
					</g>
				</g>
			</g>
			<g>
				<g>
					<g>
						<g>
							<path class="st9" d="M108,275c0,0-0.5,0.2-1.5,0.6c-1.1,0.4-2.5,0.8-4.2,1.4c-3.6,1.2-8.4,3-13.7,5.1
								c-5.2,2.2-10.2,4.1-13,6.5c-1.4,1.2-2.2,2.5-2.6,3.5c-0.4,1-0.5,1.5-0.5,1.5c0,0,0-0.1,0-0.4c0-0.3,0.1-0.7,0.3-1.2
								c0.3-1,1.1-2.4,2.5-3.7c1.4-1.3,3.4-2.4,5.6-3.5c2.3-1.1,4.8-2.2,7.4-3.2c5.3-2.2,10.2-3.9,13.8-5c1.8-0.6,3.3-1,4.3-1.2
								C107.4,275.1,108,275,108,275z"/>
						</g>
					</g>
				</g>
			</g>
			<g>
				<g>
					<g>
						<g>
							<path class="st9" d="M119.6,246.4c0,0-0.1,0.2-0.4,0.5c-0.3,0.3-0.8,0.7-1.3,1.2c-1.2,1.1-2.9,2.6-4.9,4.4
								c-4.2,3.7-9.9,8.8-16.2,14.5c-6.3,5.6-11.8,11-15.6,15.1c-1.9,2-3.4,3.7-4.4,4.9c-0.5,0.5-0.9,1-1.2,1.3
								c-0.3,0.3-0.4,0.5-0.4,0.4c0,0,0.1-0.2,0.3-0.5c0.2-0.3,0.6-0.8,1.1-1.4c1-1.2,2.4-2.9,4.3-5c3.7-4.1,9.2-9.6,15.5-15.2
								c6.4-5.6,12.1-10.7,16.3-14.3c2.1-1.8,3.8-3.2,5-4.3c0.6-0.5,1-0.8,1.4-1.1C119.5,246.5,119.6,246.4,119.6,246.4z"/>
						</g>
					</g>
				</g>
			</g>
			<g>
				<g>
					<g>
						<g>
							<path class="st9" d="M90,272.7c-0.2-0.1,1.2-3.1,2.5-7c1.3-3.9,2-7.1,2.1-7.1c0.2,0-0.2,3.4-1.6,7.3c-0.7,2-1.4,3.7-2,4.9
								C90.5,272,90,272.7,90,272.7z"/>
						</g>
					</g>
				</g>
			</g>
			<g>
				<g>
					<g>
						<g>
							<path class="st9" d="M72.5,297.3c0,0-0.4-0.4-1-1.1c-0.7-0.8-1.5-1.9-2.5-3.2c-2.1-2.7-5-6.5-8.3-10.6
								c-3.3-4.1-6.2-7.8-8.4-10.4c-1-1.3-1.9-2.3-2.6-3.2c-0.6-0.8-0.9-1.2-0.9-1.2c0,0,0.4,0.4,1.1,1.1c0.7,0.7,1.6,1.7,2.7,3
								c2.3,2.6,5.3,6.2,8.6,10.3c3.3,4.1,6.1,7.9,8.1,10.7c1,1.4,1.8,2.5,2.4,3.3C72.2,296.9,72.5,297.3,72.5,297.3z"/>
						</g>
					</g>
				</g>
			</g>
			<g>
				<g>
					<g>
						<g>
							<path class="st9" d="M64.7,287.3c-0.1,0.1-2.2-2.4-3.3-6.1c-0.8-2.6-0.8-5.1-0.7-6.2l0.3,0c-0.1,0.5-0.2,0.7-0.2,0.7
								c0,0,0-0.3,0-0.8l0.3,0c0.1,1.1,0.3,3.4,1,6C63,284.7,64.8,287.2,64.7,287.3z"/>
						</g>
					</g>
				</g>
			</g>
			<g>
				<g>
					<g>
						<g>
							<path class="st9" d="M54.6,274.6c-0.1,0.1-0.7-0.8-2.3-1.3c-1.5-0.6-3.8-0.7-6.3-0.5c-2.5,0.2-4.8,0.6-6.4,1
								c-1.6,0.4-2.6,0.7-2.6,0.6c0-0.1,0.9-0.5,2.5-1c1.6-0.5,3.9-1,6.4-1.2c2.5-0.2,5,0,6.5,0.7C54.1,273.6,54.6,274.6,54.6,274.6
								z"/>
						</g>
					</g>
				</g>
			</g>
			<g>
				<g>
					<g>
						<g>
							<path class="st9" d="M52.2,271.6c0,0.1-1.3-0.5-3.5-1.3c-2.2-0.7-5.2-1.5-8.7-1.8c-3.5-0.3-6.6,0-8.9,0.5
								c-2.3,0.4-3.6,0.8-3.6,0.7c0,0,0.3-0.2,0.9-0.4c0.6-0.2,1.5-0.5,2.6-0.7c2.3-0.5,5.5-0.9,9-0.6c3.5,0.3,6.7,1.1,8.8,2
								c1.1,0.4,1.9,0.8,2.5,1.1C51.9,271.4,52.2,271.5,52.2,271.6z"/>
						</g>
					</g>
				</g>
			</g>
			<g>
				<g>
					<g>
						<g>
							<path class="st9" d="M72.4,258.6c-0.2,0-1.3-3.9-2.5-8.9c-1.3-4.9-2.1-9-2-9c0.2,0,1.3,3.9,2.5,8.9
								C71.6,254.5,72.5,258.6,72.4,258.6z"/>
						</g>
					</g>
				</g>
			</g>
			<g>
				<g>
					<g>
						<g>
							<path class="st9" d="M72.5,258.6c-0.2,0.1-0.9-2.6-2.8-5.3c-1.9-2.8-4.2-4.2-4.2-4.3c0-0.1,0.7,0.2,1.6,0.8
								c0.9,0.6,2.1,1.7,3,3.1C72.2,255.8,72.7,258.6,72.5,258.6z"/>
						</g>
					</g>
				</g>
			</g>
			<g>
				<g>
					<g>
						<g>
							<path class="st9" d="M72.4,375.3c-0.1,0-0.2-1-0.6-2.7c-0.5-1.7-1.3-4.2-2.7-7c-2.8-5.7-7.9-13-14.4-20.3
								c-3.2-3.7-6.3-7.2-9-10.5c-2.7-3.3-4.8-6.5-6.4-9.3c-1.6-2.8-2.6-5.2-3.2-6.9c-0.3-0.8-0.5-1.5-0.6-2
								c-0.1-0.5-0.2-0.7-0.2-0.7c0.1,0,0.3,0.9,1,2.6c0.7,1.7,1.8,4,3.4,6.8c1.6,2.8,3.8,5.9,6.5,9.2c2.7,3.3,5.8,6.7,9,10.4
								c6.5,7.3,11.6,14.7,14.4,20.5c1.4,2.9,2.2,5.4,2.6,7.2c0.2,0.9,0.3,1.6,0.4,2C72.4,375,72.4,375.3,72.4,375.3z"/>
						</g>
					</g>
				</g>
			</g>
			<g>
				<g>
					<g>
						<g>
							<path class="st9" d="M115,307.3c0,0-0.2,0.1-0.6,0.3c-0.4,0.2-1,0.5-1.7,0.8c-0.7,0.3-1.6,0.7-2.6,1.2
								c-1,0.5-2.2,1.1-3.4,1.8c-0.6,0.4-1.3,0.7-1.9,1.1c-0.7,0.4-1.3,0.8-2,1.3c-1.4,0.9-2.9,1.9-4.4,3c-3,2.3-6.1,5-9.2,8.1
								c-3,3.1-5.6,6.4-7.8,9.5c-1,1.6-2.1,3-2.9,4.5c-0.4,0.7-0.9,1.4-1.2,2.1c-0.4,0.7-0.7,1.3-1,2c-0.7,1.2-1.2,2.4-1.7,3.5
								c-0.5,1-0.9,1.9-1.2,2.7c-0.3,0.7-0.5,1.2-0.7,1.7c-0.2,0.4-0.3,0.6-0.3,0.6c0,0,0-0.2,0.2-0.6c0.2-0.5,0.4-1,0.6-1.7
								c0.3-0.8,0.6-1.7,1.1-2.7c0.5-1,0.9-2.3,1.6-3.5c0.3-0.6,0.7-1.3,1-2c0.4-0.7,0.8-1.4,1.2-2.1c0.8-1.5,1.8-3,2.9-4.6
								c2.2-3.1,4.8-6.4,7.8-9.6c3.1-3.1,6.2-5.8,9.3-8.1c1.6-1.1,3-2.2,4.5-3c0.7-0.4,1.4-0.9,2.1-1.3c0.7-0.4,1.3-0.7,2-1.1
								c1.2-0.7,2.4-1.2,3.5-1.7c1-0.5,1.9-0.9,2.7-1.2c0.7-0.3,1.3-0.5,1.7-0.7C114.7,307.4,115,307.3,115,307.3z"/>
						</g>
					</g>
				</g>
			</g>
			<g>
				<g>
					<g>
						<g>
							<path class="st9" d="M89.5,324.4c-0.1,0,0.2-1,1.4-2.1c1.1-1.1,3.2-2.1,5.6-2.2c2.4-0.1,4.5,0.6,5.9,1.2
								c1.4,0.6,2.3,1,2.2,1.1c0,0.1-0.9-0.2-2.4-0.7c-1.4-0.4-3.5-1-5.8-1c-2.3,0.1-4.2,0.9-5.4,1.9
								C90,323.5,89.6,324.4,89.5,324.4z"/>
						</g>
					</g>
				</g>
			</g>
			<g>
				<g>
					<g>
						<g>
							<path class="st9" d="M85.7,328.3c-0.2-0.1,1.3-2.2,1.6-5.2c0.4-3-0.5-5.4-0.4-5.4c0.1,0,0.4,0.5,0.7,1.5c0.3,1,0.5,2.4,0.3,4
								c-0.2,1.6-0.7,2.9-1.2,3.8C86.2,327.9,85.8,328.3,85.7,328.3z"/>
						</g>
					</g>
				</g>
			</g>
		</g>
	</g>
</g>
<g id="Character_1_">
	<g>
		<g>
			<g>
				<g>
					<g>
						<g>
							<path class="st10" d="M559.3,65.3c1.5,3.9,2.4,4.9,4.4,9c1.8,3.6,0.2,8.5-2.8,11.2c-1.9,1.8-4.5,2.5-7,3.1
								c-5.6,1.3-11.5,2.3-17.2,1.2c-5.3-1-10.3-3.8-14-7.8c-3.7-4.1-6-9.3-6.5-14.8"/>
						</g>
					</g>
				</g>
				<g class="st11">
					<g>
						<g>
							<g>
								<path d="M559.3,65.3c1.5,3.9,2.4,4.9,4.4,9c1.8,3.6,0.2,8.5-2.8,11.2c-1.9,1.8-4.5,2.5-7,3.1c-5.6,1.3-11.5,2.3-17.2,1.2
									c-5.3-1-10.3-3.8-14-7.8c-3.7-4.1-6-9.3-6.5-14.8"/>
							</g>
						</g>
					</g>
				</g>
				<g>
					<g>
						<g>
							<g>
								<g>
									<g>
										<path class="st9" d="M555.3,78.5c1.5-4.5,3.1-9.1,3.8-13.8c0.7-4.7,0.6-9.7-1-14.2c-0.2-0.7-2.3-5.3-3.1-5.2
											c-0.5,0,0.8,4.3,0.5,4.8c-2.5,4.2-3.3,9.4-2.9,14.3C552.9,69.3,553.9,73.7,555.3,78.5"/>
									</g>
								</g>
							</g>
						</g>
						<g>
							<g>
								<g>
									<g>
										<g>
											<path class="st12" d="M531.6,124.7c7.4-0.1,23.7-12.4,23.8-19.8l0.6-44.7c0.5-12-6-22.3-18-22.5l-1.1,0
												c-11.2,0.5-20.1,9.4-20.6,20.6c-0.4,10.4-0.7,21.9-0.4,27.5c0.6,11.5,11.9,12.8,11.9,12.8c0,0,0,4.6,0,7.9
												c0,7.6-2,18.2,5.6,18.2H531.6z"/>
										</g>
									</g>
								</g>
							</g>
						</g>
						<g>
							<g>
								<g>
									<g>
										<g>
											<g>
												<path class="st13" d="M527.8,98.6c0,0,7.5,0.2,15.1-5c0,0-3.5,8.8-15.1,8.2V98.6z"/>
											</g>
										</g>
									</g>
								</g>
							</g>
						</g>
						<g>
							<g>
								<g>
									<g>
										<g>
											<g>
												<g>
													<g>
														<g>
															<g>
																<g>
																	<g>
																		<path class="st9" d="M519.5,67.7c0,0.9,0.7,1.6,1.7,1.6c0.9,0,1.6-0.7,1.6-1.6c0-0.9-0.7-1.6-1.7-1.6
																			C520.2,66.2,519.5,66.9,519.5,67.7z"/>
																	</g>
																</g>
															</g>
														</g>
													</g>
												</g>
											</g>
										</g>
									</g>
								</g>
							</g>
						</g>
						<g>
							<g>
								<g>
									<g>
										<g>
											<g>
												<g>
													<g>
														<g>
															<g>
																<g>
																	<g>
																		<g>
																			<path class="st9" d="M519,63c0.2,0.2,1.4-0.8,3.2-0.8c1.8-0.1,3.1,0.8,3.3,0.5c0.1-0.1-0.1-0.5-0.7-0.9
																				c-0.6-0.4-1.5-0.7-2.6-0.7c-1.1,0.1-2,0.5-2.5,0.9C519,62.5,518.9,62.9,519,63z"/>
																		</g>
																	</g>
																</g>
															</g>
														</g>
													</g>
												</g>
											</g>
										</g>
									</g>
								</g>
							</g>
						</g>
						<g>
							<g>
								<g>
									<g>
										<g>
											<g>
												<g>
													<g>
														<g>
															<g>
																<g>
																	<g>
																		<path class="st9" d="M534.6,68.3c0,0.9,0.7,1.6,1.7,1.6c0.9,0,1.6-0.7,1.6-1.6c0-0.9-0.7-1.6-1.7-1.6
																			C535.4,66.7,534.6,67.4,534.6,68.3z"/>
																	</g>
																</g>
															</g>
														</g>
													</g>
												</g>
											</g>
										</g>
									</g>
								</g>
							</g>
						</g>
						<g>
							<g>
								<g>
									<g>
										<g>
											<g>
												<g>
													<g>
														<g>
															<g>
																<g>
																	<g>
																		<g>
																			<path class="st9" d="M536.3,62.5c0.2,0.2,1.4-0.6,3.2-0.6c1.8-0.1,3.1,0.6,3.3,0.4c0.1-0.1-0.1-0.3-0.7-0.6
																				c-0.6-0.3-1.5-0.5-2.6-0.5c-1.1,0-2,0.4-2.5,0.7C536.4,62.2,536.2,62.5,536.3,62.5z"/>
																		</g>
																	</g>
																</g>
															</g>
														</g>
													</g>
												</g>
											</g>
										</g>
									</g>
								</g>
							</g>
						</g>
						<g>
							<g>
								<g>
									<g>
										<g>
											<g>
												<g>
													<g>
														<g>
															<g>
																<g>
																	<g>
																		<path class="st9" d="M530.5,76.9c0-0.1-1.1-0.2-2.9-0.4c-0.5,0-0.9-0.1-1-0.4c-0.1-0.3,0-0.8,0.2-1.4
																			c0.4-1.1,0.8-2.3,1.2-3.5c1.7-5,2.8-9.1,2.6-9.1c-0.2-0.1-1.7,3.9-3.4,8.9c-0.4,1.2-0.8,2.4-1.1,3.5
																			c-0.1,0.5-0.4,1.1-0.2,1.8c0.1,0.3,0.5,0.6,0.8,0.6c0.3,0.1,0.5,0.1,0.8,0.1C529.4,77,530.5,77,530.5,76.9z"/>
																	</g>
																</g>
															</g>
														</g>
													</g>
												</g>
											</g>
										</g>
									</g>
								</g>
							</g>
						</g>
						<g>
							<g>
								<g>
									<g>
										<g>
											<g>
												<g>
													<g>
														<path class="st9" d="M536.1,53.7c0.2,0.5,2,0.2,4,0.3c2.1,0.1,3.8,0.7,4,0.2c0.1-0.2-0.2-0.7-0.9-1.1
															c-0.7-0.4-1.8-0.8-3-0.9c-1.3-0.1-2.4,0.2-3.1,0.5C536.4,53,536,53.4,536.1,53.7z"/>
													</g>
												</g>
											</g>
										</g>
									</g>
								</g>
							</g>
						</g>
						<g>
							<g>
								<g>
									<g>
										<g>
											<g>
												<g>
													<g>
														<path class="st9" d="M519.5,54.2c0.3,0.4,1.5-0.1,3-0.2c1.5-0.1,2.7,0.2,3-0.3c0.1-0.2-0.1-0.6-0.7-1
															c-0.5-0.4-1.5-0.6-2.5-0.6c-1,0.1-1.9,0.5-2.4,0.9C519.5,53.6,519.3,54,519.5,54.2z"/>
													</g>
												</g>
											</g>
										</g>
									</g>
								</g>
							</g>
						</g>
						<g>
							<g>
								<g>
									<g>
										<path class="st12" d="M555.4,68.8c0.2-0.1,7.8-2.7,7.9,5.2c0.1,7.9-7.9,6.3-7.9,6.1C555.4,79.9,555.4,68.8,555.4,68.8z"/>
									</g>
								</g>
							</g>
						</g>
						<g>
							<g>
								<g>
									<g>
										<g>
											<path class="st13" d="M557.8,77.1c0,0,0.1,0.1,0.4,0.2c0.2,0.1,0.6,0.2,1,0c0.8-0.3,1.5-1.6,1.5-3.1c0-0.7-0.1-1.4-0.4-2
												c-0.2-0.6-0.6-1-1-1c-0.4-0.1-0.7,0.2-0.8,0.4c-0.1,0.2-0.1,0.4-0.1,0.4c0,0-0.2-0.1-0.1-0.5c0-0.2,0.1-0.3,0.3-0.5
												c0.2-0.2,0.5-0.2,0.8-0.2c0.6,0,1.2,0.6,1.4,1.2c0.3,0.6,0.5,1.4,0.5,2.2c0,1.6-0.8,3.1-2,3.4c-0.6,0.1-1,0-1.3-0.2
												C557.8,77.3,557.8,77.1,557.8,77.1z"/>
										</g>
									</g>
								</g>
							</g>
						</g>
						<g>
							<g>
								<g>
									<g>
										<path class="st9" d="M521.4,45.3c-1.3-0.7,2.5-4.8,5.7-6.3c4.7-2.2,12-3.5,16.3-2.2c5.3,1.5,9.6,4.1,12.3,8.9
											c2.6,4.8,3.6,10.4,3.5,15.8c0,1.7-0.2,3.4-1.1,4.8c-1.1,1.7-3.2,2.8-3.1,5.2c0,0.9-0.2,1.8-0.8,2.4
											c-1.4,1.5-3.2,0.1-4-1.4c-1.7-3.1-1.9-6.8-2.1-10.3c-0.1-2.5-0.2-5.1,0.5-7.5c0.4-1.3,1-2.6,1.3-3.9
											c0.3-1.3,0.3-2.8-0.6-3.9c-0.1-0.2-0.4-0.4-0.6-0.6c-2.2-2-5.4-2.5-8.2-1.5c-4.4,1.6-12,3.9-14,2.4
											c-2.8-2.2-3.5-3.6-3.5-3.6L521.4,45.3z"/>
									</g>
								</g>
							</g>
						</g>
					</g>
				</g>
				<g>
					<g>
						<g>
							<path class="st10" d="M516.3,57.3c0,0,1.3-4,2.6-6.1c1.3-2.1,5.6-3.9,6.5-4.2s11.5-0.2,19.1,1.3c7.5,1.5,14.5,17.2,14.5,17.2
								l0.8-4.3c0,0-0.8-8.4-0.8-10.3c0-1.9-3.2-8.2-4-9.1c-0.8-1-8.9-5.5-9.8-6c-0.9-0.4-8-2.4-11.4-1.7c-3.4,0.7-12.1,4.7-14,6.3
								c-1.9,1.6-2.5,2-3.5,3.9C515.2,46.2,516.3,57.3,516.3,57.3z M524.6,44l0.1-1.5c0.1-1,4.3-6.3,10.3-5.4
								c6.1,0.9,7.9,8.2,7.9,8.2L524.6,44z"/>
						</g>
					</g>
				</g>
				<g>
					<g>
						<g>
							<g>
								<path class="st9" d="M524.7,47c0,0-0.2-0.1-0.4-0.4c-0.2-0.3-0.3-0.7-0.2-1.2c0.1-0.5,0.4-0.8,0.6-1.1
									c0.2-0.3,0.3-0.4,0.3-0.5c0,0-0.2,0.1-0.5,0.3c-0.2,0.2-0.6,0.6-0.7,1.2c-0.2,0.5,0,1.1,0.3,1.4C524.5,47,524.7,47,524.7,47
									z"/>
							</g>
						</g>
					</g>
				</g>
				<g>
					<g>
						<g>
							<g>
								<path class="st9" d="M527.1,45.1c0,0,0.1,0.1,0.1,0.4c0,0.1-0.1,0.2-0.2,0.3c-0.1,0.1-0.2,0.1-0.4,0
									c-0.1-0.1-0.2-0.2-0.2-0.3c0-0.1,0.1-0.2,0.2-0.3C526.9,45,527,45.1,527.1,45.1c0-0.1-0.2-0.2-0.5-0.1
									c-0.1,0-0.3,0.2-0.4,0.4c-0.1,0.2,0.1,0.5,0.3,0.6c0.2,0.1,0.5,0.1,0.7,0c0.2-0.1,0.2-0.3,0.2-0.5
									C527.3,45.1,527.1,45,527.1,45.1z"/>
							</g>
						</g>
					</g>
				</g>
				<g>
					<g>
						<g>
							<g>
								<path class="st9" d="M530.6,45.3c0,0,0.1,0.1,0.1,0.4c0,0.1-0.1,0.2-0.2,0.3c-0.1,0.1-0.2,0.1-0.4,0
									c-0.1-0.1-0.2-0.2-0.2-0.3c0-0.1,0.1-0.2,0.2-0.3C530.4,45.2,530.5,45.3,530.6,45.3c0-0.1-0.2-0.2-0.5-0.1
									c-0.1,0-0.3,0.2-0.4,0.4c-0.1,0.2,0.1,0.5,0.3,0.6c0.2,0.1,0.5,0.1,0.7,0c0.2-0.1,0.2-0.3,0.2-0.5
									C530.8,45.3,530.6,45.3,530.6,45.3z"/>
							</g>
						</g>
					</g>
				</g>
				<g>
					<g>
						<g>
							<g>
								<path class="st9" d="M534.1,45.5c0,0,0.1,0.1,0.1,0.4c0,0.1-0.1,0.2-0.2,0.3c-0.1,0.1-0.2,0.1-0.4,0
									c-0.1-0.1-0.2-0.2-0.2-0.3c0-0.1,0.1-0.2,0.2-0.3C533.8,45.4,534,45.5,534.1,45.5c0-0.1-0.2-0.2-0.5-0.1
									c-0.1,0-0.3,0.2-0.4,0.4c-0.1,0.2,0.1,0.5,0.3,0.6c0.2,0.1,0.5,0.1,0.7,0c0.2-0.1,0.2-0.3,0.2-0.5
									C534.3,45.5,534.1,45.5,534.1,45.5z"/>
							</g>
						</g>
					</g>
				</g>
				<g>
					<g>
						<g>
							<g>
								<path class="st9" d="M537.5,45.7c0,0,0.1,0.1,0.1,0.4c0,0.1-0.1,0.2-0.2,0.3c-0.1,0.1-0.2,0.1-0.4,0
									c-0.1-0.1-0.2-0.2-0.2-0.3c0-0.1,0.1-0.2,0.2-0.3C537.3,45.6,537.5,45.7,537.5,45.7c0-0.1-0.2-0.2-0.5-0.1
									c-0.1,0-0.3,0.2-0.4,0.4c-0.1,0.2,0.1,0.5,0.3,0.6c0.2,0.1,0.5,0.1,0.7,0c0.2-0.1,0.2-0.3,0.2-0.5
									C537.8,45.8,537.5,45.7,537.5,45.7z"/>
							</g>
						</g>
					</g>
				</g>
				<g>
					<g>
						<g>
							<g>
								<path class="st9" d="M541,45.9c0,0,0.1,0.1,0.1,0.4c0,0.1-0.1,0.2-0.2,0.3c-0.1,0.1-0.2,0.1-0.4,0c-0.1-0.1-0.2-0.2-0.2-0.3
									c0-0.1,0.1-0.2,0.2-0.3C540.8,45.9,540.9,45.9,541,45.9c0-0.1-0.2-0.2-0.5-0.1c-0.1,0-0.3,0.2-0.4,0.4
									c-0.1,0.2,0.1,0.5,0.3,0.6c0.2,0.1,0.5,0.1,0.7,0c0.2-0.1,0.2-0.3,0.2-0.5C541.2,46,541,45.9,541,45.9z"/>
							</g>
						</g>
					</g>
				</g>
				<g>
					<g>
						<g>
							<path class="st9" d="M534.8,37.4c-0.6,0-0.9-0.9-1.6-0.9c-0.6,0-1.3,0.4-1.6,0.9c-0.2-0.6-0.9-1-1.5-1
								c-0.6,0-1.2,0.5-1.4,1.2c-0.5-0.2-1-0.3-1.5-0.1c-0.5,0.2-0.7,0.9-0.3,1.2c-0.6-0.4-1.5-0.5-2.1-0.1
								c-0.6,0.4-0.8,1.4-0.2,1.8c-0.7-0.3-1.6-0.1-2.1,0.5c-0.5,0.6-0.4,1.6,0.1,2.1c0.1,0.1,0.3,0.3,0.5,0.3
								c0.3,0,0.6-0.3,0.6-0.6c0.1-0.3,0-0.7,0.2-1c0.1-0.3,0.5-0.5,0.8-0.3c-0.3,0.5-0.6,1.3-0.2,1.8c0.3,0.3,0.6,0.7,1,0.7
								c2.5,0.1,15,1.1,17.4,1.2C542.9,45.3,540.7,37.7,534.8,37.4z"/>
						</g>
					</g>
				</g>
				<g>
					<g>
						<g>
							<path class="st9" d="M558.3,64.2c0.1,0.7,0.8,1.1,1.4,1.2c0.7,0.1,1.4,0.1,1.9,0.4c0.6,0.3,1,1.1,0.5,1.7
								c-0.4,0.4-1,0.3-1.5,0.2c-2.4-0.8-4.3-2.8-5-5.2c-0.9,0.6-2.1,0.1-2.7-0.7c-0.6-0.8-0.8-1.9-0.9-2.9c-2.7,0.1-5.3-2.3-5.2-5
								c0-1.5,0.7-3,0.2-4.4c0,0,3.6,2.6,5.4,5.1C554.1,56.8,558.3,64.2,558.3,64.2z"/>
						</g>
					</g>
				</g>
				<g>
					<g>
						<g>
							<path class="st9" d="M561.3,67.4c0.3,0,0.6,0.3,0.6,0.6c0,0.3-0.3,0.6-0.6,0.7c-0.3,0.1-0.7,0.1-1,0.1c-1-0.1-2-0.5-2.8-1.1
								c-0.3,0.7-1.2,1-1.9,0.8c-0.7-0.2-1.3-0.7-1.7-1.4c-0.3-0.7-0.4-1.4-0.4-2.2c-0.7,0.5-1.6,0.4-2.3-0.1
								c-0.7-0.5-1-1.3-1.2-2.1c-0.1-0.8,0-1.6,0.1-2.4c-0.6,0.6-1.7,0.2-2-0.6c-0.3-0.7-0.1-1.7,0.3-2.4c-1.1-0.4-1.6-1.8-1.1-2.8
								c-0.5,0.4-1.2,0.1-1.5-0.4c-0.3-0.5-0.3-1.2-0.1-1.8c0.1-0.6,0.4-1.2,0.4-1.8c0.1-0.8-0.2-1.7-0.7-2.3
								c1.5,0.3,2.8,1.1,3.8,2.2c1.1,1.1,1.9,2.3,2.7,3.6c2.2,3.4,4.4,6.8,6.6,10.3"/>
						</g>
					</g>
				</g>
				<g>
					<g>
						<g>
							<g>
								<path class="st10" d="M545.8,48.7c0,0,0.2,0.1,0.3,0.4c0.2,0.3,0.3,0.9,0.1,1.5c-0.1,0.3-0.2,0.7-0.4,1.1
									c-0.2,0.4-0.3,0.8-0.4,1.3c-0.1,0.5,0,1.1,0.4,1.5c0.2,0.2,0.5,0.3,0.8,0.4c0.3,0,0.7-0.1,0.9-0.3l-0.2-0.1
									c-0.3,0.8-0.2,1.8,0.3,2.6c0.5,0.8,1.4,1.5,2.4,1.5l-0.1-0.2c-0.3,0.9-0.3,2,0.1,3c0.4,0.9,1.1,1.6,1.9,2l-0.1-0.1
									c0.1,0.6,0.2,1.3,0.4,1.9c0.2,0.6,0.5,1.2,1,1.6c0.5,0.4,1.1,0.6,1.7,0.6c0.6,0,1.1-0.3,1.4-0.8l-0.2,0
									c0.5,0.9,1.3,1.5,2,1.8c0.8,0.3,1.5,0.2,2.1,0.1c0.6-0.2,0.9-0.4,1.2-0.6c0.1-0.1,0.2-0.2,0.3-0.2c0.1-0.1,0.1-0.1,0.1-0.1
									c0,0-0.1,0.1-0.4,0.3c-0.2,0.2-0.6,0.4-1.2,0.5c-0.5,0.1-1.3,0.2-2-0.1c-0.7-0.3-1.5-0.8-1.9-1.7l-0.1-0.2l-0.1,0.2
									c-0.2,0.4-0.7,0.6-1.2,0.7c-0.5,0-1.1-0.2-1.5-0.5c-0.4-0.4-0.7-0.9-0.9-1.5c-0.2-0.6-0.3-1.2-0.4-1.8l0-0.1l-0.1,0
									c-0.8-0.4-1.4-1.1-1.8-1.9c-0.4-0.9-0.5-1.9-0.1-2.8l0.1-0.2l-0.2,0c-0.9,0-1.8-0.6-2.2-1.4c-0.5-0.7-0.6-1.6-0.3-2.4
									l0.2-0.6l-0.4,0.5c-0.3,0.4-1,0.3-1.4-0.1c-0.4-0.3-0.4-0.9-0.4-1.3c0.1-0.9,0.6-1.7,0.7-2.4c0.2-0.7,0-1.3-0.2-1.6
									C546,48.8,545.8,48.7,545.8,48.7z"/>
							</g>
						</g>
					</g>
				</g>
				<g>
					<g>
						<g>
							<g>
								<path class="st10" d="M524.8,41.5c0,0-0.1-0.2,0-0.5c0.1-0.1,0.2-0.3,0.4-0.3c0.2,0,0.5,0.1,0.5,0.4l0.2,0
									c-0.1-0.6,0.2-1.3,0.9-1.7c0.7-0.4,1.8-0.1,2.2,0.8l0.2-0.2c-0.2-0.1-0.2-0.3-0.1-0.5c0.1-0.2,0.3-0.3,0.6-0.3
									c0.5-0.1,1.1,0.1,1.7,0.3c0.9,0.4,1.6,1.1,1.9,1.9l0.2-0.2c-0.2-0.1-0.3-0.3-0.2-0.5c0-0.2,0.1-0.4,0.3-0.5
									c0.4-0.3,0.8-0.3,1.3-0.3c0.9,0.1,1.6,0.4,2.1,0.8c1,0.8,1.2,1.6,1.3,1.6c0,0,0,0,0-0.1c0-0.1-0.1-0.2-0.2-0.4
									c-0.2-0.3-0.5-0.8-1-1.2c-0.5-0.4-1.3-0.8-2.2-0.9c-0.4,0-1,0-1.4,0.3c-0.2,0.2-0.4,0.4-0.4,0.7c0,0.3,0.1,0.6,0.4,0.8
									l0.3,0.2l-0.2-0.3c-0.4-0.9-1.1-1.6-2.1-2.1c-0.6-0.2-1.2-0.4-1.8-0.3c-0.3,0-0.6,0.2-0.8,0.5c-0.1,0.2-0.1,0.3-0.1,0.5
									c0,0.2,0.1,0.3,0.3,0.4l0.4,0.2l-0.2-0.4c-0.5-1-1.7-1.3-2.5-0.8c-0.8,0.4-1.1,1.3-1,1.9l0.2,0c-0.1-0.3-0.4-0.5-0.7-0.5
									c-0.3,0-0.4,0.2-0.5,0.4C524.6,41.4,524.8,41.6,524.8,41.5z"/>
							</g>
						</g>
					</g>
				</g>
				<g>
					<g>
						<g>
							<path class="st9" d="M516.2,56.8c0,0.6-0.2,1.3-0.7,2c-0.5,0.7-1.2,1.2-1.5,1.9c-0.4,0.7-0.2,1.8,0.5,2.1
								c-0.6,0.9-0.8,2-0.4,3c0.4,1,0.8,2.7,1.8,3c0.2-3.5,0.5-9.2,0.6-12.7"/>
						</g>
					</g>
				</g>
			</g>
		</g>
		<g>
			<g>
				<g>
					<g>
						<g>
							<g>
								<g>
									<g>
										<g>
											<g>
												<g>
													<g>
														<g>
															<g>
																<g>
																	<g>
																		<path class="st9" d="M535.9,77.9c-0.3,0-0.2,1.8-1.7,3.2c-1.5,1.4-3.5,1.2-3.5,1.5c0,0.1,0.5,0.3,1.3,0.3
																			c0.8,0,2-0.3,2.9-1.2c0.9-0.8,1.3-1.9,1.3-2.7C536.3,78.3,536.1,77.8,535.9,77.9z"/>
																	</g>
																</g>
															</g>
														</g>
													</g>
												</g>
											</g>
										</g>
									</g>
								</g>
							</g>
						</g>
					</g>
				</g>
			</g>
		</g>
		<g>
			<g>
				<g>
					<g>
						<g>
							<g>
								<polygon class="st12" points="463.4,203.7 518.6,204.9 519.6,186.5 453.1,191.9 								"/>
							</g>
						</g>
					</g>
				</g>
				<g>
					<g>
						<g>
							<g>
								<g>
									<path class="st10" d="M421.6,145.5c0,0.1-0.6,1.4-0.6,1.4c4.8,9.2,22.3,42.5,22.3,42.5l21.5,10.4l45.4-2V195l-20.4-10.5
										l-33,0.8L439,150.1c-0.5-0.9-1.3-1.5-2.3-1.7L421.6,145.5z"/>
								</g>
							</g>
						</g>
					</g>
					<g>
						<g>
							<g>
								<g>
									<g>
										<path class="st9" d="M464.8,199.7c-0.1,0-0.6-0.8-1.4-2.1c-0.8-1.3-1.8-3.2-3-5.2c-1.1-2.1-2.1-3.9-2.8-5.3
											c-0.7-1.4-1.1-2.2-1-2.3c0.1,0,0.6,0.8,1.4,2.1c0.8,1.3,1.8,3.2,3,5.2c1.1,2.1,2.1,3.9,2.8,5.3
											C464.5,198.9,464.9,199.7,464.8,199.7z"/>
									</g>
								</g>
							</g>
						</g>
					</g>
					<g>
						<g>
							<g>
								<g>
									<polygon class="st9" points="469.6,195.2 491.6,194.5 475,185.8 457.2,186.2 									"/>
								</g>
							</g>
						</g>
					</g>
					<g>
						<g>
							<g>
								<g>
									<g>
										<path class="st9" d="M510.2,194.9c0,0-0.2,0-0.5,0.1c-0.4,0-0.8,0-1.4,0.1c-1.3,0-2.9,0.1-5,0.2
											c-4.2,0.1-10.1,0.4-16.5,0.7c-6.5,0.3-12.3,0.5-16.5,0.5c-2.1,0-3.8,0-5,0c-0.5,0-1,0-1.4,0c-0.3,0-0.5,0-0.5-0.1
											c0,0,0.2,0,0.5-0.1c0.4,0,0.8,0,1.4-0.1c1.3,0,2.9-0.1,5-0.2c4.2-0.1,10.1-0.4,16.5-0.7c6.5-0.3,12.3-0.5,16.5-0.5
											c2.1,0,3.8,0,5,0c0.5,0,1,0,1.4,0C510,194.8,510.2,194.8,510.2,194.9z"/>
									</g>
								</g>
							</g>
						</g>
					</g>
					<g>
						<g>
							<g>
								<g>
									<g>
										<path class="st9" d="M461.7,198.2c0,0-0.1-0.2-0.4-0.6c-0.2-0.5-0.6-1.1-1-1.8c-0.9-1.6-2-3.9-3.5-6.7
											c-2.9-5.7-6.9-13.6-11.4-22.2c-3.1-6.2-6-11.9-8.5-16.8l0.2,0.1c-4.8-1-8.9-1.8-11.7-2.4c-1.4-0.3-2.5-0.5-3.3-0.7
											c-0.8-0.2-1.2-0.3-1.1-0.3c0,0,0.4,0,1.2,0.2c0.8,0.1,1.9,0.3,3.3,0.6c2.9,0.5,6.9,1.3,11.8,2.2l0.1,0l0.1,0.1
											c2.5,4.8,5.4,10.6,8.5,16.7c4.4,8.7,8.3,16.5,11.2,22.3c1.4,2.8,2.5,5.1,3.3,6.8c0.4,0.8,0.7,1.4,0.9,1.9
											C461.6,198,461.7,198.2,461.7,198.2z"/>
									</g>
								</g>
							</g>
						</g>
					</g>
				</g>
				<g>
					<g>
						<g>
							<g>
								<g>
									<g>
										<path class="st12" d="M448.6,185.9c0,0,0.9-0.9,2.7,1.4c1.8,2.3,4.9,9.1,4.9,9.1l3.4,1.5c0,0-2.9-3.5-2.9-4.9
											c0-1.4,2.2-1.4,3.5,0.6c1.2,2,4.8,6,4.8,6s-1.1,4.1-1.4,3.9c-0.3-0.2-5.9-0.5-5.9-0.5l-1.5-0.7c0,0-3.8,0-4-1
											c-0.2-1-6.4-5.3-6.4-6.2s0-5.9,0-5.9s-2.8-6.9-2.2-7.6C444,181.1,446.5,179.5,448.6,185.9z"/>
									</g>
								</g>
							</g>
						</g>
						<g>
							<g>
								<g>
									<g>
										<g>
											<path class="st13" d="M449,185.8c0,0-0.1,0-0.3,0.1c-0.2,0-0.3,0.3-0.3,0.6l0,0c0.2,0.7,0.5,1.9,0.8,3.3
												c0.3,1.4,0.6,3.1,1.2,4.8c0.4,1.2,1.1,2.2,1.8,3.1c0.7,0.9,1.3,1.7,1.9,2.4c1,1.4,1.7,2.2,1.6,2.3
												c-0.1,0-0.8-0.7-1.9-2.1c-0.6-0.7-1.2-1.5-1.9-2.3c-0.4-0.4-0.8-0.9-1.1-1.5c-0.3-0.5-0.6-1.2-0.8-1.8
												c-0.5-1.8-0.8-3.5-1.1-4.9c-0.2-1.3-0.4-2.4-0.6-3.3l0,0l0,0c0-0.4,0.3-0.7,0.5-0.7C448.9,185.8,449,185.8,449,185.8z"/>
										</g>
									</g>
								</g>
							</g>
						</g>
					</g>
					<g>
						<g>
							<g>
								<g>
									<g>
										<path class="st13" d="M448.1,197.8c-0.1,0-0.8-1.8-1.5-4.1c-0.7-2.3-1.1-4.2-1-4.3c0.1,0,0.8,1.8,1.5,4.1
											C447.8,195.8,448.2,197.7,448.1,197.8z"/>
									</g>
								</g>
							</g>
						</g>
					</g>
					<g>
						<g>
							<g>
								<g>
									<g>
										<path class="st13" d="M458.5,192.3c0,0-0.2,0.1-0.4,0.1c-0.2,0-0.7,0.1-0.9,0.4c-0.3,0.3-0.1,0.8,0.1,1.3
											c0.3,0.6,0.6,1.2,0.9,1.8c0.3,0.6,0.6,1.2,0.9,1.8c0.3,0.5,0.6,1,0.9,1.4c0.5,0.8,0.7,1.4,0.7,1.4c-0.1,0-0.4-0.4-1-1.2
											c-0.3-0.4-0.7-0.8-1-1.4c-0.3-0.6-0.6-1.2-0.9-1.8c-0.3-0.6-0.6-1.3-0.8-1.9c-0.1-0.3-0.2-0.6-0.3-0.9
											c0-0.3,0.1-0.7,0.3-0.9c0.5-0.4,0.9-0.3,1.2-0.3C458.3,192.2,458.5,192.3,458.5,192.3z"/>
									</g>
								</g>
							</g>
						</g>
					</g>
				</g>
			</g>
			<g>
				<g>
					<g>
						<g>
							<g>
								<g>
									<g>
										<g>
											<path class="st9" d="M582.6,235.2v17.2l-4.6,66.9c0,0,2.9,32.5,4.6,50.8c1.5,15.9-1,43.6-1,43.6h-26.9l-9.6-92.4l-6-57.7
												l-10.4-26.2L582.6,235.2z"/>
										</g>
									</g>
								</g>
							</g>
						</g>
					</g>
					<g>
						<g>
							<g>
								<g>
									<g>
										<g>
											<polygon class="st9" points="510.5,238.2 517,331.6 544.2,401.5 545.4,405.7 561.5,401.8 549.5,236.4 											"/>
										</g>
									</g>
								</g>
							</g>
						</g>
					</g>
					<g>
						<g>
							<g>
								<g>
									<g>
										<g>
											<g>
												<path class="st10" d="M539.3,264.3c0,0,0,0.1,0,0.4c0,0.3,0,0.7,0,1.1c0,1,0.1,2.5,0.1,4.4c0.1,3.8,0.4,9.3,0.8,16.1
													c0.8,13.6,2.3,32.3,4.7,52.9c2.3,20.6,4.9,39.2,6.8,52.7c1,6.7,1.7,12.2,2.3,15.9c0.3,1.9,0.5,3.3,0.6,4.3
													c0.1,0.5,0.1,0.8,0.2,1.1c0,0.3,0.1,0.4,0.1,0.4c0,0,0-0.1,0-0.4c0-0.3-0.1-0.7-0.1-1.1c-0.1-1-0.3-2.5-0.5-4.3
													c-0.5-3.8-1.2-9.2-2.1-16c-1.8-13.5-4.3-32.1-6.6-52.7c-2.4-20.6-3.9-39.3-4.8-52.9c-0.4-6.8-0.8-12.3-0.9-16.1
													c-0.1-1.9-0.2-3.3-0.2-4.4c0-0.5-0.1-0.9-0.1-1.1C539.3,264.4,539.3,264.3,539.3,264.3z"/>
											</g>
										</g>
									</g>
								</g>
							</g>
						</g>
					</g>
					<g>
						<g>
							<g>
								<g>
									<g>
										<g>
											<path class="st10" d="M537.6,241c0,0.8,0.6,1.4,1.4,1.4c0.8,0,1.4-0.6,1.4-1.4c0-0.8-0.6-1.4-1.4-1.4
												C538.2,239.6,537.6,240.2,537.6,241z"/>
										</g>
									</g>
								</g>
							</g>
						</g>
					</g>
					<g>
						<g>
							<g>
								<g>
									<g>
										<g>
											<g>
												<path class="st10" d="M514,254c0,0,0.8-0.6,1.9-1.8c1.1-1.2,2.4-3,3.4-5.3c1-2.3,1.5-4.4,1.7-6c0.2-1.6,0.1-2.6,0.1-2.6
													c-0.1,0-0.1,1-0.4,2.5c-0.3,1.6-0.8,3.7-1.8,5.9c-1,2.2-2.2,4-3.2,5.3C514.6,253.2,513.9,253.9,514,254z"/>
											</g>
										</g>
									</g>
								</g>
							</g>
						</g>
					</g>
				</g>
			</g>
			<g>
				<g>
					<g>
						<path class="st8" d="M586.6,244.1c0,0-3.1-23.5-3.4-26.2c-0.3-2.7-5.5-36.8-5.5-36.8l4.9-64.8c-3.7-4-23-16.5-23-16.5
							l-3.8-8.7l-23.4,18.5l-3.2,9.9l-1.4-13.3l-4.2,11.1c-1.6,1.2-4.1,4.8-4.5,6.7l-3.6,22.6c-0.5,3.2-0.8,6.3-0.9,9.5l-0.8,28.5
							l-5.6,63.6l19,5.9c6.9,2.1,14.1,2.5,21.2,0.9c10.1-2.2,24.1-5.2,26.6-5.4c4-0.3,7.8,4.2,7.8,4.2
							C583.4,254,587,248.6,586.6,244.1z"/>
					</g>
				</g>
				<g>
					<g>
						<g>
							<g>
								<g>
									<path class="st9" d="M558.8,99.2c0,0-0.3,0.5-0.9,1.2c-0.6,0.8-1.5,1.8-2.7,3.1c-2.3,2.6-5.7,6-9.3,9.8
										c-1.8,1.9-3.5,3.7-5,5.4l-0.2,0.2l-0.2-0.2c-2.5-2.5-4.2-4.8-5.6-6.4c-0.6-0.7-1.2-1.3-1.6-1.8c-0.4-0.4-0.6-0.6-0.6-0.7
										c0,0,0.3,0.2,0.7,0.6c0.4,0.4,1,1,1.7,1.7c1.4,1.5,3.3,3.8,5.7,6.2l-0.4,0c1.5-1.7,3.1-3.6,5-5.5c3.7-3.8,7.1-7.2,9.5-9.7
										c1.2-1.2,2.1-2.3,2.8-3C558.4,99.6,558.8,99.2,558.8,99.2z"/>
								</g>
							</g>
						</g>
					</g>
				</g>
				<g>
					<g>
						<g>
							<g>
								<g>
									<path class="st9" d="M521.1,217.1c0,0,0-0.1,0-0.3c0-0.2,0-0.4,0-0.7c0-0.7,0.1-1.6,0.2-2.8c0.2-2.5,0.4-6.1,0.7-10.5
										c0.6-8.8,1.5-21,2.6-34.5c1.1-13.5,2.1-25.7,3-34.5c0.4-4.4,0.8-8,1.1-10.4c0.2-1.2,0.3-2.1,0.4-2.8c0-0.3,0.1-0.5,0.1-0.7
										c0-0.2,0-0.2,0.1-0.2c0,0,0,0.1,0,0.3c0,0.2,0,0.4-0.1,0.7c-0.1,0.7-0.2,1.6-0.3,2.8c-0.2,2.5-0.6,6.1-1,10.4
										c-0.8,8.8-1.8,21-2.8,34.5c-1.1,13.4-2,25.6-2.7,34.5c-0.4,4.4-0.7,7.9-0.9,10.5c-0.1,1.2-0.2,2.1-0.3,2.8
										c0,0.3-0.1,0.5-0.1,0.7C521.1,217,521.1,217.1,521.1,217.1z"/>
								</g>
							</g>
						</g>
					</g>
				</g>
				<g class="st11">
					<g>
						<g>
							<g>
								<g>
									<path d="M513.4,190.8c2.5,1.3,5.4,1.7,7.9,3c1.8,1,3.3,2.3,4.8,3.7c10.6,9.1,23.9,15.7,37.9,15.9c4.8,0.1,9.9-0.7,13.5-3.9
										c2-1.8,3.4-4.5,2.6-7c-0.9-3.1-4.4-4.5-7.5-5.4c-9.5-3-19.1-6-28.6-8.9c-6-1.9-12.1-3.8-18.3-4.8
										c-4.2-0.7-8.4-0.9-12.7-0.8"/>
								</g>
							</g>
						</g>
					</g>
				</g>
				<g>
					<g>
						<g>
							<g>
								<g>
									<path class="st9" d="M545.1,230.7c-0.1,0.1-7-3.6-15.4-8.3c-8.5-4.7-15.2-8.7-15.2-8.8c0.1-0.1,7,3.6,15.4,8.3
										C538.4,226.7,545.2,230.6,545.1,230.7z"/>
								</g>
							</g>
						</g>
					</g>
				</g>
				<g>
					<g>
						<g>
							<g>
								<g>
									<path class="st9" d="M523.2,253.1c0,0,0-0.5,0-1.3c0.1-1,0.1-2.2,0.2-3.7c0.1-3.1,0.2-7.4,0.1-12.1
										c-0.1-4.7-0.1-9-0.1-12.1c0-1.5,0-2.7,0-3.7c0-0.9,0.1-1.3,0.1-1.3c0,0,0.1,0.5,0.1,1.3c0,1,0.1,2.2,0.1,3.7
										c0.1,3.1,0.2,7.4,0.2,12.1c0.1,4.7,0,9-0.3,12.1c-0.1,1.5-0.3,2.8-0.4,3.7C523.4,252.7,523.3,253.1,523.2,253.1z"/>
								</g>
							</g>
						</g>
					</g>
				</g>
				<g class="st11">
					<g>
						<g>
							<g>
								<g>
									<path d="M555.3,178.6c2.4-9.3,2.2-19.9,1.9-29.4c1.7,6.5,3.6,16.5,5,23.4l-2.7,6.6L555.3,178.6z"/>
								</g>
							</g>
						</g>
					</g>
				</g>
				<g class="st11">
					<g>
						<g>
							<g>
								<g>
									<path d="M529.2,119.6C529.3,119.4,528.3,120.4,529.2,119.6c1.4-1.3,2.5-3.5,3.5-4.9c2.6,2.4,5,5,7.3,7.7
										c3.3-3.5,6.7-7,9.7-10.7c2.4-3,4.6-6.2,6.6-9.5l-15.5,16.5l-8.3-8.9L529.2,119.6z"/>
								</g>
							</g>
						</g>
					</g>
				</g>
			</g>
			<g>
				<g>
					<g>
						<g>
							<g>
								<g>
									<g>
										<path class="st12" d="M516.6,173.8l0.8,14c0,0,20.7,9.7,34.2,13.2c13.5,3.5,29.5,2.9,29.5,2.9l-5.7-22.7L516.6,173.8z"/>
									</g>
								</g>
							</g>
						</g>
						<g>
							<g>
								<g>
									<g>
										<path class="st12" d="M476.6,176.6c0,0-0.3-1.7,1.5-2.9c1.8-1.1,5.6-3.6,5.6-3.6l11.4-1l21.5,4.6l0.8,14
											c0,0-11,0.6-13.5,0.5c-2.5-0.1-9.6-2.4-9.6-2.4s-11.9,1.5-12.5,0.8c-0.6-0.7-1.3-1.4-0.6-1.9c0.8-0.5,9.9-2.8,9.9-2.8
											l-6.1-0.5c0,0-9,1.9-9.6,1.6c-0.7-0.3-1.5-1.4-0.9-2.3c0.6-0.8,0.6-0.8,0.6-0.8s-0.6-1.7,0.9-2.4l0.8-0.3L476.6,176.6z"/>
									</g>
								</g>
							</g>
						</g>
						<g>
							<g>
								<g>
									<g>
										<g>
											<path class="st13" d="M492.9,176.5c0,0.1-1,0.4-2.8,0.5c-1.7,0.1-4.1-0.1-6.6,0.6c-1.2,0.4-2.3,1-3.4,1.4
												c-1,0.5-2,0.8-2.8,1c-1.7,0.5-2.7,0.6-2.7,0.6c0-0.1,1-0.3,2.6-0.9c0.8-0.3,1.7-0.7,2.8-1.1c1-0.5,2.1-1.1,3.4-1.5
												c1.3-0.4,2.6-0.5,3.7-0.5c1.1,0,2.2,0,3,0C491.8,176.6,492.9,176.4,492.9,176.5z"/>
										</g>
									</g>
								</g>
							</g>
						</g>
						<g>
							<g>
								<g>
									<g>
										<g>
											<path class="st13" d="M491.9,173.3c0,0.1-0.9,0.3-2.5,0.3c-1.5,0-3.6-0.2-5.7,0.7c-2.1,0.9-4.1,1.8-5.5,2.3
												c-1.4,0.6-2.3,0.9-2.3,0.8c0-0.1,0.8-0.5,2.2-1.2c1.4-0.7,3.3-1.6,5.4-2.5c1.1-0.4,2.2-0.7,3.3-0.7c1,0,1.9,0.1,2.7,0.1
												C491,173.3,491.9,173.2,491.9,173.3z"/>
										</g>
									</g>
								</g>
							</g>
						</g>
						<g>
							<g>
								<g>
									<g>
										<path class="st8" d="M582.6,116.4c0,0,5.7,9.2,6.6,13.6c0.9,4.5,3.1,51.5,2.2,52.4c-0.9,0.9-2.5,2-2.5,2s5.1,1.1,3.6,3.8
											c-1.6,2.7-3.1,4.7-3.1,4.7s-0.8,8.7-1.7,8.9c-1,0.2-6.4,3.3-6.4,3.3s-15.6-8.4-17-12.9c-1.4-4.5-4.8-13.4-4.8-13.4
											l2.7-6.2l-8-37.9c0,0-4.3-12.1,3.4-17.1C565.4,112.6,579.6,111.4,582.6,116.4z"/>
									</g>
								</g>
							</g>
						</g>
						<g>
							<g>
								<g>
									<g>
										<g>
											<path class="st9" d="M555.7,141.9c0,0,0.1,0.2,0.2,0.6c0.1,0.4,0.2,1,0.4,1.7c0.3,1.5,0.8,3.6,1.4,6.3
												c1.2,5.4,2.8,13.1,4.8,22.1l0,0.1l0,0.1c-0.8,2-1.7,4.1-2.7,6.2l0-0.2c1.5,4.2,3.1,8.9,4.9,13.6l0.3,0.6l0.4,0.6
												c0.3,0.4,0.6,0.7,0.9,1c0.3,0.3,0.7,0.6,1,1c0.3,0.3,0.7,0.6,1,0.9c1.4,1.2,2.9,2.2,4.4,3.2c3,2,5.9,3.7,8.8,5.3l-0.2,0
												c1.4-0.8,2.7-1.5,4-2.2c0.7-0.3,1.3-0.7,2-1l0.3-0.1c0.1,0,0.2-0.1,0.2-0.1c0,0,0.1-0.2,0.2-0.3c0.1-0.3,0.2-0.6,0.3-0.9
												c0.6-2.6,0.9-5.2,1.1-7.5l0-0.1l0,0c0.8-1,1.5-2.1,2.1-3c0.3-0.5,0.6-1,0.9-1.4c0.2-0.2,0.2-0.5,0.3-0.7
												c0-0.2,0.1-0.5,0-0.7c-0.2-0.9-1.1-1.4-1.7-1.8c-0.7-0.4-1.4-0.6-2-0.7l-0.2,0l0.2-0.1c0.9-0.6,1.5-1.1,1.9-1.4
												c0.4-0.3,0.6-0.5,0.6-0.5c0,0,0,0.1-0.1,0.2c-0.1,0.1-0.2,0.2-0.4,0.4c-0.4,0.4-1,0.9-1.9,1.5l0-0.2
												c0.6,0.1,1.3,0.3,2,0.7c0.4,0.2,0.7,0.4,1.1,0.7c0.3,0.3,0.7,0.7,0.8,1.2c0.1,0.3,0,0.5,0,0.8c-0.1,0.2-0.2,0.5-0.4,0.7
												c-0.3,0.5-0.6,0.9-0.9,1.4c-0.6,1-1.3,2-2.1,3.1l0-0.1c-0.2,2.3-0.4,4.8-1,7.5c-0.1,0.3-0.2,0.7-0.3,1
												c-0.1,0.2-0.1,0.4-0.4,0.5c-0.2,0.1-0.2,0.1-0.3,0.1l-0.2,0.1c-0.6,0.3-1.3,0.6-1.9,0.9c-1.3,0.7-2.6,1.4-4,2.2l-0.1,0.1
												l-0.1-0.1c-2.9-1.6-5.8-3.3-8.8-5.3c-1.5-1-3-2-4.4-3.2c-0.4-0.3-0.7-0.6-1.1-0.9c-0.3-0.3-0.7-0.6-1-1
												c-0.3-0.3-0.7-0.7-0.9-1.1c-0.1-0.2-0.3-0.4-0.4-0.6l-0.3-0.7c-1.7-4.8-3.3-9.3-4.9-13.6l0-0.1l0-0.1
												c0.9-2.2,1.8-4.3,2.7-6.2l0,0.1c-1.9-9.1-3.5-16.7-4.6-22.2c-0.5-2.7-1-4.8-1.3-6.3c-0.1-0.7-0.2-1.3-0.3-1.7
												C555.7,142.1,555.7,141.9,555.7,141.9z"/>
										</g>
									</g>
								</g>
							</g>
						</g>
						<g>
							<g>
								<g>
									<g>
										<g>
											<path class="st9" d="M589.2,184.2c0,0-0.3,0.2-0.8,0.3c-0.5,0.2-1.3,0.4-2.3,0.4c-0.5,0-1.1-0.1-1.6-0.4
												c-0.5-0.3-1.1-0.6-1.6-0.9c-1.1-0.7-2.2-1.6-3.4-2.4c-2.4-1.7-4.7-3.1-6.4-4.2c-1.6-1-2.6-1.7-2.6-1.8
												c0-0.1,1.1,0.5,2.8,1.5c1.7,1,4,2.3,6.5,4c1.2,0.8,2.3,1.7,3.4,2.5c1.1,0.7,2,1.3,3,1.4c0.9,0.1,1.7-0.1,2.2-0.2
												C588.9,184.3,589.2,184.2,589.2,184.2z"/>
										</g>
									</g>
								</g>
							</g>
						</g>
						<g>
							<g>
								<g>
									<g>
										<g>
											<path class="st9" d="M589.4,192.9c0,0-0.3,0.2-1,0.2c-0.7,0.1-1.7,0-2.8-0.5c-2.1-1.1-4.9-2.7-7.7-4.9
												c-2.8-2.2-5.1-4.5-6.8-6.1c-0.8-0.8-1.5-1.5-1.9-2c-0.4-0.5-0.7-0.8-0.6-0.8c0.1-0.1,1.1,0.9,2.8,2.5
												c1.7,1.6,4.1,3.8,6.8,5.9c2.8,2.2,5.6,3.8,7.6,5c1,0.5,1.9,0.6,2.6,0.6C589.1,192.9,589.4,192.9,589.4,192.9z"/>
										</g>
									</g>
								</g>
							</g>
						</g>
					</g>
					<g class="st11">
						<g>
							<g>
								<g>
									<g>
										<path d="M570.7,175.4c1,1.6,2.4,2.8,3.8,4c2.2,1.9,4.4,3.9,6.6,5.8c1.3,1.1,2.8,2.3,4.4,2.1c0.9-0.1,1.6-0.6,2.3-1.1
											c0.6-0.4,1.4-1.1,1.2-1.9c-1.8,0.7-4,0.5-5.7-0.6c-0.7-0.5-1.4-1.1-2-1.6c-3.1-2.7-6.9-4.6-10.6-6.5"/>
									</g>
								</g>
							</g>
						</g>
					</g>
				</g>
				<g>
					<g>
						<g>
							<g>
								<g>
									<path class="st13" d="M517.4,187.7c0,0-0.5,0.1-1.3,0.2c-1,0.1-2.2,0.1-3.6,0.2c-1.6,0.1-3.4,0.2-5.3,0.3
										c-1,0-2.1,0.1-3.1,0.1c-0.6,0-1.1-0.2-1.7-0.3c-0.5-0.1-1.1-0.3-1.7-0.4c-2.3-0.6-4.5-1.2-6.5-1.7l0.1,0
										c-3,0.3-5.5,0.5-7.2,0.6c-0.8,0.1-1.5,0.1-2.1,0.1c-0.5,0-0.7,0-0.7,0c0,0,0.3-0.1,0.7-0.2c0.6-0.1,1.2-0.2,2.1-0.3
										c1.8-0.2,4.3-0.5,7.2-0.8l0,0l0,0c2,0.5,4.2,1.1,6.5,1.7c0.6,0.1,1.1,0.3,1.7,0.4c0.5,0.1,1.1,0.3,1.6,0.3
										c1.1,0,2.1-0.1,3.1-0.1c2-0.1,3.8-0.1,5.3-0.1c1.4,0,2.6,0,3.6,0C516.9,187.7,517.4,187.7,517.4,187.7z"/>
								</g>
							</g>
						</g>
					</g>
				</g>
			</g>
		</g>
		<g>
			<g>
				<g>
					<g>
						<g>
							<path class="st9" d="M555.7,124.7c0,0,0.1-0.4,0.5-1c0.4-0.6,1-1.5,1.9-2.4c0.9-1,2-2,3.4-3.1c1.3-1.1,2.8-2.4,4.7-3.1
								c1.9-0.7,3.9-0.7,5.6-0.6c1.7,0.1,3.2,0.5,4.5,0.7c1.3,0.2,2.3,0.4,3,0.6c0.7,0.2,1.1,0.3,1.1,0.3c0,0-0.4,0-1.1-0.1
								c-0.7-0.1-1.8-0.2-3-0.4c-1.3-0.2-2.8-0.5-4.5-0.6c-1.7-0.1-3.6-0.1-5.4,0.6c-1.8,0.7-3.3,1.9-4.6,2.9
								c-1.3,1.1-2.5,2.1-3.4,3C556.6,123.3,555.8,124.7,555.7,124.7z"/>
						</g>
					</g>
				</g>
			</g>
		</g>
	</g>
</g>
</svg>
