<?xml version="1.0" encoding="utf-8"?>
<!-- Generator: Adobe Illustrator 27.0.0, SVG Export Plug-In . SVG Version: 6.00 Build 0)  -->
<svg version="1.1" xmlns="http://www.w3.org/2000/svg" xmlns:xlink="http://www.w3.org/1999/xlink" x="0px" y="0px"
	 viewBox="0 0 500 443.5" style="enable-background:new 0 0 500 443.5;" xml:space="preserve">
<style type="text/css">
	.st0{fill:#DF2D22;}
	.st1{fill:#323139;}
	.st2{fill:#201F27;}
</style>
<g id="BACKGROUND">
</g>
<g id="OBJECTS">
	<g>
		<g>
			<g>
				<path class="st0" d="M445.5,173.4c-19.1,0-35.6,11.3-43.2,27.6h-60.5v39.9h60.5c7.5,16.3,24,27.6,43.2,27.6
					c26.3,0,47.6-21.3,47.6-47.6C493.1,194.7,471.8,173.4,445.5,173.4z M401.7,229.7c-4.8,0-8.7-3.9-8.7-8.7c0-4.8,3.9-8.7,8.7-8.7
					c4.8,0,8.7,3.9,8.7,8.7C410.4,225.8,406.5,229.7,401.7,229.7z M467.7,233.9l-21.9,13l-21.9-13V208l21.9-13l21.9,13V233.9z"/>
			</g>
			<g>
				<path class="st0" d="M144.3,201H92.8c-7.5-16.3-24-27.6-43.2-27.6c-18.8,0-35,10.9-42.7,26.7h35.2l16.6,22.5l-16.6,22.5H8.7
					c8.3,14,23.5,23.4,40.9,23.4c19.2,0,35.6-11.3,43.2-27.6h51.5V201z M97.2,229.7c-4.8,0-8.7-3.9-8.7-8.7c0-4.8,3.9-8.7,8.7-8.7
					c4.8,0,8.7,3.9,8.7,8.7C106,225.8,102,229.7,97.2,229.7z"/>
			</g>
		</g>
	</g>
	<g>
		<g>
			<path class="st0" d="M381.7,181.6c-2.3,0-4.5-1.5-5.3-3.8C357.9,123.5,307,87,249.6,87c-56.3,0-107,35.6-126.1,88.6
				c-0.4,1.1-1.2,2.1-2.2,2.8c-1.3,0.9-2.9,1.2-4.5,0.8c-3-0.8-4.8-3.8-4.1-6.8l0,0c0.1-0.3,0.2-0.5,0.3-0.8
				c20.7-57.3,75.6-95.7,136.5-95.7c62.2,0,117.5,39.6,137.5,98.4c1,2.9-0.6,6.1-3.5,7.1C382.9,181.5,382.3,181.6,381.7,181.6z"/>
		</g>
		<g>
			<path class="st0" d="M249.6,366.3c-61,0-115.8-38.5-136.5-95.7c-0.1-0.2-0.2-0.5-0.3-0.8c-0.8-3,1-6.1,4-6.9
				c2.7-0.7,5.5,0.7,6.6,3.3c0,0.1,0.1,0.2,0.1,0.3c19.1,53,69.7,88.6,126.1,88.6c57.4,0,108.4-36.5,126.8-90.8
				c1-2.9,4.2-4.5,7.1-3.5c2.9,1,4.5,4.2,3.5,7.1C367,326.7,311.8,366.3,249.6,366.3z"/>
		</g>
	</g>
	<g>
		<g>
			<path class="st1" d="M445.2,144.8c-1.9,0-3.8-1-4.9-2.8l-23.1-40l-29.5,17c-2.4,1.4-5.5,0.8-7.2-1.4c-7.7-9.7-16.4-18.6-26-26.3
				c-2.1-1.7-2.7-4.8-1.3-7.2l17.2-29.8l-35.1-20.3l-17,29.5c-1.4,2.4-4.4,3.5-7,2.4c-11.5-4.6-23.5-7.9-35.7-9.8
				c-2.7-0.4-4.8-2.8-4.8-5.6V16.3h-40.5v34.1c0,2.8-2.1,5.2-4.8,5.6c-12.2,1.8-24.3,4.9-35.8,9.3c-2.6,1-5.5,0-6.9-2.4L165.7,33
				l-35.1,20.3l17,29.5c1.4,2.4,0.8,5.5-1.4,7.2c-9.7,7.7-18.6,16.4-26.3,26c-1.7,2.1-4.8,2.7-7.2,1.3L83,100.1l-23.1,40
				c-1.6,2.7-5,3.6-7.7,2.1c-2.7-1.6-3.6-5-2.1-7.7L76,89.6c0.7-1.3,2-2.2,3.4-2.6c1.4-0.4,3-0.2,4.3,0.6l30.6,17.7
				c6.5-7.5,13.6-14.6,21.2-20.9L118.1,54c-1.6-2.7-0.6-6.1,2.1-7.7L165,20.4c2.7-1.6,6.1-0.6,7.7,2.1l17.6,30.6
				c9.4-3.3,19.1-5.8,28.9-7.5V10.6c0-3.1,2.5-5.6,5.6-5.6h51.8c3.1,0,5.6,2.5,5.6,5.6v35.3c9.8,1.8,19.4,4.5,28.8,7.9l17.4-30.2
				c1.6-2.7,5-3.6,7.7-2.1l44.8,25.9c1.3,0.7,2.2,2,2.6,3.4c0.4,1.4,0.2,3-0.6,4.3l-17.7,30.6c7.6,6.5,14.6,13.6,20.9,21.2
				l30.2-17.5c2.7-1.6,6.1-0.6,7.7,2.1l25.9,44.8c1.6,2.7,0.6,6.1-2.1,7.7C447.1,144.6,446.2,144.8,445.2,144.8z"/>
		</g>
		<g>
			<path class="st1" d="M276.6,437h-51.8c-3.1,0-5.6-2.5-5.6-5.6v-34.9c-9.8-1.7-19.5-4.2-28.9-7.5l-17.6,30.6
				c-0.7,1.3-2,2.2-3.4,2.6c-1.4,0.4-3,0.2-4.3-0.6l-44.8-25.9c-2.7-1.6-3.6-5-2.1-7.7l17.5-30.2c-7.6-6.4-14.8-13.4-21.2-20.9
				l-30.6,17.7c-1.3,0.7-2.8,0.9-4.3,0.6c-1.4-0.4-2.7-1.3-3.4-2.6l-25.9-44.8c-1.6-2.7-0.6-6.1,2.1-7.7c2.7-1.6,6.1-0.6,7.7,2.1
				L83,342l29.8-17.2c2.4-1.4,5.4-0.8,7.2,1.3c7.8,9.6,16.6,18.3,26.3,26c2.2,1.7,2.8,4.8,1.4,7.2l-17,29.5l35.1,20.3l17.2-29.8
				c1.4-2.4,4.3-3.4,6.9-2.4c11.5,4.4,23.6,7.6,35.8,9.3c2.8,0.4,4.8,2.8,4.8,5.6v34.1h40.5v-34.4c0-2.8,2-5.1,4.7-5.6
				c12.2-1.9,24.2-5.2,35.7-9.8c2.6-1,5.6,0,7,2.4l17,29.5l35.1-20.3l-17.2-29.8c-1.4-2.4-0.8-5.4,1.3-7.2
				c9.6-7.8,18.3-16.6,26-26.3c1.7-2.2,4.8-2.8,7.2-1.4l29.5,17l23.1-40c1.6-2.7,5-3.6,7.7-2.1c2.7,1.6,3.6,5,2.1,7.7l-25.9,44.8
				c-0.7,1.3-2,2.2-3.4,2.6c-1.4,0.4-3,0.2-4.3-0.6l-30.2-17.5c-6.4,7.6-13.4,14.8-20.9,21.2l17.7,30.6c0.7,1.3,0.9,2.8,0.6,4.3
				c-0.4,1.4-1.3,2.7-2.6,3.4l-44.8,25.9c-1.3,0.7-2.8,1-4.3,0.6c-1.4-0.4-2.7-1.3-3.4-2.6L311,388.2c-9.4,3.4-19,6.1-28.8,7.9v35.3
				C282.2,434.5,279.7,437,276.6,437z"/>
		</g>
	</g>
	<g>
		<g>
			<g>
				<path class="st2" d="M294.8,254.4c0,9.8,7.9,17.7,17.7,17.7c9.8,0,17.7-7.9,17.7-17.7v-85.6c0-0.4,0-0.9,0-1.4
					c0.1-3.4,0.3-10.5-3.1-14c-1.6-1.6-4-2.4-7.3-2.4c-5.4,0-9.5,1.5-13.5,3c-6.5,2.4-14.5,5.3-23-3.5c-7.9-8.1-17.7-7-23.6-2.5
					c-9.7,7.5-18,8.6-34.1,4.3c-9.4-2.5-13.6,1.2-20.1,6.8c-1.4,1.2-2.8,2.4-4.2,3.5c-7.9,6.3-13.6,3.5-18.2,1.2
					c-2.8-1.4-5.7-2.8-10.3-3.3c-4.5-0.5-8.9,1-12.4,4.1c-3.4,3-5.5,7.3-5.5,11.3v71.6c0,9.8,7.9,17.7,17.7,17.7
					c9.8,0,17.7-7.9,17.7-17.7v-44.7c0-3.1,2.5-5.6,5.6-5.6c3.1,0,5.6,2.5,5.6,5.6v44.7v4.4v2.6c0,9.8,7.9,17.7,17.7,17.7
					c9.8,0,17.7-7.9,17.7-17.7c0-0.1,0-0.2,0-0.3v-51.4c0-3.1,2.5-5.6,5.6-5.6c3.1,0,5.6,2.5,5.6,5.6v52.4
					c0.3,9.5,8.1,17.1,17.7,17.1c9.4,0,17.1-7.4,17.6-16.6v-52.8c0-3.1,2.5-5.6,5.6-5.6c3.1,0,5.6,2.5,5.6,5.6v51.2
					C294.7,254.1,294.8,254.2,294.8,254.4z"/>
			</g>
			<g>
				<path class="st2" d="M341.1,258.4c-2,14.1-14,24.9-28.6,24.9c-9.6,0-18.1-4.7-23.3-11.8c-5.3,7.2-13.8,11.8-23.3,11.8
					c-6.2,0-11.8-1.9-16.5-5.2v4.1c0,11.5,9.3,20.8,20.8,20.8h60c11.6,0,21-9.4,21-21v-23.7H341.1z"/>
			</g>
		</g>
		<g>
			<g>
				<path class="st2" d="M256,40.2c0,3.4-2.7,6.1-6.1,6.1c-3.4,0-6.1-2.7-6.1-6.1c0-3.4,2.7-6.1,6.1-6.1
					C253.3,34.1,256,36.8,256,40.2z"/>
			</g>
			<g>
				<path class="st2" d="M345.1,68.8c0,3.4-2.7,6.1-6.1,6.1s-6.1-2.7-6.1-6.1c0-3.4,2.7-6.1,6.1-6.1S345.1,65.5,345.1,68.8z"/>
			</g>
			<g>
				<path class="st2" d="M169.3,68.8c0,3.4-2.7,6.1-6.1,6.1c-3.4,0-6.1-2.7-6.1-6.1c0-3.4,2.7-6.1,6.1-6.1
					C166.6,62.8,169.3,65.5,169.3,68.8z"/>
			</g>
			<g>
				<path class="st2" d="M100.1,140.4c0,3.4-2.7,6.1-6.1,6.1c-3.4,0-6.1-2.7-6.1-6.1c0-3.4,2.7-6.1,6.1-6.1
					C97.4,134.3,100.1,137.1,100.1,140.4z"/>
			</g>
			<g>
				<path class="st2" d="M408.3,140.4c0,3.4-2.7,6.1-6.1,6.1c-3.4,0-6.1-2.7-6.1-6.1c0-3.4,2.7-6.1,6.1-6.1
					C405.6,134.3,408.3,137.1,408.3,140.4z"/>
			</g>
		</g>
		<g>
			<g>
				<path class="st2" d="M256,401.9c0-3.4-2.7-6.1-6.1-6.1c-3.4,0-6.1,2.7-6.1,6.1c0,3.4,2.7,6.1,6.1,6.1
					C253.3,407.9,256,405.2,256,401.9z"/>
			</g>
			<g>
				<path class="st2" d="M345.1,373.2c0-3.4-2.7-6.1-6.1-6.1s-6.1,2.7-6.1,6.1c0,3.4,2.7,6.1,6.1,6.1S345.1,376.6,345.1,373.2z"/>
			</g>
			<g>
				<path class="st2" d="M169.3,373.2c0-3.4-2.7-6.1-6.1-6.1c-3.4,0-6.1,2.7-6.1,6.1c0,3.4,2.7,6.1,6.1,6.1
					C166.6,379.3,169.3,376.6,169.3,373.2z"/>
			</g>
			<g>
				<path class="st2" d="M100.1,301.6c0-3.4-2.7-6.1-6.1-6.1c-3.4,0-6.1,2.7-6.1,6.1c0,3.4,2.7,6.1,6.1,6.1
					C97.4,307.7,100.1,305,100.1,301.6z"/>
			</g>
			<g>
				<path class="st2" d="M408.3,301.6c0-3.4-2.7-6.1-6.1-6.1c-3.4,0-6.1,2.7-6.1,6.1c0,3.4,2.7,6.1,6.1,6.1
					C405.6,307.7,408.3,305,408.3,301.6z"/>
			</g>
		</g>
	</g>
</g>
<g id="TEXTS">
</g>
</svg>
