<?xml version="1.0" encoding="utf-8"?>
<!-- Generator: Adobe Illustrator 27.0.0, SVG Export Plug-In . SVG Version: 6.00 Build 0)  -->
<svg version="1.1" xmlns="http://www.w3.org/2000/svg" xmlns:xlink="http://www.w3.org/1999/xlink" x="0px" y="0px"
	 viewBox="0 0 391.3 177.7" style="enable-background:new 0 0 391.3 177.7;" xml:space="preserve">
<style type="text/css">
	.st0{display:none;}
	.st1{display:inline;}
	.st2{fill:#F5F5F5;}
	.st3{clip-path:url(#SVGID_00000061472623779374329830000005247345868854192016_);}
	.st4{fill:#FFFFFF;}
	.st5{fill:#E0E0E0;}
	.st6{fill:#263238;}
	.st7{fill:#EBEBEB;}
	.st8{fill:#FAFAFA;}
	.st9{fill:#FF725E;}
	.st10{fill:#455A64;}
	.st11{font-family:'MyriadPro-Regular';}
	.st12{font-size:12px;}
	.st13{opacity:0.3;}
	.st14{opacity:0.6;}
	.st15{fill:#B78876;}
	.st16{fill:#AA6550;}
</style>
<g id="Background_Complete">
</g>
<g id="Background_Simple" class="st0">
	<g class="st1">
		<path class="st2" d="M383.4,29.3l-2.4-4c-20.5-33.8-57.6-54.2-96.7-51.7c-5,0.3-10,1-15,2.1c-35.6,7.6-66.5,34.5-79.3,68.9
			c-7.5,20.3-9.6,43.6-24,59.6c-18.6,20.9-50.3,21.6-78.1,20.7c-27.8-0.9-59.4-0.1-78,20.9c-11.6,13.2-15.3,31.9-14.4,49.5
			c2.5,46.6,35,88.3,76.3,109.1c41.3,20.7,90,22.6,135.2,13.5c63.4-12.8,123.6-47.9,159.9-102C403.2,161.6,412.4,87.7,383.4,29.3z"
			/>
	</g>
	<g class="st1">
		
			<ellipse transform="matrix(0.1701 -0.9854 0.9854 0.1701 -55.4867 599.6074)" class="st2" cx="328.3" cy="332.7" rx="27.1" ry="27.1"/>
	</g>
</g>
<g id="Floor">
</g>
<g id="Screen">
</g>
<g id="Plant">
</g>
<g id="Character">
	<g>
		<defs>
			<rect id="SVGID_1_" x="0" width="391" height="177.7"/>
		</defs>
		<clipPath id="SVGID_00000002348763559639545650000003903665883960560036_">
			<use xlink:href="#SVGID_1_"  style="overflow:visible;"/>
		</clipPath>
		<g style="clip-path:url(#SVGID_00000002348763559639545650000003903665883960560036_);">
			<g>
				<g>
					<path class="st2" d="M430.9,224.8c0-9.9-9-17.7-19.2-15.8c-6.5,1.2-11.6,6.5-12.7,13c-0.7,4,0.1,7.9,2,11h0l0,0.1
						c0.6,1,1.4,1.8,2.2,2.9l9.4,12.4c1.2,1.5,3.5,1.5,4.6,0l9.2-12.2c0,0,1.7-2,2.3-3.1l0,0h0C430.1,230.5,430.9,227.8,430.9,224.8
						z M414.8,231.8c-3.9,0-7.1-3.2-7.1-7.1c0-3.9,3.2-7.1,7.1-7.1c3.9,0,7.1,3.2,7.1,7.1C421.9,228.6,418.7,231.8,414.8,231.8z"/>
				</g>
			</g>
			<g>
				<g>
					<g>
						
							<ellipse transform="matrix(0.7071 -0.7071 0.7071 0.7071 -127.0359 339.9683)" class="st2" cx="346.9" cy="323.3" rx="40.3" ry="40.3"/>
					</g>
				</g>
				<g>
					<g>
						<path class="st4" d="M346.9,356.9c-18.5,0-33.6-15.1-33.6-33.6s15.1-33.6,33.6-33.6s33.6,15.1,33.6,33.6
							S365.4,356.9,346.9,356.9z M346.9,295.5c-15.3,0-27.8,12.5-27.8,27.8s12.5,27.8,27.8,27.8c15.3,0,27.8-12.5,27.8-27.8
							S362.2,295.5,346.9,295.5z"/>
					</g>
				</g>
				<g>
					<g>
						<path class="st4" d="M346.6,334.8c-6.8,0-12.4-5.5-12.4-12.4c0-6.8,5.5-12.4,12.4-12.4c6.8,0,12.4,5.5,12.4,12.4
							C359,329.3,353.5,334.8,346.6,334.8z M346.6,315.8c-3.7,0-6.6,3-6.6,6.6c0,3.6,3,6.6,6.6,6.6c3.7,0,6.6-3,6.6-6.6
							C353.3,318.8,350.3,315.8,346.6,315.8z"/>
					</g>
				</g>
				<g>
					<g>
						<polygon class="st5" points="346.6,322.4 331,322.4 333.7,327.3 296.9,344.1 298.2,346.2 335.1,329.5 337.6,334.3 						"/>
					</g>
				</g>
				<g>
					<g>
						<path class="st5" d="M296.9,344.1l-0.4-0.4c-1.9-1.9-4.7-2.6-7.3-1.8l-14.7,4.3l8.2,3.6l-3.3,8.7l13.8-4.9
							c3.1-1.1,5.1-4.1,5-7.4l0,0L296.9,344.1z"/>
					</g>
				</g>
			</g>
			<g>
				<g>
					<g>
						<g>
							<path class="st5" d="M118.9,352.6c0,0,0.1,0,0.3-0.1c0.2-0.1,0.5-0.1,0.9-0.3c0.8-0.2,1.9-0.5,3.3-1c2.9-0.8,7.2-2,12.5-3.5
								l-0.1,0.2c-0.6-2.1-1.4-4.5-2.1-7.1l0-0.1l0.1-0.1c3.1-2.6,6.2-6.1,8.7-10.3c1.2-2.1,2.2-4.5,2.9-7c0.7-2.5,0.8-5.3,0.5-8
								c-0.9-5.4-3.6-11-8.2-15c-4.5-4-10.6-6.7-17-7.3c-4.8-0.5-9.6,0.6-13.7,2.7c-4.2,2-7.6,5.1-10.2,8.6
								c-2.6,3.5-3.9,7.7-4.4,11.6c-0.1,1-0.2,2-0.2,3c0,1,0.1,2,0.1,2.9c0.2,1.9,0.5,3.8,1,5.5c0.5,1.8,1.2,3.4,2,4.9
								c0.8,1.5,1.8,2.9,2.9,4.1c2.1,2.4,4.6,4.3,7,5.6c4.8,2.7,9.2,3.8,12.4,4.3l0.1,0l0,0.1c0.4,2,0.7,3.5,1,4.5
								c0.1,0.5,0.2,0.9,0.2,1.2C118.9,352.4,118.9,352.6,118.9,352.6c0,0,0-0.1-0.1-0.4c-0.1-0.3-0.2-0.7-0.3-1.1
								c-0.2-1.1-0.6-2.6-1.1-4.6l0.1,0.1c-3.2-0.4-7.7-1.5-12.5-4.2c-2.4-1.4-4.9-3.2-7.1-5.7c-1.1-1.2-2.1-2.6-3-4.1
								c-0.8-1.5-1.6-3.2-2.1-5c-0.5-1.8-0.8-3.7-1-5.6c0-1-0.1-2-0.1-3c0-1,0.1-2,0.2-3c0.5-4.1,1.8-8.3,4.4-11.9
								c2.6-3.6,6.1-6.7,10.4-8.8c4.2-2.1,9.1-3.3,14-2.8c6.6,0.6,12.7,3.4,17.3,7.5c2.3,2.1,4.2,4.5,5.6,7.1c0.4,0.6,0.7,1.3,1,2
								c0.3,0.7,0.6,1.3,0.8,2c0.2,0.7,0.4,1.4,0.6,2.1c0.1,0.7,0.3,1.4,0.4,2.1c0.3,2.8,0.2,5.6-0.5,8.2c-0.7,2.6-1.7,5-3,7.1
								c-2.6,4.3-5.7,7.7-8.9,10.3l0.1-0.2c0.8,2.6,1.5,5,2.1,7.1l0,0.2l-0.2,0c-5.4,1.4-9.7,2.6-12.6,3.4c-1.4,0.4-2.5,0.7-3.3,0.9
								c-0.4,0.1-0.6,0.2-0.8,0.2C119,352.6,118.9,352.6,118.9,352.6z"/>
						</g>
					</g>
				</g>
				<g>
					<g>
						<g>
							<path class="st5" d="M137.5,352.6c0,0.1-3.9,1.3-8.7,2.7c-4.8,1.3-8.8,2.3-8.8,2.1c0-0.1,3.9-1.3,8.7-2.7
								C133.5,353.4,137.5,352.5,137.5,352.6z"/>
						</g>
					</g>
				</g>
				<g>
					<g>
						<g>
							<path class="st5" d="M133.7,360.8c0.1,0.1-1.3,0.8-3,1.2c-1.7,0.4-3.2,0.4-3.2,0.3c0-0.2,1.4-0.4,3.1-0.8
								C132.2,361.1,133.6,360.6,133.7,360.8z"/>
						</g>
					</g>
				</g>
				<g>
					<g>
						<g>
							<path class="st5" d="M122.5,351.6c0,0,0-0.1-0.1-0.3c-0.1-0.2-0.1-0.5-0.2-0.8c-0.2-0.8-0.5-1.9-0.8-3.3
								c-0.7-2.9-1.7-7-3-12.1c-0.6-2.6-1.3-5.3-2-8.3c-0.2-0.7-0.4-1.5-0.9-2.1c-0.4-0.6-1.2-0.9-1.8-0.6c-0.6,0.3-0.9,1.1-0.9,1.9
								c0,0.8,0.4,1.5,0.9,2.2c1.1,1.2,2.9,1.8,4.6,1.5c1.7-0.2,3.3-1.4,4.1-3.1c0.8-1.6,1-3.6,0.6-5.4c-0.2-0.9-0.6-1.8-1.2-2.4
								c-0.6-0.6-1.7-0.8-2.4-0.3c-0.7,0.5-0.8,1.6-0.5,2.4c0.4,0.8,1.1,1.5,1.9,2c1.5,1.1,3.3,2,5.1,2.1c0.9,0.1,1.8,0,2.6-0.4
								c0.8-0.4,1.5-0.9,2-1.6c0.5-0.7,0.9-1.5,0.9-2.3c0.1-0.8-0.2-1.7-0.8-2.2c-0.5-0.6-1.3-0.9-2.1-0.7c-0.7,0.2-1.3,0.9-1.5,1.6
								c-0.5,1.5-0.1,3.1,0.1,4.6c0.5,3,1,5.9,1.5,8.4c1,5.1,1.9,9.3,2.5,12.2c0.3,1.4,0.5,2.5,0.7,3.3c0.1,0.4,0.1,0.6,0.2,0.9
								c0,0.2,0,0.3,0,0.3c0,0,0-0.1-0.1-0.3c-0.1-0.2-0.1-0.5-0.2-0.9c-0.2-0.8-0.4-1.9-0.8-3.3c-0.6-2.9-1.6-7-2.6-12.1
								c-0.5-2.6-1.1-5.4-1.6-8.4c-0.1-0.8-0.2-1.5-0.3-2.3c-0.1-0.8-0.1-1.7,0.2-2.5c0.3-0.8,0.9-1.6,1.8-1.9
								c0.9-0.3,2,0.1,2.6,0.8c0.6,0.7,1,1.7,0.9,2.6c0,1-0.4,1.9-1,2.6c-0.6,0.8-1.4,1.4-2.2,1.8c-0.9,0.4-1.9,0.5-2.9,0.4
								c-2-0.1-3.8-1-5.4-2.2c-0.8-0.6-1.6-1.3-2-2.3c-0.4-1-0.3-2.3,0.6-3c1-0.7,2.3-0.4,3.1,0.4c0.8,0.7,1.2,1.8,1.4,2.7
								c0.5,2,0.3,4-0.6,5.8c-0.8,1.8-2.6,3.1-4.5,3.3c-1.9,0.2-3.9-0.3-5.1-1.7c-0.6-0.7-1-1.6-1-2.5c0-0.9,0.3-1.9,1.2-2.3
								c0.4-0.2,0.9-0.2,1.4-0.1c0.4,0.2,0.8,0.5,1,0.8c0.5,0.7,0.8,1.5,0.9,2.2c0.7,3,1.4,5.8,2,8.4c1.2,5.1,2.1,9.2,2.8,12.1
								c0.3,1.4,0.6,2.5,0.7,3.3c0.1,0.4,0.1,0.6,0.2,0.9C122.5,351.5,122.5,351.6,122.5,351.6z"/>
						</g>
					</g>
				</g>
				<g>
					<g>
						<g>
							<path class="st5" d="M136.9,356.3c0,0.1-3.1,1.1-7,2.2c-3.9,1.1-7.1,1.8-7.2,1.7c0-0.1,3.1-1.1,7-2.2
								C133.6,356.9,136.8,356.2,136.9,356.3z"/>
						</g>
					</g>
				</g>
			</g>
			<g>
				<g>
					<path class="st6" d="M408.7,402.5c0,0.1-95.4,0.3-213.1,0.3c-117.7,0-213.2-0.1-213.2-0.3c0-0.1,95.4-0.3,213.2-0.3
						C313.3,402.3,408.7,402.4,408.7,402.5z"/>
				</g>
			</g>
			<g>
				<rect x="0.3" y="0.3" class="st5" width="390.9" height="25"/>
			</g>
			<g>
				<rect x="0.2" y="48.3" class="st4" width="390.9" height="219.2"/>
			</g>
			<g>
				<polygon class="st7" points="0.3,25.1 53.9,25.1 59.2,9.6 146.2,9.6 151.5,25.1 391.1,25.1 391.1,48.8 0.3,48.8 				"/>
			</g>
			<g>
				<path class="st6" d="M13.2,10.2c0,1.6-1.3,2.9-2.9,2.9c-1.6,0-2.9-1.3-2.9-2.9c0-1.6,1.3-2.9,2.9-2.9
					C11.8,7.3,13.2,8.6,13.2,10.2z"/>
			</g>
			<g>
				<path class="st6" d="M22.2,10.2c0,1.6-1.3,2.9-2.9,2.9c-1.6,0-2.9-1.3-2.9-2.9c0-1.6,1.3-2.9,2.9-2.9
					C20.9,7.3,22.2,8.6,22.2,10.2z"/>
			</g>
			<g>
				<path class="st6" d="M31.3,10.2c0,1.6-1.3,2.9-2.9,2.9c-1.6,0-2.9-1.3-2.9-2.9c0-1.6,1.3-2.9,2.9-2.9C30,7.3,31.3,8.6,31.3,10.2
					z"/>
			</g>
			<g>
				<path class="st8" d="M347.9,44.1H79.8c-4.1,0-7.4-3.3-7.4-7.4l0,0c0-4.1,3.3-7.4,7.4-7.4h268.2c4.1,0,7.4,3.3,7.4,7.4l0,0
					C355.3,40.8,352,44.1,347.9,44.1z"/>
			</g>
			<g>
				<path class="st5" d="M86.2,37.7v2.5h-1.3v-2.3c0-0.7-0.3-1-0.9-1c-0.6,0-1.1,0.4-1.1,1.2v2.2h-1.3v-6.1H83v2.1
					c0.3-0.3,0.8-0.5,1.4-0.5C85.4,35.7,86.2,36.3,86.2,37.7z"/>
				<path class="st5" d="M90.2,40c-0.3,0.2-0.6,0.3-1,0.3c-1,0-1.6-0.5-1.6-1.6v-1.8h-0.7v-1h0.7v-1.1h1.3v1.1h1.1v1h-1.1v1.8
					c0,0.4,0.2,0.6,0.5,0.6c0.2,0,0.4-0.1,0.5-0.2L90.2,40z"/>
				<path class="st5" d="M93.6,40c-0.3,0.2-0.6,0.3-1,0.3c-1,0-1.6-0.5-1.6-1.6v-1.8h-0.7v-1h0.7v-1.1h1.3v1.1h1.1v1h-1.1v1.8
					c0,0.4,0.2,0.6,0.5,0.6c0.2,0,0.4-0.1,0.5-0.2L93.6,40z"/>
				<path class="st5" d="M99.1,38c0,1.4-1,2.3-2.2,2.3c-0.5,0-1-0.2-1.3-0.5v2h-1.3v-6h1.2v0.5c0.3-0.4,0.8-0.6,1.4-0.6
					C98.2,35.7,99.1,36.6,99.1,38z M97.8,38c0-0.8-0.5-1.2-1.1-1.2c-0.6,0-1.1,0.5-1.1,1.2c0,0.8,0.5,1.2,1.1,1.2
					C97.3,39.2,97.8,38.7,97.8,38z"/>
				<path class="st5" d="M99.7,36.5c0-0.5,0.4-0.8,0.8-0.8c0.4,0,0.8,0.3,0.8,0.8c0,0.5-0.4,0.8-0.8,0.8C100,37.3,99.7,37,99.7,36.5
					z M99.7,39.4c0-0.5,0.4-0.8,0.8-0.8c0.4,0,0.8,0.3,0.8,0.8c0,0.5-0.4,0.8-0.8,0.8C100,40.2,99.7,39.9,99.7,39.4z"/>
				<path class="st5" d="M104.4,33.3h1.1l-2.7,7.7h-1.1L104.4,33.3z"/>
				<path class="st5" d="M107,33.3h1.1l-2.7,7.7h-1.1L107,33.3z"/>
			</g>
			<g>
				<g>
					<path class="st8" d="M347.7,87.7H114c-7.3,0-13.2-5.9-13.2-13.2l0,0c0-7.3,5.9-13.2,13.2-13.2h233.6c7.3,0,13.2,5.9,13.2,13.2
						l0,0C360.9,81.8,354.9,87.7,347.7,87.7z"/>
				</g>
				<g>
					<g>
						<path class="st6" d="M347.7,87.7c0-0.1,2,0.2,5.4-1.2c1.6-0.8,3.6-2,5.2-4.2c0.8-1.1,1.5-2.3,1.9-3.8c0.4-1.5,0.7-3.1,0.5-4.8
							c-0.1-1.7-0.6-3.5-1.5-5.2c-0.9-1.7-2.2-3.3-3.9-4.5c-1.7-1.3-3.8-2.1-6-2.4c-1.1-0.1-2.3-0.1-3.5-0.1c-1.2,0-2.4,0-3.6,0
							c-9.9,0-21.1,0-33.6,0c-49.8,0-118.5,0-194.5,0.1c-2.3,0-4.7,0.6-6.6,1.8c-2,1.2-3.6,2.9-4.7,4.9c-2.2,4-2.1,9.2,0.4,13.1
							c1.2,1.9,2.9,3.5,4.9,4.6c2,1,4.2,1.6,6.5,1.5c4.6,0,9.1,0,13.5,0c17.9,0,35.2,0,51.6,0c32.9,0,62.5,0,87.4,0.1
							c24.9,0,45,0.1,58.9,0.1c7,0,12.4,0,16,0c1.8,0,3.2,0,4.2,0C347.2,87.7,347.7,87.7,347.7,87.7s-0.5,0-1.4,0
							c-0.9,0-2.3,0-4.2,0c-3.7,0-9.1,0-16,0c-13.9,0-34.1,0-58.9,0.1c-24.9,0-54.5,0-87.4,0.1c-16.5,0-33.7,0-51.6,0
							c-4.5,0-9,0-13.5,0c-2.3,0.1-4.7-0.5-6.7-1.6c-2.1-1.1-3.9-2.7-5.1-4.7c-2.6-4-2.7-9.4-0.4-13.6c1.2-2.1,2.9-3.9,4.9-5.1
							c2.1-1.3,4.5-1.9,6.9-1.9c75.9,0,144.7,0.1,194.5,0.1c12.4,0,23.7,0,33.6,0c1.2,0,2.5,0,3.6,0c1.2,0,2.4,0,3.5,0.1
							c2.3,0.3,4.4,1.1,6.2,2.4c1.7,1.3,3.1,2.9,4,4.6c0.9,1.7,1.4,3.6,1.5,5.3c0.1,1.7-0.1,3.4-0.6,4.9c-0.5,1.5-1.2,2.8-2,3.9
							c-1.6,2.2-3.6,3.5-5.2,4.2c-1.7,0.8-3.1,1-4,1.1C348.1,87.7,347.7,87.7,347.7,87.7z"/>
					</g>
				</g>
			</g>
			<g>
				<g>
					<path d="M73.6,110.7c0,0.1-9.4,0.3-20.9,0.3c-11.6,0-20.9-0.1-20.9-0.3c0-0.1,9.4-0.3,20.9-0.3
						C64.3,110.4,73.6,110.5,73.6,110.7z"/>
				</g>
			</g>
			<g>
				<rect x="31.8" y="122.6" class="st9" width="43.5" height="43.5"/>
			</g>
			<g>
				<g>
					<path d="M339.7,132.9c0,0.1-54,0.3-120.6,0.3c-66.6,0-120.7-0.1-120.7-0.3s54-0.3,120.7-0.3
						C285.7,132.6,339.7,132.8,339.7,132.9z"/>
				</g>
			</g>
			<g>
				<g>
					<path d="M164.4,149.3c0,0.1-14.2,0.3-31.8,0.3c-17.6,0-31.8-0.1-31.8-0.3c0-0.1,14.2-0.3,31.8-0.3
						C150.2,149,164.4,149.1,164.4,149.3z"/>
				</g>
			</g>
			<g>
				<g>
					<path class="st5" d="M301.2,164.5c0,0.1-44.8,0.3-100.2,0.3c-55.3,0-100.2-0.1-100.2-0.3s44.8-0.3,100.2-0.3
						C256.3,164.2,301.2,164.3,301.2,164.5z"/>
				</g>
			</g>
			<g>
				<g>
					<path d="M73.6,188.6c0,0.1-9.4,0.3-20.9,0.3c-11.6,0-20.9-0.1-20.9-0.3c0-0.1,9.4-0.3,20.9-0.3
						C64.3,188.4,73.6,188.5,73.6,188.6z"/>
				</g>
			</g>
			<g>
				<rect x="31.8" y="200.6" class="st9" width="43.5" height="43.5"/>
			</g>
			<g>
				<g>
					<path d="M354.1,210.9c0,0.1-57.2,0.3-127.8,0.3c-70.6,0-127.8-0.1-127.8-0.3s57.2-0.3,127.8-0.3
						C296.8,210.6,354.1,210.7,354.1,210.9z"/>
				</g>
			</g>
			<g>
				<g>
					<path d="M164.4,227.2c0,0.1-14.2,0.3-31.8,0.3c-17.6,0-31.8-0.1-31.8-0.3c0-0.1,14.2-0.3,31.8-0.3
						C150.2,227,164.4,227.1,164.4,227.2z"/>
				</g>
			</g>
			<g>
				<g>
					<path class="st5" d="M336,242.4c0,0.1-52.7,0.3-117.6,0.3c-65,0-117.6-0.1-117.6-0.3c0-0.1,52.6-0.3,117.6-0.3
						C283.4,242.2,336,242.3,336,242.4z"/>
				</g>
			</g>
			<g>
				<g>
					<path class="st6" d="M391.1,268c0-1.7-0.1-104.8-0.2-267.8l0.2,0.2c-108.2,0-243.9,0-390.8,0.1h0l0.3-0.3
						c0,95.6,0,186.4,0,267.8l-0.2-0.2C230.8,267.9,389,268,391.1,268c-2.1,0-160.3,0.1-390.9,0.2l-0.2,0V268C0,186.6,0,95.8,0,0.3
						V0h0.3h0c146.9,0,282.6,0,390.8,0.1h0.2l0,0.2C391.2,163.2,391.1,266.3,391.1,268z"/>
				</g>
			</g>
			<g>
				<g>
					<path d="M135.7,19.7c0,0.1-13.8,0.3-30.8,0.3c-17,0-30.8-0.1-30.8-0.3s13.8-0.3,30.8-0.3C121.9,19.4,135.7,19.5,135.7,19.7z"/>
				</g>
			</g>
			<g>
				<rect x="25.3" y="68.9" class="st10" width="54.7" height="16.5"/>
			</g>
			<g>
				<g>
					<path class="st9" d="M177,112.1c0,0.1-17,0.3-38,0.3c-21,0-38-0.1-38-0.3c0-0.1,17-0.3,38-0.3C160,111.8,177,111.9,177,112.1z"
						/>
				</g>
			</g>
			<g>
				<g>
					<path class="st9" d="M177,188.6c0,0.1-17,0.3-38,0.3c-21,0-38-0.1-38-0.3c0-0.1,17-0.3,38-0.3C160,188.4,177,188.5,177,188.6z"
						/>
				</g>
			</g>
			<g>
				<g>
					<path class="st9" d="M342.6,78.9c-3.5,0-6.4-2.9-6.4-6.4c0-3.5,2.9-6.4,6.4-6.4c3.5,0,6.4,2.9,6.4,6.4
						C349,76.1,346.1,78.9,342.6,78.9z M342.6,67.2c-3,0-5.4,2.4-5.4,5.4c0,3,2.4,5.4,5.4,5.4c3,0,5.4-2.4,5.4-5.4
						C348,69.6,345.6,67.2,342.6,67.2z"/>
				</g>
				<g>
					<path class="st9" d="M350.4,81.7c-0.1,0-0.3,0-0.4-0.1l-4.1-4.1c-0.2-0.2-0.2-0.5,0-0.7c0.2-0.2,0.5-0.2,0.7,0l4.1,4.1
						c0.2,0.2,0.2,0.5,0,0.7C350.7,81.7,350.6,81.7,350.4,81.7z"/>
				</g>
			</g>
			<g>
				<g>
					<path d="M245.5,148.2c0,0.1-16.4,0.3-36.6,0.3c-20.2,0-36.6-0.1-36.6-0.3s16.4-0.3,36.6-0.3C229.1,147.9,245.5,148,245.5,148.2
						z"/>
				</g>
			</g>
			<g>
				<g>
					<path d="M292.7,147c0,0.1-8.6,0.3-19.1,0.3c-10.6,0-19.1-0.1-19.1-0.3s8.6-0.3,19.1-0.3C284.2,146.8,292.7,146.9,292.7,147z"/>
				</g>
			</g>
			<g>
				<g>
					<path d="M245.1,227.2c0,0.1-16.4,0.3-36.6,0.3c-20.2,0-36.6-0.1-36.6-0.3c0-0.1,16.4-0.3,36.6-0.3
						C228.7,227,245.1,227.1,245.1,227.2z"/>
				</g>
			</g>
			<text transform="matrix(1 0 0 1 112.1504 77.6703)" class="st5 st11 st12">Buscar..</text>
			<g>
				<g>
					<path class="st10" d="M48.8,247.8c-8.1,4.2-14.3,11.4-18.8,19.4c-4.5,8-7.4,16.7-10.2,25.4l-2.5,44.8
						c9.4-16.1,17-34.9,19.1-53.5c-2.1-0.2-4.2-0.4-6.3-0.6c4.2-0.6,7.7-3.7,10-7.3c2.2-3.6,3.4-7.8,4.5-11.9
						c-2.6,0.4-5.1,0.8-7.7,1.1C42.9,261.3,47.3,254.9,48.8,247.8z"/>
				</g>
				<g class="st13">
					<g>
						<path d="M48.8,247.8c-8.1,4.2-14.3,11.4-18.8,19.4c-4.5,8-7.4,16.7-10.2,25.4l-2.5,44.8c9.4-16.1,17-34.9,19.1-53.5
							c-2.1-0.2-4.2-0.4-6.3-0.6c4.2-0.6,7.7-3.7,10-7.3c2.2-3.6,3.4-7.8,4.5-11.9c-2.6,0.4-5.1,0.8-7.7,1.1
							C42.9,261.3,47.3,254.9,48.8,247.8z"/>
					</g>
				</g>
				<g>
					<path class="st10" d="M15.9,347.9c0,0-20.5-24.5-20.3-47.9h8.3c0,0-9-5.9-8.3-9.2c0.7-3.3,0.9-15.8,0.9-15.8l7.6,1.9
						c0,0-5.7-2.8-6.4-7.3c-0.7-4.5,1.7-25.3,1.7-25.3s9.2,9.7,12.1,19.6c2.8,9.9,10.3,21.5,8.1,51.8
						C17.4,345.8,15.9,347.9,15.9,347.9z"/>
				</g>
				<g>
					<path class="st10" d="M26.3,350.2c0,0,22.2-14.8,27.1-33.7l-6.7-1.8c0,0,8.5-2.8,8.7-5.6c0.2-2.8,2.7-12.9,2.7-12.9l-6.5-0.1
						c0,0,5.2-1,6.7-4.5c1.6-3.5,4.2-20.7,4.2-20.7s-9.5,5.8-14,13.1c-4.5,7.4-13,15.1-17.8,39.9C25.9,348.6,26.3,350.2,26.3,350.2z
						"/>
				</g>
				<g>
					<g>
						<path class="st6" d="M5,265.5c0,0,0,0.1,0.1,0.3c0,0.2,0.1,0.4,0.2,0.8c0.2,0.7,0.4,1.7,0.7,2.9c0.6,2.5,1.3,6.2,2.2,10.7
							c1.7,9.1,3.8,21.7,5.4,35.8c1.6,14,2.5,26.8,2.9,36.1c0.2,4.6,0.3,8.4,0.3,11c0,1.3,0,2.3,0,3c0,0.3,0,0.6,0,0.8
							c0,0.2,0,0.3,0,0.3c0,0,0-0.1,0-0.3c0-0.2,0-0.5,0-0.8c0-0.7-0.1-1.7-0.1-3c-0.1-2.6-0.2-6.3-0.5-11c-0.5-9.2-1.4-22-3-36
							c-1.6-14-3.6-26.7-5.3-35.8c-0.8-4.6-1.5-8.2-2-10.8c-0.2-1.2-0.4-2.2-0.6-2.9c-0.1-0.3-0.1-0.6-0.1-0.8
							C5,265.6,5,265.5,5,265.5z"/>
					</g>
				</g>
				<g>
					<path class="st10" d="M13,362.9c0,0-18.8-21.3-24.6-34.1l4.4-1.9c-3.2,0.5-6.4-0.8-8.9-2.9c-2.5-2.1-4.3-4.8-6.1-7.5l5.8-1
						c-5.3-1.5-9.9-5.1-12.7-9.8c6.8,1.1,13,4.9,18.1,9.6c4.1,3.8,7.6,8.2,11,12.7c1.6,2.2,3.1,4.5,4.3,7
						C7.5,341.5,13,355.1,13,362.9z"/>
				</g>
				<g>
					<g>
						<path class="st6" d="M53.7,283.2c0,0,0,0.1-0.1,0.2c-0.1,0.2-0.2,0.4-0.3,0.6c-0.3,0.6-0.7,1.4-1.1,2.4c-1,2-2.4,5-4.1,8.7
							c-3.4,7.4-8,17.7-12.5,29.2c-4.5,11.6-8,22.3-10.5,30c-1.2,3.9-2.2,7-2.8,9.2c-0.3,1.1-0.6,1.9-0.8,2.5
							c-0.1,0.3-0.2,0.5-0.2,0.6c0,0.1-0.1,0.2-0.1,0.2c0,0,0-0.1,0-0.2c0-0.2,0.1-0.4,0.2-0.7c0.2-0.6,0.4-1.5,0.7-2.5
							c0.6-2.2,1.5-5.4,2.6-9.3c2.3-7.8,5.8-18.5,10.3-30.1c4.5-11.6,9.1-21.9,12.6-29.2c1.8-3.7,3.2-6.6,4.3-8.6
							c0.5-1,0.9-1.8,1.2-2.3c0.1-0.2,0.2-0.4,0.3-0.6C53.6,283.3,53.7,283.2,53.7,283.2z"/>
					</g>
				</g>
				<g>
					<g>
						<path class="st6" d="M14.6,372c0,0-0.1-0.5-0.3-1.5c-0.2-1-0.4-2.4-0.8-4.1c-0.7-3.5-1.9-8.2-3.8-13.3
							c-1.9-5.1-4.2-9.4-5.9-12.5c-0.9-1.5-1.6-2.8-2.2-3.6c-0.5-0.8-0.8-1.3-0.8-1.3c0,0,0.4,0.4,0.9,1.2c0.6,0.8,1.4,2,2.3,3.5
							c1.9,3,4.2,7.4,6.1,12.5c1.9,5.1,3.1,9.9,3.7,13.4c0.3,1.8,0.5,3.2,0.6,4.2C14.6,371.4,14.7,372,14.6,372z"/>
					</g>
				</g>
				<g>
					<rect x="-1.7" y="367" class="st9" width="41" height="8.4"/>
				</g>
				<g>
					<polygon class="st9" points="2.2,375.4 6.7,403.5 31.5,403.5 35.6,375.4 					"/>
				</g>
				<g>
					<g>
						<path class="st6" d="M36.8,375.4c0,0.1-7.8,0.3-17.3,0.3c-9.6,0-17.3-0.1-17.3-0.3c0-0.1,7.8-0.3,17.3-0.3
							C29.1,375.1,36.8,375.2,36.8,375.4z"/>
					</g>
				</g>
			</g>
			<g>
				<g>
					<g>
						<g>
							<g>
								<g>
									<g>
										<g>
											<g>
												<g>
													<g>
														<g>
															<g>
																<g>
																	<path class="st10" d="M215.6,382.7v20.8l41.9-0.2c-0.3-4.2-23.3-12.6-23.3-12.6l0.5-8H215.6z"/>
																</g>
															</g>
														</g>
													</g>
												</g>
											</g>
										</g>
									</g>
								</g>
							</g>
							<g class="st14">
								<g>
									<g>
										<g>
											<g>
												<g>
													<g>
														<g>
															<g>
																<g>
																	<g>
																		<path class="st4" d="M222.4,388.8c-0.8,0.2-1.3,1.2-1.1,2.1c0.2,0.9,1.1,1.5,1.9,1.2c0.8-0.2,1.5-1.4,1.2-2.2
																			c-0.3-0.8-1.4-1.5-2.1-1"/>
																	</g>
																</g>
															</g>
														</g>
													</g>
												</g>
											</g>
										</g>
									</g>
								</g>
							</g>
							<g>
								<g>
									<g>
										<g>
											<g>
												<g>
													<g>
														<g>
															<g>
																<g>
																	<path class="st6" d="M215.6,403.5v-3.3l40,0.5c0,0,2.1,1.3,1.9,2.6L215.6,403.5z"/>
																</g>
															</g>
														</g>
													</g>
												</g>
											</g>
										</g>
									</g>
								</g>
							</g>
							<g>
								<g>
									<g>
										<g>
											<g>
												<g>
													<g>
														<g>
															<g>
																<g>
																	<g>
																		<path class="st6" d="M234.2,391.1c0,0.2-1,0.3-2,1c-1,0.7-1.5,1.6-1.7,1.5c-0.2,0,0.1-1.3,1.3-2.2
																			C233,390.7,234.2,390.9,234.2,391.1z"/>
																	</g>
																</g>
															</g>
														</g>
													</g>
												</g>
											</g>
										</g>
									</g>
								</g>
							</g>
							<g>
								<g>
									<g>
										<g>
											<g>
												<g>
													<g>
														<g>
															<g>
																<g>
																	<g>
																		<path class="st6" d="M239.7,393c0,0.2-0.8,0.6-1.5,1.5c-0.7,0.9-0.9,1.9-1.1,1.9c-0.2,0-0.3-1.2,0.5-2.4
																			C238.5,392.9,239.7,392.8,239.7,393z"/>
																	</g>
																</g>
															</g>
														</g>
													</g>
												</g>
											</g>
										</g>
									</g>
								</g>
							</g>
							<g>
								<g>
									<g>
										<g>
											<g>
												<g>
													<g>
														<g>
															<g>
																<g>
																	<g>
																		<path class="st6" d="M242.1,398.3c-0.2,0-0.5-1,0-2.2c0.5-1.2,1.5-1.7,1.5-1.5c0.1,0.2-0.5,0.8-0.9,1.8
																			C242.4,397.4,242.3,398.3,242.1,398.3z"/>
																	</g>
																</g>
															</g>
														</g>
													</g>
												</g>
											</g>
										</g>
									</g>
								</g>
							</g>
							<g>
								<g>
									<g>
										<g>
											<g>
												<g>
													<g>
														<g>
															<g>
																<g>
																	<g>
																		<path class="st6" d="M233.8,385.2c-0.1,0.2-1-0.1-2.2,0c-1.2,0.1-2,0.5-2.1,0.3c-0.1-0.2,0.7-1,2.1-1.1
																			C232.9,384.3,233.9,385,233.8,385.2z"/>
																	</g>
																</g>
															</g>
														</g>
													</g>
												</g>
											</g>
										</g>
									</g>
								</g>
							</g>
						</g>
					</g>
				</g>
				<g>
					<g>
						<g>
							<g>
								<path class="st6" d="M234,392c0,0,0.1-0.4,0.1-1.3c-0.1-0.8-0.3-2-1.1-3.3c-0.4-0.6-0.9-1.2-1.6-1.7
									c-0.3-0.2-0.9-0.5-1.4-0.2c-0.5,0.2-0.8,0.8-0.8,1.4c0.1,2.1,1.6,4.1,3.7,4.9c2.1,0.8,4.4-0.2,5.7-1.7
									c0.3-0.4,0.6-0.8,0.8-1.3c0.1-0.2,0.1-0.5,0-0.8c-0.1-0.3-0.3-0.5-0.6-0.6c-0.5-0.2-0.9,0-1.3,0.1c-0.4,0.2-0.7,0.4-1,0.6
									c-1.2,0.8-1.9,1.7-2.4,2.4c-0.5,0.7-0.6,1.1-0.6,1.1c0.1,0.1,0.9-1.6,3.2-3.1c0.6-0.3,1.3-0.8,1.9-0.6
									c0.3,0.1,0.4,0.4,0.2,0.8c-0.1,0.4-0.4,0.7-0.7,1.1c-1.1,1.3-3.2,2.1-5.1,1.5c-1.9-0.6-3.3-2.5-3.3-4.2
									c0-0.4,0.2-0.8,0.5-0.9c0.3-0.1,0.6,0,0.9,0.2c0.6,0.4,1.2,1,1.6,1.5c0.8,1.1,1.1,2.3,1.2,3C234,391.6,234,392,234,392z"/>
							</g>
						</g>
					</g>
				</g>
				<g>
					<g>
						<g>
							<g>
								<g>
									<g>
										<g>
											<polygon class="st10" points="200.3,385.8 201,391.1 200.5,403.1 184.8,403.5 184.3,391.1 186,383.7 											"/>
										</g>
									</g>
								</g>
							</g>
						</g>
					</g>
				</g>
				<g>
					<g>
						<g>
							<g>
								<g>
									<g>
										<g>
											<g>
												<path class="st6" d="M192.8,402.2c-0.1,0,0.1-3.7,0.5-8.2c0.4-4.6,0.8-8.2,0.9-8.3c0.1,0-0.1,3.7-0.5,8.2
													C193.2,398.5,192.9,402.2,192.8,402.2z"/>
											</g>
										</g>
									</g>
								</g>
							</g>
						</g>
					</g>
				</g>
				<g>
					<g>
						<g>
							<g>
								<g>
									<g>
										<g>
											<polygon class="st6" points="200.6,401.1 184.7,401.3 184.7,403.5 200.6,403.5 											"/>
										</g>
									</g>
								</g>
							</g>
						</g>
					</g>
				</g>
				<g>
					<g>
						<g>
							<g>
								<g>
									<g>
										<g>
											<g>
												<path class="st6" d="M184.8,394.2c0,0,0.1-0.2,0.4-0.6c0.3-0.4,0.8-0.9,1.4-1.5c0.6-0.6,1.5-1.2,2.5-1.7
													c1-0.5,2.3-0.9,3.7-0.8c2.7,0,5,1.3,6.1,2.7c0.6,0.7,0.9,1.3,1.1,1.7c0.2,0.4,0.3,0.7,0.3,0.7c-0.1,0-0.5-1-1.6-2.2
													c-1.1-1.2-3.3-2.4-5.9-2.4c-2.6,0-4.7,1.3-6,2.3C185.5,393.4,184.8,394.3,184.8,394.2z"/>
											</g>
										</g>
									</g>
								</g>
							</g>
						</g>
					</g>
				</g>
				<g>
					<g>
						<g>
							<g>
								<g>
									<g>
										<g>
											<path class="st15" d="M192.7,49.4l-0.2,54.3l23.3,1.1l0.7-13.2c0,0,8.3,1.6,10.4-6c1.4-4.9,1-42.8,1-42.8L192.7,49.4z"/>
										</g>
									</g>
								</g>
							</g>
						</g>
					</g>
					<g>
						<g>
							<g>
								<g>
									<g>
										<g>
											<path class="st6" d="M231,46.5c-3.7,1.1-4.5,7-4.5,7l-5.8,12.7c-2.9-2.3-6.9-2.2-7.6,3c-0.5,3.7,4.1,4.5,4.1,4.5
												c-2.7,4.6-4.5,8.3-8.4,12.7c-4.2,4.7-6.6,5.2-11.2,5.3h-5.1c0,0-2.5-8.1-7.1-28.2c-5.1-22.4,21.4-19.5,26.3-25.2
												C219.7,28.9,242.5,43.2,231,46.5z"/>
										</g>
									</g>
								</g>
							</g>
						</g>
					</g>
					<g>
						<path class="st6" d="M237.4,41.7c-0.4-2.4-2.7-4.4-5.1-4.2c0.9-1.2,0.5-3-0.7-4c-1.1-1-2.7-1.2-4.2-1
							c-1.5,0.2-2.8,0.9-4.2,1.5c-0.2-1.1-1.7-3-2.7-3.6c-2-1.1-3.3-1.1-4.5-1.1c-7.1,0-10.9,4.9-14.7,9.9c-0.7,0.9-1.3,1.8-2.3,2.2
							c-0.7,0.3-1.4,0.2-2.2,0.2c-5.4,0.1-10.7,3.4-13.2,8.2c-2.5,4.8-4.4,16,2.1,23l3.9,8.7l37.3-29.6c0.3,0.1,2.6,1.3,4.4,0.3
							c4.5-2.4,2.6-6.3,2.6-6.3C234.4,45.7,237.8,44.1,237.4,41.7z"/>
					</g>
					<g>
						<g>
							<g>
								<g>
									<path class="st10" d="M202.9,70.8c0.2,0,0.4,1.9-0.1,4.1c-0.5,2.3-1.5,3.9-1.6,3.8c-0.2-0.1,0.6-1.7,1.1-3.9
										C202.7,72.6,202.7,70.8,202.9,70.8z"/>
								</g>
							</g>
						</g>
					</g>
					<g>
						<g>
							<g>
								<g>
									<path class="st10" d="M205.7,68.1c0.2,0,0.2,1.8-0.2,4c-0.4,2.2-1.1,3.8-1.2,3.8c-0.2-0.1,0.3-1.8,0.6-3.9
										C205.3,69.8,205.5,68.1,205.7,68.1z"/>
								</g>
							</g>
						</g>
					</g>
					<g>
						<g>
							<g>
								<g>
									<path class="st10" d="M213.8,59.1c0.1,0.1-0.6,0.6-1.4,1.5c-0.8,1-1.8,2.5-2.5,4.3c-0.7,1.8-1.1,3.6-1.4,4.9
										c-0.3,1.3-0.5,2.1-0.6,2.1c-0.1,0,0-0.8,0.2-2.1c0.2-1.3,0.5-3.1,1.3-5c0.7-1.9,1.8-3.5,2.8-4.4
										C213,59.4,213.7,59.1,213.8,59.1z"/>
								</g>
							</g>
						</g>
					</g>
					<g>
						<g>
							<g>
								<g>
									<path class="st10" d="M217,53c0.1,0,0.3,0.5,0.5,1.5c0.1,0.9,0.2,2.3-0.2,3.7c-0.4,1.4-1,2.6-1.6,3.4
										c-0.6,0.8-1,1.1-1.1,1.1c-0.1-0.1,1.4-1.9,2.1-4.6C217.4,55.4,216.9,53.1,217,53z"/>
								</g>
							</g>
						</g>
					</g>
					<g>
						<g>
							<g>
								<g>
									<path class="st10" d="M189.2,66.6c-0.1,0.1-0.8-0.1-1.6-0.6c-0.8-0.4-1.4-0.9-1.3-1.1c0.1-0.1,0.8,0.1,1.6,0.6
										C188.7,66,189.3,66.5,189.2,66.6z"/>
								</g>
							</g>
						</g>
					</g>
					<g>
						<g>
							<g>
								<g>
									<path class="st10" d="M200.5,60.8c0.2,0,0.1,1.2-0.7,2.4c-0.7,1.2-1.7,1.8-1.8,1.7c-0.1-0.1,0.6-0.9,1.3-2
										C200,61.8,200.3,60.8,200.5,60.8z"/>
								</g>
							</g>
						</g>
					</g>
					<g>
						<g>
							<g>
								<g>
									<path class="st10" d="M204,58.9c0.2,0-0.1,1.4-1,2.8c-0.9,1.4-2.1,2.2-2.2,2.1c-0.1-0.1,0.8-1,1.7-2.4
										C203.3,60.1,203.8,58.9,204,58.9z"/>
								</g>
							</g>
						</g>
					</g>
					<g>
						<g>
							<g>
								<g>
									<path class="st10" d="M221.1,36.2c0,0-0.4-0.3-1.3-0.8c-0.8-0.5-2.2-1-3.9-1c-1.7-0.1-3.8,0.4-5.7,1.5
										c-1.9,1.2-3.6,3.1-4.9,5.4c-0.9,1.7-1.5,3.4-2,5.1l-0.1,0.3l-0.3-0.2c-1.7-0.9-3.6-1.3-5.2-1.3c-1.6,0-3.1,0.3-4.2,0.6
										c-2.3,0.8-3.4,1.8-3.5,1.7c0,0,0.2-0.3,0.8-0.7c0.5-0.4,1.4-0.9,2.6-1.4c1.2-0.4,2.6-0.8,4.4-0.8c1.7,0,3.6,0.4,5.5,1.3
										l-0.4,0.2c0.4-1.7,1.1-3.5,2-5.2c1.3-2.4,3.1-4.4,5.1-5.6c2.1-1.2,4.2-1.6,6-1.5c1.8,0.1,3.2,0.7,4,1.2
										c0.4,0.3,0.7,0.5,0.9,0.7C221.1,36.1,221.2,36.2,221.1,36.2z"/>
								</g>
							</g>
						</g>
					</g>
					<g>
						<g>
							<g>
								<g>
									<path class="st10" d="M233.4,39.2c0,0,0.6-0.2,1.3,0.6c0.3,0.4,0.6,1,0.5,1.7c-0.1,0.7-0.6,1.5-1.4,1.9
										c-0.8,0.5-1.8,0.6-2.8,0.4c-1-0.2-2-0.8-2.9-1.4c-0.9-0.6-1.8-1.4-2.9-2c-1-0.6-2.2-1-3.4-1.2c-2.5-0.5-4.9-0.2-7,0.5
										c-2.1,0.7-3.8,1.7-5.2,2.6c-2.7,2-4.1,3.6-4.1,3.5c0,0,0.3-0.4,0.9-1.1c0.6-0.7,1.6-1.7,3-2.7c1.4-1,3.1-2.1,5.3-2.8
										c2.1-0.7,4.7-1,7.3-0.5c1.3,0.2,2.5,0.7,3.6,1.3c1.1,0.6,2,1.4,2.9,2c0.9,0.6,1.8,1.2,2.7,1.4c0.9,0.2,1.8,0.1,2.5-0.3
										c0.7-0.4,1.1-1,1.2-1.6c0.1-0.6-0.1-1.2-0.4-1.5C234,39.2,233.4,39.2,233.4,39.2z"/>
								</g>
							</g>
						</g>
					</g>
				</g>
				<g>
					<path class="st15" d="M341.9,80.8C341,80,329.2,85,329.2,85s-8.8,6.9-12.5,11l-2.2,1.9l-33.7,26.2l-41.4-17.2l-9,23.1
						c0,0,46.5,18.5,53.6,15.3c7.7-3.4,36.3-33.4,36.4-33.5c0,0,0,0,0,0l4.1-4c0,0,2.2,0,3.8-0.1c1.7-0.1,6.5-3.3,6.5-3.3
						s0.7-1.3,0.9-2.8c0.2-1.6-0.9-2.1-0.9-2.1s0.3-1,0.1-2.3c-0.2-1.3-2-2.9-2-2.9s0.7-0.6,1.1-2.1c0.4-1.5-1.6-3-1.6-3
						s6.9-4.7,8.6-5.5C342.8,82.9,342.8,81.6,341.9,80.8z"/>
				</g>
				<g>
					<g>
						<path class="st6" d="M245.5,317.3c0.1-1.5,0.2-2.7,0.2-3.4l4.7-74.6c0,0-3.9-21.8-5.8-27.6l-16.7-6.5l-22.3,8.7
							c-0.1-1.8-0.2-2.9-0.2-2.9l-32.8,11.3c0,0-0.8,22.4,0,29.2c0.3,2.2,1.1,7.8,2.2,14.5h0c0,0,1.1,14.5,1.3,15.3
							c0.8,3,1,10.2,1,17.4c0,9.2,0.5,20.2,1.1,25.4c0.6,5.2,0.9,62.4,0.9,62.4h24.2l3.1-91.2c0.5-9.8,1.3-24.7,1.8-35.5l5.7,33.7
							c0,1.2,3.5,20.5,3.5,20.5s-1.3,9-1.5,18.3c-0.4,17-2.4,54.3-2.4,54.3H237l0,0C237,386.5,244.1,332.6,245.5,317.3L245.5,317.3
							L245.5,317.3z"/>
					</g>
					<g>
						<path class="st10" d="M249.5,234.8c0,0.1-0.9-0.3-2.2-1.2c-1.3-0.8-3-2.1-4.7-3.7c-1.7-1.6-3-3.3-3.9-4.6
							c-0.9-1.3-1.3-2.1-1.2-2.1c0.1,0,0.6,0.7,1.5,1.9c0.9,1.2,2.3,2.8,3.9,4.4c1.7,1.6,3.3,2.9,4.5,3.8
							C248.8,234.2,249.6,234.8,249.5,234.8z"/>
					</g>
					<g>
						<path class="st10" d="M207.3,248.4c0,0-0.2-0.2-0.5-0.7c-0.3-0.5-0.6-1.2-1-2.2c-0.8-1.9-1.7-4.5-2.2-7.5
							c-0.5-3-0.6-5.8-0.5-7.9c0.1-1,0.1-1.8,0.2-2.4c0.1-0.6,0.1-0.9,0.2-0.9c0.1,0,0,1.2-0.1,3.2c0,2,0.1,4.8,0.6,7.8
							c0.5,3,1.3,5.6,2,7.5C206.8,247.2,207.4,248.3,207.3,248.4z"/>
					</g>
					<g>
						<g>
							<path class="st10" d="M210.8,276.5c0,0-0.1-0.5-0.3-1.3c-0.2-0.9-0.4-2.1-0.7-3.6c-0.5-3.1-1.2-7.3-2-11.8
								c-1.3-8.4-2.2-14.1-2.7-16.7c0.1,0,0.6,1.8,1.1,4.8c0.6,3,1.3,7.2,2.1,11.8c0.8,4.6,1.4,8.8,1.8,11.8
								c0.2,1.4,0.4,2.6,0.5,3.6C210.8,276,210.8,276.5,210.8,276.5z"/>
						</g>
					</g>
				</g>
				<g>
					<g>
						<path class="st15" d="M153.7,152c0,0-3.2,22.5-3.8,30.4c-0.4,4.7,4.5,11,8.1,11.5c3.7,0.5,16.1,1.2,16.1,1.2l1-14.1l-0.3-2.8
							l-3.8-0.7l1.2-22.4L153.7,152z"/>
					</g>
					<g>
						<g>
							<path class="st16" d="M171.6,155.8c0,0,0.1,0.4,0.1,1.2c0.1,0.8,0.1,1.9,0.1,3.3c0.1,2.8,0,6.7-0.2,11
								c-0.2,4.3-0.6,8.2-0.9,11c-0.1,1.4-0.3,2.5-0.4,3.3c-0.1,0.8-0.2,1.2-0.2,1.2c0,0,0-0.4,0-1.2c0.1-0.9,0.1-2,0.2-3.3
								c0.2-2.9,0.4-6.8,0.7-11c0.2-4.3,0.4-8.2,0.4-11c0-1.3,0-2.4,0-3.3C171.6,156.3,171.6,155.8,171.6,155.8z"/>
						</g>
					</g>
				</g>
				<g class="st13">
					<g>
						<path d="M172.9,222.8c6.3,2.3,13.2,2.5,19.9,2c6.7-0.6,13.3-1.9,20-2.6c10.1-1,20.4-0.3,30.3,2c0.7,0.2,1.4,0.3,2.1,0.2
							c0.7-0.1,1.4-0.6,1.5-1.3c0.2-1.1-1.1-1.9-2.1-2.3c-22.8-9.6-49.6-9-71.9,1.6"/>
					</g>
				</g>
				<g>
					<g>
						<path class="st9" d="M269.3,117.1l-35.5-17.7c-9.3-1.1-16.9-0.7-16.9-0.7h-23.5c0,0-28.5,8.4-33.2,16.1L148,151.4l24.1,3.6
							l0,0l3,26.3c0,0-3,30.4-3,34.9c0,4.4,0.4,6.1,0.4,6.1s48.3-7.3,60.2-3.5c11.9,3.9,15.1,3.5,15.1,3.5s-1-12.6-1.9-20l-2.8-36.7
							l-2-28l22.3,6.8L269.3,117.1z"/>
					</g>
					<g>
						<path class="st6" d="M171.9,155.4c-0.1,0-0.3-1.5-0.9-3.9c-0.5-2.4-1.4-5.8-2.8-9.3c-1.4-3.6-2.9-6.7-4.1-8.9
							c-0.6-1-1.1-1.9-1.5-2.6c-0.3-0.6-0.5-1-0.5-1c0,0,0.3,0.3,0.7,0.9c0.4,0.6,1,1.5,1.6,2.6c1.3,2.2,2.9,5.3,4.3,8.9
							c1.4,3.6,2.2,7,2.7,9.4c0.2,1.2,0.4,2.2,0.4,2.9C171.9,155,172,155.4,171.9,155.4z"/>
					</g>
					<g>
						<path class="st6" d="M217.5,165.8c0,0,0,0.2-0.1,0.5c-0.1,0.4-0.3,0.8-0.5,1.4c-0.2,0.6-0.5,1.3-0.8,2.1
							c-0.3,0.8-0.7,1.8-1.1,2.8c-0.9,2-2,4.4-3.4,7c-1.4,2.6-3.1,5.3-5,8.1c-2,2.8-4,5.3-5.9,7.5c-1.9,2.2-3.8,4.1-5.4,5.6
							c-0.8,0.8-1.6,1.4-2.2,2c-0.7,0.6-1.2,1.1-1.7,1.5c-0.4,0.4-0.8,0.6-1.1,0.9c-0.3,0.2-0.4,0.3-0.4,0.3c0,0,0.1-0.1,0.3-0.4
							c0.3-0.3,0.6-0.6,1.1-1c0.5-0.4,1-0.9,1.7-1.5c0.6-0.6,1.4-1.3,2.1-2.1c1.6-1.5,3.4-3.5,5.3-5.7c1.9-2.2,3.9-4.7,5.8-7.5
							c1.9-2.8,3.6-5.5,5-8c1.4-2.6,2.6-4.9,3.5-6.9c0.5-1,0.9-1.9,1.2-2.7c0.4-0.8,0.6-1.5,0.9-2.1c0.2-0.5,0.4-1,0.5-1.3
							C217.4,165.9,217.5,165.7,217.5,165.8z"/>
					</g>
					<g>
						<g>
							<path class="st6" d="M233.9,101.8c0.1,0-1.3,1.5-1.9,4.5c-0.3,1.5-0.3,3.3,0,5.2c0.3,2,0.9,4.1,1.5,6.3
								c1.2,4.5,2.5,8.5,3.5,11.4c0.5,1.4,0.9,2.5,1.2,3.4c0.3,0.8,0.4,1.3,0.4,1.3c0,0-0.2-0.4-0.6-1.2c-0.3-0.8-0.8-1.9-1.3-3.4
								c-1.1-2.9-2.4-6.8-3.7-11.3c-0.6-2.2-1.2-4.4-1.5-6.4c-0.3-2-0.3-3.9,0.1-5.4c0.3-1.5,0.9-2.7,1.4-3.4
								C233.5,102.1,233.9,101.8,233.9,101.8z"/>
						</g>
					</g>
				</g>
				<g>
					<g>
						<path class="st4" d="M166.9,140.4c0,0-0.6,0.7-1.9,1.3c-1.3,0.6-3.3,1.1-5.5,0.8c-2.2-0.3-3.9-1.4-5-2.4
							c-1.1-1-1.5-1.8-1.4-1.8c0.1-0.1,0.6,0.7,1.7,1.5c1.1,0.9,2.8,1.8,4.8,2.1c2.1,0.3,4-0.1,5.2-0.6
							C166.1,140.8,166.8,140.3,166.9,140.4z"/>
					</g>
				</g>
				<g>
					<g>
						<path class="st4" d="M234.9,123.9c0,0-0.1,0.3-0.3,0.8c-0.2,0.5-0.6,1.2-1,2.1c-1,1.8-2.6,4.3-5.3,6.9
							c-2.6,2.5-6.5,5.1-11.3,6.1c-2.4,0.5-5,0.7-7.6,0.3c-2.7-0.4-5.3-1.4-7.7-2.7c-4.9-2.7-9.1-6.2-13.6-7.9
							c-4.5-1.7-9-1.5-12.5-0.7c-3.5,0.9-6.1,2.4-7.8,3.6c-1.6,1.2-2.4,2.1-2.5,2c0,0,0.7-0.9,2.3-2.2c1.6-1.2,4.2-2.9,7.8-3.8
							c3.6-0.9,8.2-1.1,12.8,0.6c4.6,1.7,8.8,5.2,13.7,7.9c2.4,1.3,5,2.3,7.6,2.7c2.6,0.4,5.1,0.2,7.5-0.3c4.7-1,8.5-3.5,11.1-5.9
							c2.7-2.5,4.3-5,5.4-6.7c0.5-0.9,0.9-1.6,1.1-2.1C234.8,124.1,234.9,123.8,234.9,123.9z"/>
					</g>
				</g>
				<g>
					<g>
						<path class="st4" d="M257.2,111c0,0,0.2,0.4,0.5,1.2c0.2,0.8,0.5,1.9,0.6,3.3c0.1,1.4,0,3.2-0.6,5c-0.5,1.8-1.4,3.8-2.8,5.5
							c-1.4,1.7-3.1,3-4.5,4.2c-1.4,1.2-2.4,2.5-3,3.8c-0.6,1.3-0.7,2.4-0.7,3.2c0.1,0.8,0.2,1.2,0.2,1.2c0,0-0.1-0.1-0.1-0.3
							c-0.1-0.2-0.2-0.5-0.2-0.9c-0.1-0.8,0-2,0.5-3.4c0.6-1.3,1.6-2.7,3-4c1.4-1.3,3-2.5,4.4-4.2c2.7-3.3,3.5-7.4,3.4-10.1
							C257.8,112.7,257.1,111.1,257.2,111z"/>
					</g>
				</g>
				<g>
					<g>
						<path class="st4" d="M199.4,195.3c0,0-0.4,0.2-1,0.4c-0.7,0.2-1.7,0.5-2.9,0.6c-1.3,0.2-2.8,0.3-4.5-0.3
							c-0.8-0.3-1.6-0.7-2.4-1.3c-0.7-0.6-1.3-1.4-1.9-2.1c-0.6-0.7-1.3-1.4-2-1.9c-0.7-0.5-1.5-0.8-2.3-1.1
							c-1.6-0.5-3.1-0.6-4.3-0.4c-1.2,0.1-2.2,0.5-2.8,0.8c-0.6,0.3-1,0.5-1,0.5c0,0,0.3-0.3,0.9-0.6c0.6-0.4,1.6-0.8,2.9-1
							c1.3-0.2,2.8-0.2,4.5,0.3c0.8,0.3,1.6,0.6,2.4,1.1c0.8,0.5,1.5,1.2,2.1,1.9c0.6,0.7,1.2,1.5,1.9,2.1c0.7,0.6,1.4,1,2.2,1.3
							c1.5,0.5,3.1,0.5,4.3,0.4C197.9,195.7,199.4,195.2,199.4,195.3z"/>
					</g>
				</g>
				<g>
					<g>
						<path class="st4" d="M245.4,193.2c0,0-0.1,0.1-0.3,0.3c-0.2,0.2-0.5,0.4-1,0.7c-0.9,0.5-2.2,1.2-4,1.7c-1.8,0.4-4,0.7-6.5,0.4
							c-2.4-0.3-5.1-1.3-7.4-3c-2.3-1.7-4.1-3.7-5.9-5.3c-1.8-1.6-3.6-2.9-5.2-3.6c-1.7-0.7-3.1-0.9-4.2-0.9c-1,0-1.6,0.2-1.6,0.1
							c0,0,0.1-0.1,0.4-0.1c0.3-0.1,0.7-0.1,1.2-0.2c1-0.1,2.6,0.1,4.3,0.8c1.7,0.7,3.6,1.9,5.4,3.6c1.8,1.6,3.6,3.6,5.9,5.2
							c2.2,1.6,4.8,2.6,7.1,2.9c2.4,0.4,4.6,0.1,6.3-0.3c1.8-0.4,3.1-1,4-1.5C244.9,193.5,245.4,193.2,245.4,193.2z"/>
					</g>
				</g>
			</g>
		</g>
	</g>
</g>
<g id="Magnifying_Glass">
</g>
</svg>
