<?xml version="1.0" encoding="utf-8"?>
<!-- Generator: Adobe Illustrator 27.0.0, SVG Export Plug-In . SVG Version: 6.00 Build 0)  -->
<svg version="1.1" xmlns="http://www.w3.org/2000/svg" xmlns:xlink="http://www.w3.org/1999/xlink" x="0px" y="0px"
	 viewBox="0 0 438.2 438.2" style="enable-background:new 0 0 438.2 438.2;" xml:space="preserve">
<style type="text/css">
	.st0{fill:#E0E0E0;}
	.st1{fill:#EBEBEB;}
	.st2{fill:#F5F5F5;}
	.st3{display:none;}
	.st4{display:inline;fill:#EBEBEB;}
	.st5{fill:#263238;}
	.st6{fill:#E8505B;}
	.st7{opacity:0.2;}
	.st8{opacity:0.3;fill:#FFFFFF;}
	.st9{opacity:0.1;}
	.st10{fill:#FFBE9D;}
	.st11{fill:#455A64;}
	.st12{opacity:0.6;}
	.st13{fill:#FFFFFF;}
	.st14{opacity:0.6;fill:#FFFFFF;}
	.st15{fill:#F4F4F4;}
</style>
<g id="Background_Complete">
	<g>
		<g>
			<path class="st0" d="M393.7,239.8c0,0.1-1.9,0.9-4.3,1.7c-2.4,0.8-4.4,1.3-4.5,1.2c0-0.1,1.9-0.9,4.3-1.7
				C391.6,240.2,393.6,239.6,393.7,239.8z"/>
		</g>
		<g>
			<polygon class="st0" points="282.4,399.3 282.4,435.6 287.3,435.6 293.8,398.9 			"/>
			<polygon class="st0" points="326.6,399.3 326.6,435.6 331.5,435.6 338,398.9 			"/>
			<polygon class="st0" points="381.9,399.3 381.9,435.6 377.1,435.6 370.5,398.9 			"/>
			<polygon class="st0" points="413,399.3 413,435.6 408.2,435.6 401.6,398.9 			"/>
			<path class="st0" d="M312.8,319.3c0,0-19.2-5.5-24.5,1.8c-5.3,7.4-5.9,78.6-5.9,78.6s34.3,0.6,34.9,0
				C318,399.2,312.8,319.3,312.8,319.3z"/>
			<path class="st1" d="M412,386.8l0.8-123.5c0.1-15.9-12.8-28.9-28.7-28.8l-45.3,0c-15.9,0-28.6,13.1-28.2,28.9l2.9,123.3H412z"/>
			<path class="st1" d="M412,386.8c0,0-17.5-25.8-38-26.6c-20.5-0.8-64.8,0-64.8,0s-19.6,0.7-21,25v14.3H412V386.8z"/>
			<g>
				<path class="st0" d="M371.9,360.9c-16.9-0.1-33.9-0.2-50.8-0.3c-5.3,0-11.3-0.7-16.5,0.8c-15.1,4.3-17.4,23.7-16.2,37
					c0,0.5-0.8,0.5-0.9,0c-1-11.2,0.2-26.9,9.8-34.4c5.5-4.3,11.9-4.4,18.5-4.3c18.7,0.1,37.3,0.2,56,0.3
					C372.4,360.1,372.4,360.9,371.9,360.9L371.9,360.9z"/>
			</g>
			<g>
				<path class="st0" d="M324.6,238.4c0,0,0.1,0,0.3-0.1c0.2-0.1,0.5-0.2,1-0.3c0.4-0.1,1-0.2,1.6-0.3c0.6-0.1,1.4-0.2,2.2-0.2
					c3.4-0.3,8.3-0.5,14.3-0.5c3,0,6.3,0,9.9,0c3.5,0.1,7.4,0,11.4,0.5c2,0.2,4,0.6,6.1,1.1c2,0.5,4.1,1.2,6.1,2.2
					c2,1,3.7,2.4,5.3,4c1.6,1.6,3,3.4,4.1,5.5c0.5,1,1,2.1,1.3,3.3c0.3,1.1,0.4,2.3,0.5,3.4c0.3,2.2,0.5,4.4,0.7,6.6
					c0.4,4.3,0.7,8.5,1,12.5c0.5,8,0.7,15.2,0.9,21.2c0.1,6,0.2,10.9,0.2,14.3c0,1.7,0,3,0,3.9c0,0.4,0,0.8,0,1c0,0.2,0,0.3,0,0.3
					c0,0,0-0.1,0-0.3c0-0.3,0-0.6,0-1c0-0.9-0.1-2.2-0.1-3.9c-0.1-3.4-0.2-8.3-0.4-14.3c-0.2-6-0.5-13.2-1-21.2
					c-0.3-4-0.6-8.2-1-12.5c-0.2-2.2-0.4-4.4-0.7-6.6c-0.1-1.1-0.2-2.2-0.5-3.3c-0.3-1.1-0.7-2.1-1.2-3.1c-1.1-2-2.5-3.8-4-5.4
					c-1.6-1.5-3.3-2.9-5.2-3.9c-1.9-1-3.9-1.6-6-2.1c-2-0.5-4-0.8-6-1.1c-3.9-0.5-7.7-0.5-11.3-0.6c-3.6-0.1-6.9-0.1-9.9-0.1
					c-6,0-10.9,0.1-14.3,0.3c-0.8,0.1-1.6,0.1-2.2,0.2c-0.6,0.1-1.2,0.2-1.6,0.2c-0.4,0.1-0.8,0.2-1,0.2
					C324.7,238.4,324.6,238.4,324.6,238.4z"/>
			</g>
			<g>
				<path class="st0" d="M397,270.9c0,0.1-1.5,0.8-3.4,1.5c-1.9,0.7-3.6,1.1-3.6,1c0-0.1,1.5-0.8,3.4-1.5
					C395.4,271.2,397,270.7,397,270.9z"/>
			</g>
			<g>
				<path class="st0" d="M393.2,277.9c0,0.1-0.7,0.2-1.6,0.2c-0.9,0-1.6-0.2-1.6-0.3s0.7-0.2,1.6-0.2
					C392.5,277.7,393.2,277.8,393.2,277.9z"/>
			</g>
			<g>
				<g>
					<path class="st0" d="M364.1,275.6c0,0,0.1-0.1,0.5-0.2c0.3,0,0.8,0.1,1.3,0.5c0.5,0.4,0.9,1.1,0.6,2c-0.2,0.8-0.9,1.6-1.9,1.6
						c-1,0-1.8-0.6-2.2-1.3c-0.4-0.8-0.2-1.6,0.2-2.1c0.3-0.5,0.8-0.8,1.1-0.9c0.3-0.1,0.5-0.1,0.5-0.1c0,0.1-0.7,0.2-1.2,1.1
						c-0.2,0.4-0.4,1.1,0,1.7c0.3,0.6,1,1.1,1.7,1c0.7,0,1.3-0.6,1.5-1.2c0.2-0.6-0.1-1.2-0.4-1.6
						C364.9,275.4,364.1,275.7,364.1,275.6z"/>
				</g>
				<g>
					<path class="st0" d="M365.8,264.2c0.1,0.1-0.5,0.5-1.3,1.4c-0.7,0.9-1.6,2.3-1.9,4c-0.3,1.7,0,3.3,0.3,4.4
						c0.4,1.1,0.8,1.7,0.7,1.8c0,0-0.6-0.5-1-1.6c-0.5-1.1-0.8-2.8-0.5-4.7c0.3-1.8,1.3-3.3,2.1-4.2
						C365.1,264.5,365.8,264.1,365.8,264.2z"/>
				</g>
				<g>
					<path class="st0" d="M364.7,291.6c0,0-0.6-0.5-1.3-1.7c-0.7-1.1-1.4-2.9-1.6-4.9c-0.1-1-0.1-2,0.1-2.8c0.1-0.9,0.4-1.7,0.9-2.2
						c0.4-0.5,1-0.8,1.3-0.9c0.4-0.1,0.6,0,0.6,0c0,0.1-0.9,0.1-1.6,1.1c-0.8,1-0.9,2.8-0.7,4.8c0.2,1.9,0.8,3.6,1.4,4.8
						C364.3,290.9,364.7,291.5,364.7,291.6z"/>
				</g>
				<g>
					<path class="st0" d="M357.7,277.1c-0.1-0.1,0.8-0.9,2.1-0.9c1.4,0,2.2,0.8,2.1,0.9c-0.1,0.1-1-0.4-2.1-0.4
						C358.6,276.7,357.7,277.2,357.7,277.1z"/>
				</g>
			</g>
			<g>
				<g>
					<path class="st0" d="M335.3,275.6c0,0,0.1-0.1,0.5-0.2c0.3,0,0.8,0.1,1.3,0.5c0.5,0.4,0.9,1.1,0.6,2c-0.2,0.8-0.9,1.6-1.9,1.6
						c-1,0-1.8-0.6-2.2-1.3c-0.4-0.8-0.2-1.6,0.2-2.1c0.3-0.5,0.8-0.8,1.1-0.9c0.3-0.1,0.5-0.1,0.5-0.1c0,0.1-0.7,0.2-1.2,1.1
						c-0.2,0.4-0.4,1.1,0,1.7c0.3,0.6,1,1.1,1.7,1c0.7,0,1.3-0.6,1.5-1.2c0.2-0.6-0.1-1.2-0.4-1.6
						C336.1,275.4,335.3,275.7,335.3,275.6z"/>
				</g>
				<g>
					<path class="st0" d="M337,264.2c0.1,0.1-0.5,0.5-1.3,1.4c-0.7,0.9-1.6,2.3-1.9,4c-0.3,1.7,0,3.3,0.3,4.4
						c0.4,1.1,0.8,1.7,0.7,1.8c0,0-0.6-0.5-1-1.6c-0.5-1.1-0.8-2.8-0.5-4.7c0.3-1.8,1.3-3.3,2.1-4.2
						C336.3,264.5,336.9,264.1,337,264.2z"/>
				</g>
				<g>
					<path class="st0" d="M335.8,291.6c0,0-0.6-0.5-1.3-1.7c-0.7-1.1-1.4-2.9-1.6-4.9c-0.1-1-0.1-2,0.1-2.8c0.1-0.9,0.4-1.7,0.9-2.2
						c0.4-0.5,1-0.8,1.3-0.9c0.4-0.1,0.6,0,0.6,0c0,0.1-0.9,0.1-1.6,1.1c-0.8,1-0.9,2.8-0.7,4.8c0.2,1.9,0.8,3.6,1.4,4.8
						C335.4,290.9,335.9,291.5,335.8,291.6z"/>
				</g>
				<g>
					<path class="st0" d="M328.8,277.1c-0.1-0.1,0.8-0.9,2.1-0.9c1.4,0,2.2,0.8,2.1,0.9c-0.1,0.1-1-0.4-2.1-0.4
						C329.8,276.7,328.9,277.2,328.8,277.1z"/>
				</g>
			</g>
			<g>
				<path class="st2" d="M411.5,318.5c0,0-29.4-7.6-34.7,2.4c-5.3,10-6.3,78.9-6.3,78.9s42.4,1.6,42.5-0.2
					C413.2,397.8,411.5,318.5,411.5,318.5z"/>
				<path class="st1" d="M413.1,318.2c0,0-19.4-5-24.7,2.4c-5.3,7.4-6.7,79.6-6.7,79.6s31,0.9,31.6,0.3
					C413.9,399.9,413.1,318.2,413.1,318.2z"/>
			</g>
			<g>
				<path class="st0" d="M401.7,354.2c0,0,0.1-0.2,0.4-0.2c0.3,0,0.8,0.1,1,0.6c0.2,0.5,0.3,1,0.2,1.7c-0.1,0.3-0.2,0.7-0.5,1
					c-0.3,0.3-0.7,0.4-1.1,0.3c-0.6-0.1-1-0.5-1.2-1c-0.2-0.5-0.1-1,0-1.4c0.3-0.8,0.9-1.2,1.3-1.4l0,0.2c-0.3-0.1-0.5-0.2-0.5-0.3
					c0,0,0.2,0,0.6,0.1l0.2,0l-0.2,0.2c-0.3,0.2-0.8,0.7-1,1.3c-0.2,0.6,0,1.6,0.8,1.7c0.6,0.1,1-0.3,1.1-0.8
					c0.1-0.5,0.1-1.1-0.1-1.4c-0.1-0.4-0.4-0.5-0.6-0.6C401.9,354.1,401.8,354.2,401.7,354.2z"/>
			</g>
			<g>
				<path class="st0" d="M396.2,341.1c0.1,0,0.5,0.6,1.2,1.7c0.7,1.1,1.6,2.7,2.4,4.6c0.8,1.9,1.4,3.6,1.7,4.9
					c0.4,1.3,0.5,2.1,0.4,2.1c-0.2,0-1.1-3.1-2.7-6.7C397.7,344,396.1,341.2,396.2,341.1z"/>
			</g>
			<g>
				<path class="st0" d="M407.8,342.3c0.1,0.1-1.2,2.8-2.6,6.1c-1.5,3.4-2.5,6.2-2.7,6.1c-0.1,0,0.7-2.9,2.2-6.3
					C406.1,344.8,407.7,342.2,407.8,342.3z"/>
			</g>
			<g>
				<path class="st0" d="M396.3,377.7c-0.1,0,0-1.2,0.3-3.1c0.3-1.9,0.8-4.5,1.4-7.4c0.6-2.9,1.3-5.4,1.9-7.2c0.6-1.8,1-3,1-2.9
					c0.1,0-0.2,1.2-0.7,3c-0.5,1.9-1.1,4.4-1.7,7.3c-0.6,2.8-1.2,5.4-1.6,7.3C396.7,376.5,396.4,377.7,396.3,377.7z"/>
			</g>
			<g>
				<path class="st0" d="M407.8,369.8c-0.1,0-1-2.9-2.4-6.4c-1.4-3.5-2.9-6.2-2.7-6.3c0.1,0,0.5,0.6,1.1,1.7
					c0.6,1.1,1.4,2.6,2.1,4.4c0.7,1.8,1.2,3.4,1.6,4.6C407.7,369,407.8,369.7,407.8,369.8z"/>
			</g>
		</g>
	</g>
	<g>
		<g>
			<g>
				
					<rect x="70.4" y="198.7" transform="matrix(1.428716e-02 -0.9999 0.9999 1.428716e-02 -134.4294 309.6241)" class="st1" width="38.8" height="48.5"/>
			</g>
		</g>
		
			<rect x="72.8" y="200.4" transform="matrix(1.428448e-02 -0.9999 0.9999 1.428448e-02 -134.46 309.5925)" class="st2" width="33.9" height="45.1"/>
		<polygon class="st1" points="67,239.6 83.1,218.8 92.6,232.1 99.3,225.1 112.1,240.3 		"/>
		<g>
			<g>
				<path class="st1" d="M97,216.4c0,2-1.6,3.5-3.6,3.5c-2,0-3.5-1.6-3.5-3.6c0-2,1.6-3.5,3.6-3.5C95.5,212.8,97,214.4,97,216.4z"/>
			</g>
		</g>
	</g>
	<g>
		<g>
			<g>
				
					<rect x="25.6" y="5.8" transform="matrix(1.428583e-02 -0.9999 0.9999 1.428583e-02 12.8646 87.078)" class="st1" width="50" height="62.5"/>
			</g>
		</g>
		
			<rect x="28.7" y="8" transform="matrix(1.428563e-02 -0.9999 0.9999 1.428563e-02 12.8251 87.0367)" class="st2" width="43.7" height="58.1"/>
		<polygon class="st1" points="21.2,58.4 41.9,31.6 54.2,48.7 62.9,39.8 79.3,59.3 		"/>
		<g>
			<g>
				<path class="st1" d="M59.8,28.5c0,2.5-2.1,4.5-4.6,4.5c-2.5,0-4.5-2.1-4.5-4.6c0-2.5,2.1-4.5,4.6-4.5
					C57.8,23.9,59.9,26,59.8,28.5z"/>
			</g>
		</g>
	</g>
	<g>
		<g>
			<g>
				
					<rect x="344.3" y="19" transform="matrix(1.428622e-02 -0.9999 0.9999 1.428622e-02 313.086 424.2729)" class="st1" width="54.8" height="68.6"/>
			</g>
		</g>
		
			<rect x="347.7" y="21.5" transform="matrix(1.428697e-02 -0.9999 0.9999 1.428697e-02 313.0423 424.2275)" class="st2" width="47.9" height="63.8"/>
		<polygon class="st1" points="339.5,76.8 362.2,47.4 375.7,66.2 385.2,56.4 403.2,77.8 		"/>
		<g>
			<g>
				<path class="st1" d="M381.9,44c0,2.8-2.3,5-5.1,4.9c-2.8,0-5-2.3-4.9-5.1c0-2.8,2.3-5,5.1-4.9C379.7,39,381.9,41.2,381.9,44z"/>
			</g>
		</g>
	</g>
	<g>
		<g>
			<g>
				
					<rect x="231.2" y="230.5" transform="matrix(1.428594e-02 -0.9999 0.9999 1.428594e-02 -9.5725 517.1487)" class="st1" width="52.7" height="65.9"/>
			</g>
		</g>
		
			<rect x="234.5" y="232.8" transform="matrix(1.428454e-02 -0.9999 0.9999 1.428454e-02 -9.6139 517.1055)" class="st2" width="46" height="61.2"/>
		<polygon class="st1" points="226.5,286 248.3,257.7 261.3,275.8 270.4,266.3 287.8,286.9 		"/>
		<g>
			<g>
				<path class="st1" d="M267.2,254.5c0,2.7-2.2,4.8-4.9,4.8c-2.7,0-4.8-2.2-4.8-4.9c0-2.7,2.2-4.8,4.9-4.8
					C265.1,249.6,267.3,251.8,267.2,254.5z"/>
			</g>
		</g>
	</g>
</g>
<g id="Background_Simple" class="st3">
	<path class="st4" d="M195.3,179.1c-13.9,3.5-29.5,2.3-41.9,2c-12.4-0.4-25.2-2-37.2,1.3c-24.6,6.7-40.1,34-37.7,59.4
		c2.5,25.4,20.1,47.6,42.3,60.3s48.2,16.9,73.6,17.3c47.4,0.8,95.8-11.6,133.7-39.9c37.9-28.4,64.1-73.8,63.9-121.2
		c-0.1-20.2-5-40.7-16.2-57.6S346.9,71,326.9,68.1c-33.5-4.9-66.3,18.8-81.2,49.3c-6.3,12.9-9.7,27.4-18.1,39.1
		C220.8,166,215.4,174.8,195.3,179.1"/>
</g>
<g id="Floor">
	<g>
		<g>
			<path class="st5" d="M432.7,435.6c0,0.2-95.6,0.3-213.6,0.3c-118,0-213.6-0.1-213.6-0.3c0-0.2,95.6-0.3,213.6-0.3
				C337.1,435.3,432.7,435.5,432.7,435.6z"/>
		</g>
	</g>
</g>
<g id="Pictures">
	<g>
		<g>
			<g>
				<g>
					
						<rect x="311.1" y="98.7" transform="matrix(1.428626e-02 -0.9999 0.9999 1.428626e-02 199.2776 481.5618)" class="st1" width="65.5" height="81.9"/>
					<g>
						<path class="st5" d="M385.3,107.5c0,0-0.1,0-0.4,0c-0.3,0-0.7,0-1.2,0c-1,0-2.5,0-4.5,0c-3.9,0-9.6-0.1-16.8-0.2
							c-14.4-0.2-34.8-0.4-59.2-0.7l0.2-0.2c-0.3,19.5-0.6,41.8-0.9,65.5l0,0l-0.3-0.3c30.3,0.4,58.5,0.9,81.9,1.2l-0.2,0.2
							c0.3-19.7,0.6-36.1,0.8-47.5c0.1-5.7,0.2-10.2,0.2-13.3c0-1.5,0.1-2.7,0.1-3.5C385.3,108,385.3,107.5,385.3,107.5s0,0.4,0,1.2
							c0,0.8,0,2,0,3.5c0,3.1-0.1,7.5-0.1,13.2c-0.1,11.5-0.3,27.9-0.6,47.6l0,0.2l-0.2,0c-23.4-0.3-51.6-0.7-81.9-1.1l-0.3,0l0-0.3
							l0,0c0.3-23.7,0.7-46,1-65.5l0-0.2l0.2,0c24.4,0.4,44.9,0.7,59.3,1c7.2,0.1,12.8,0.2,16.7,0.3c1.9,0,3.4,0.1,4.4,0.1
							c0.5,0,0.9,0,1.1,0C385.2,107.5,385.3,107.5,385.3,107.5z"/>
					</g>
				</g>
			</g>
		</g>
		
			<rect x="315.2" y="101.6" transform="matrix(1.428623e-02 -0.9999 0.9999 1.428623e-02 199.2256 481.5075)" class="st6" width="57.3" height="76.2"/>
		<polygon class="st6" points="305.3,167.8 332.4,132.6 348.6,155.1 360,143.3 381.5,168.9 		"/>
		<g>
			<g>
				<path class="st6" d="M356,128.6c0,3.3-2.8,6-6.1,5.9c-3.3,0-6-2.8-5.9-6.1c0-3.3,2.8-6,6.1-5.9C353.4,122.5,356,125.2,356,128.6
					z"/>
			</g>
		</g>
		<polygon class="st7" points="305.3,167.8 332.4,132.6 348.6,155.1 360,143.3 381.5,168.9 		"/>
		<g class="st7">
			<g>
				<path d="M356,128.6c0,3.3-2.8,6-6.1,5.9c-3.3,0-6-2.8-5.9-6.1c0-3.3,2.8-6,6.1-5.9C353.4,122.5,356,125.2,356,128.6z"/>
			</g>
		</g>
	</g>
	<g>
		<g>
			<g>
				<g>
					
						<rect x="156" y="1.6" transform="matrix(1.428607e-02 -0.9999 0.9999 1.428607e-02 141.8242 244.6773)" class="st1" width="78.1" height="97.7"/>
					<g>
						<path class="st5" d="M244.4,12.1c0,0-0.2,0-0.5,0c-0.3,0-0.8,0-1.4,0c-1.2,0-3,0-5.3,0c-4.6-0.1-11.4-0.1-20-0.2
							c-17.2-0.2-41.5-0.5-70.5-0.9l0.2-0.2c-0.3,23.2-0.7,49.9-1.1,78.1l0,0l-0.3-0.3c36.2,0.5,69.7,1,97.6,1.4l-0.2,0.2
							c0.4-23.5,0.7-43,0.9-56.6c0.1-6.8,0.2-12.2,0.3-15.8c0-1.8,0.1-3.2,0.1-4.2C244.4,12.6,244.4,12.1,244.4,12.1s0,0.5,0,1.4
							c0,0.9,0,2.3,0,4.1c0,3.6-0.1,9-0.2,15.8c-0.2,13.7-0.4,33.2-0.7,56.8l0,0.2l-0.2,0c-27.9-0.4-61.5-0.9-97.6-1.4l-0.3,0l0-0.3
							l0,0c0.4-28.2,0.8-54.8,1.1-78.1l0-0.2l0.2,0c29,0.5,53.5,0.9,70.7,1.1c8.6,0.1,15.3,0.3,19.9,0.3c2.3,0,4.1,0.1,5.3,0.1
							c0.6,0,1,0,1.3,0C244.2,12.1,244.4,12.1,244.4,12.1z"/>
					</g>
				</g>
			</g>
		</g>
		
			<rect x="160.3" y="5" transform="matrix(1.428659e-02 -0.9999 0.9999 1.428659e-02 141.2863 244.1207)" class="st6" width="68.2" height="90.8"/>
		
			<rect x="160.3" y="5" transform="matrix(1.428659e-02 -0.9999 0.9999 1.428659e-02 141.2863 244.1207)" class="st8" width="68.2" height="90.8"/>
		<polygon class="st6" points="149.1,83.9 181.4,41.9 200.6,68.7 214.2,54.7 239.9,85.2 		"/>
		<g>
			<g>
				<path class="st6" d="M209.4,37.1c-0.1,3.9-3.3,7.1-7.3,7c-3.9-0.1-7.1-3.3-7-7.3c0.1-3.9,3.3-7.1,7.3-7
					C206.3,29.9,209.5,33.2,209.4,37.1z"/>
			</g>
		</g>
	</g>
	<g>
		<g>
			<g>
				<g>
					
						<rect x="306.7" y="184.9" transform="matrix(1.428720e-02 -0.9999 0.9999 1.428720e-02 113.1517 525.1752)" class="st1" width="32.5" height="40.7"/>
					<g>
						<path class="st5" d="M343.5,189.2c0,0-0.1,0-0.2,0c-0.2,0-0.3,0-0.6,0c-0.5,0-1.3,0-2.2,0c-2,0-4.8,0-8.3-0.1
							c-7.2-0.1-17.3-0.2-29.3-0.3l0.2-0.2c-0.1,9.7-0.3,20.8-0.4,32.5c0.1,0.1-0.5-0.5-0.2-0.3l0,0l0,0l0,0l0.1,0l0.2,0l0.4,0
							l0.7,0l1.4,0c0.9,0,1.9,0,2.8,0c1.8,0,3.7,0.1,5.5,0.1c3.6,0.1,7.1,0.1,10.5,0.2c6.8,0.1,13.2,0.2,19,0.3l-0.2,0.2
							c0.2-9.8,0.3-17.9,0.4-23.5c0.1-2.8,0.1-5.1,0.2-6.6c0-0.7,0-1.3,0-1.7C343.5,189.5,343.5,189.2,343.5,189.2s0,0.2,0,0.6
							c0,0.4,0,1,0,1.7c0,1.5,0,3.8,0,6.6c-0.1,5.7-0.1,13.9-0.2,23.7l0,0.2l-0.2,0c-5.8-0.1-12.2-0.2-19-0.2
							c-3.4,0-6.9-0.1-10.6-0.1c-1.8,0-3.6-0.1-5.5-0.1c-0.9,0-1.9,0-2.8,0l-1.4,0l-0.7,0l-0.4,0l-0.2,0l-0.1,0l0,0l0,0l0,0
							c0.2,0.2-0.3-0.3-0.3-0.3c0.2-11.7,0.3-22.8,0.5-32.5l0-0.2l0.2,0c12.1,0.2,22.3,0.4,29.5,0.5c3.5,0.1,6.3,0.1,8.3,0.2
							c0.9,0,1.7,0,2.2,0.1c0.2,0,0.4,0,0.6,0C343.5,189.2,343.5,189.2,343.5,189.2z"/>
					</g>
				</g>
			</g>
		</g>
		
			<rect x="308.5" y="186.3" transform="matrix(1.428746e-02 -0.9999 0.9999 1.428746e-02 112.9276 524.9434)" class="st6" width="28.4" height="37.8"/>
		
			<rect x="308.5" y="186.3" transform="matrix(1.428746e-02 -0.9999 0.9999 1.428746e-02 112.9276 524.9434)" class="st8" width="28.4" height="37.8"/>
		<polygon class="st6" points="303.8,219.1 317.3,201.7 325.3,212.8 330.9,207 341.6,219.7 		"/>
		<g>
			<g>
				<path class="st6" d="M328.9,199.7c0,1.6-1.4,3-3,2.9c-1.6,0-3-1.4-2.9-3c0-1.6,1.4-3,3-2.9C327.7,196.7,329,198,328.9,199.7z"/>
			</g>
		</g>
	</g>
	<g>
		<g>
			<g>
				<g>
					
						<rect x="73.5" y="71" transform="matrix(1.428619e-02 -0.9999 0.9999 1.428619e-02 -4.4945 193.9055)" class="st1" width="45.1" height="56.4"/>
					<g>
						<path class="st5" d="M124.6,77.1c0,0-0.1,0-0.3,0c-0.2,0-0.5,0-0.8,0c-0.7,0-1.7,0-3.1,0c-2.7,0-6.6-0.1-11.6-0.1
							c-9.9-0.1-24-0.3-40.7-0.5l0.2-0.2c-0.2,13.4-0.4,28.8-0.6,45.1c0.1,0.1-0.5-0.5-0.2-0.3l0,0l0,0l0.1,0l0.1,0l0.2,0l0.5,0l1,0
							l1.9,0c1.3,0,2.6,0,3.9,0.1c2.6,0,5.1,0.1,7.6,0.1c5,0.1,9.9,0.1,14.6,0.2c9.5,0.1,18.4,0.3,26.4,0.4l-0.2,0.2
							c0.2-13.6,0.4-24.8,0.6-32.7c0.1-3.9,0.1-7,0.2-9.2c0-1,0-1.9,0.1-2.4C124.6,77.4,124.6,77.1,124.6,77.1s0,0.3,0,0.8
							c0,0.6,0,1.4,0,2.4c0,2.1,0,5.2-0.1,9.1c-0.1,7.9-0.2,19.2-0.4,32.8l0,0.2l-0.2,0c-8.1-0.1-16.9-0.2-26.4-0.3
							c-4.7-0.1-9.6-0.1-14.6-0.2c-2.5,0-5-0.1-7.6-0.1c-1.3,0-2.6,0-3.9-0.1l-1.9,0l-1,0l-0.5,0l-0.2,0l-0.1,0l-0.1,0l0,0l0,0
							c0.2,0.2-0.3-0.3-0.3-0.3c0.2-16.3,0.5-31.7,0.7-45.1l0-0.2l0.2,0c16.8,0.3,30.9,0.5,40.9,0.7c4.9,0.1,8.8,0.2,11.5,0.2
							c1.3,0,2.3,0.1,3,0.1c0.3,0,0.6,0,0.8,0C124.6,77.1,124.6,77.1,124.6,77.1z"/>
					</g>
				</g>
			</g>
		</g>
		
			<rect x="76.3" y="73" transform="matrix(1.428551e-02 -0.9999 0.9999 1.428551e-02 -4.5302 193.8683)" class="st6" width="39.4" height="52.5"/>
		<polygon class="st6" points="69.5,118.6 88.2,94.3 99.4,109.8 107.2,101.7 122,119.3 		"/>
		<g>
			<g>
				<path class="st6" d="M104.4,91.6c0,2.3-1.9,4.1-4.2,4.1c-2.3,0-4.1-1.9-4.1-4.2c0-2.3,1.9-4.1,4.2-4.1
					C102.6,87.4,104.5,89.3,104.4,91.6z"/>
			</g>
		</g>
		<polygon class="st9" points="69.5,118.6 88.2,94.3 99.4,109.8 107.2,101.7 122,119.3 		"/>
		<g class="st9">
			<g>
				<path d="M104.4,91.6c0,2.3-1.9,4.1-4.2,4.1c-2.3,0-4.1-1.9-4.1-4.2c0-2.3,1.9-4.1,4.2-4.1C102.6,87.4,104.5,89.3,104.4,91.6z"/>
			</g>
		</g>
	</g>
	<g>
		<g>
			<g>
				<g>
					
						<rect x="262.5" y="57.3" transform="matrix(1.428629e-02 -0.9999 0.9999 1.428629e-02 197.4356 352.6503)" class="st1" width="30.1" height="37.7"/>
					<g>
						<path class="st5" d="M296.6,61.4c0,0-0.1,0-0.2,0c-0.1,0-0.3,0-0.5,0c-0.5,0-1.2,0-2.1,0c-1.8,0-4.4,0-7.7,0
							c-6.6-0.1-16-0.2-27.2-0.3l0.2-0.2c-0.1,9-0.3,19.3-0.4,30.1c0.1,0.1-0.5-0.5-0.2-0.3l0,0l0,0l0,0l0.1,0l0.2,0l0.3,0l0.7,0
							l1.3,0c0.9,0,1.7,0,2.6,0c1.7,0,3.4,0.1,5.1,0.1c3.3,0.1,6.6,0.1,9.8,0.1c6.3,0.1,12.3,0.2,17.7,0.3l-0.2,0.2
							c0.2-9,0.3-16.5,0.4-21.8c0.1-2.6,0.1-4.7,0.1-6.1c0-0.7,0-1.2,0-1.6C296.6,61.6,296.6,61.4,296.6,61.4c0,0,0,0.2,0,0.5
							c0,0.4,0,0.9,0,1.6c0,1.4,0,3.5,0,6.1c0,5.3-0.1,12.9-0.2,22l0,0.2l-0.2,0c-5.4-0.1-11.3-0.1-17.7-0.2c-3.2,0-6.4-0.1-9.8-0.1
							c-1.7,0-3.4,0-5.1-0.1c-0.9,0-1.7,0-2.6,0l-1.3,0l-0.7,0l-0.3,0l-0.2,0l-0.1,0l0,0l0,0l0,0c0.2,0.2-0.3-0.3-0.3-0.3
							c0.2-10.9,0.3-21.2,0.5-30.1l0-0.2l0.2,0c11.2,0.2,20.6,0.4,27.3,0.5c3.3,0.1,5.9,0.1,7.7,0.2c0.9,0,1.5,0,2,0.1
							c0.2,0,0.4,0,0.5,0C296.6,61.4,296.6,61.4,296.6,61.4z"/>
					</g>
				</g>
			</g>
		</g>
		
			<rect x="264.4" y="58.7" transform="matrix(1.428487e-02 -0.9999 0.9999 1.428487e-02 197.4121 352.6254)" class="st6" width="26.3" height="35"/>
		<polygon class="st6" points="259.8,89.1 272.3,72.9 279.8,83.3 285,77.9 294.9,89.6 		"/>
		<g>
			<g>
				<path class="st6" d="M283.1,71.1c0,1.5-1.3,2.7-2.8,2.7c-1.5,0-2.7-1.3-2.7-2.8c0-1.5,1.3-2.7,2.8-2.7
					C282,68.3,283.2,69.5,283.1,71.1z"/>
			</g>
		</g>
		<polygon class="st9" points="259.8,89.1 272.3,72.9 279.8,83.3 285,77.9 294.9,89.6 		"/>
		<g class="st9">
			<g>
				<path d="M283.1,71.1c0,1.5-1.3,2.7-2.8,2.7c-1.5,0-2.7-1.3-2.7-2.8c0-1.5,1.3-2.7,2.8-2.7C282,68.3,283.2,69.5,283.1,71.1z"/>
			</g>
		</g>
	</g>
	<g>
		<g>
			<g>
				<g>
					
						<rect x="155.1" y="88.6" transform="matrix(1.428554e-02 -0.9999 0.9999 1.428554e-02 48.7426 373.0874)" class="st2" width="117" height="146.3"/>
					<g>
						<path class="st5" d="M287.6,104.4c0,0-0.2,0-0.7,0c-0.5,0-1.1,0-2,0c-1.8,0-4.5,0-7.9-0.1c-6.9-0.1-17.1-0.2-29.9-0.4
							c-25.7-0.3-62.3-0.8-105.7-1.4l0.2-0.2c-0.5,34.8-1.1,74.7-1.6,117l0,0l-0.3-0.3c54.2,0.8,104.5,1.5,146.3,2.1l-0.2,0.2
							c0.6-35.3,1-64.5,1.3-84.9c0.2-10.2,0.3-18.2,0.4-23.7c0-2.7,0.1-4.8,0.1-6.2C287.6,105.1,287.6,104.4,287.6,104.4
							s0,0.7,0,2.1c0,1.4,0,3.5-0.1,6.2c-0.1,5.5-0.2,13.5-0.3,23.7c-0.3,20.5-0.6,49.7-1.1,85l0,0.2l-0.2,0
							c-41.8-0.6-92.2-1.3-146.3-2l-0.3,0l0-0.3l0,0c0.6-42.2,1.2-82.2,1.7-117l0-0.2l0.2,0c43.5,0.7,80.1,1.2,105.9,1.6
							c12.8,0.2,23,0.4,29.9,0.5c3.4,0.1,6.1,0.1,7.9,0.1c0.9,0,1.6,0,2,0C287.4,104.4,287.6,104.4,287.6,104.4z"/>
					</g>
				</g>
			</g>
		</g>
		
			<rect x="162.4" y="93.8" transform="matrix(1.428590e-02 -0.9999 0.9999 1.428590e-02 48.6497 372.9905)" class="st6" width="102.3" height="136.1"/>
		<polygon class="st7" points="144.7,212 193.2,149.1 222,189.3 242.3,168.3 280.8,213.9 		"/>
		<g class="st7">
			<g>
				<path d="M235.2,141.9c-0.1,5.9-4.9,10.6-10.9,10.6c-5.9-0.1-10.6-4.9-10.6-10.9c0.1-5.9,4.9-10.6,10.9-10.6
					C230.6,131.1,235.3,136,235.2,141.9z"/>
			</g>
		</g>
	</g>
</g>
<g id="Character">
	<g>
		<path class="st10" d="M127.2,260.4l-1.7-1.4c0-0.1,0-0.2,0-0.2l-0.1,0.1l-11.5-9.2l4.9-8.1l-11.9-8.7c0.1,0.6-11,17-9.5,20.2
			c2.1,4.6,16.5,13.6,22.4,17.2c-0.6,0.1-3.4,0.5-4.7,0.9c-1.5,0.5,3.4,1.8,4.6,2c0.5,0.1,1.4-0.6,2.4-1.6c0.2,0.1,0.3,0.2,0.3,0.2
			l0.3-0.7c1.4-1.4,2.7-3.1,3-3.5c0.2-0.4,0.2-2.1,0.1-3.9L127.2,260.4z"/>
		<path class="st10" d="M162.6,256.4l1.7-1.4c0-0.1,0-0.2,0-0.2l0.1,0.1l13.1-8.4l-12.7-10.3l11-9.5c8.5,6,19.8,13.8,16.5,22.4
			c-1.8,4.7-16.5,13.6-22.4,17.2c0.6,0.1,3.4,0.5,4.7,0.9c1.5,0.5-3.4,1.8-4.6,2c-0.5,0.1-1.4-0.6-2.4-1.6c-0.2,0.1-0.3,0.2-0.3,0.2
			l-0.3-0.7c-1.4-1.4-2.7-3.1-3-3.5c-0.2-0.4-0.2-2.1-0.1-3.9L162.6,256.4z"/>
		<g>
			<g>
				<g>
					<g>
						<path class="st10" d="M142,217.6L142,217.6c4.6,0.4,8.6-3.2,8.7-7.8c0.2-4.4,0.3-8.9,0.3-8.9s6.7-0.6,7.2-7.3
							c0.5-6.6,0.3-22,0.3-22l0,0c-7.5-3.8-16.4-3.2-23.4,1.5l-1,0.7l0.4,35.7C134.6,213.8,137.8,217.3,142,217.6z"/>
					</g>
				</g>
			</g>
			<path class="st5" d="M141.7,163.1c-4-0.1-7.7,2.5-9.6,5.8c-1.9,3.2-2.3,7-2.5,10.7c-0.3,7.2,0.1,14.4,0.5,21.6
				c0,0.5,0.1,1.1,0.5,1.5c0.4,0.4,1.1,0.6,1.7,0.7c12.2,1.7,24.7,1.7,37,0.1c0.8-1.5-0.3-3.2-1.6-4.3c-1.3-1.1-2.9-2.1-3.4-3.7
				c-0.7-2.5,1.7-5.1,0.8-7.6c-0.7-1.8-3.1-2.7-4-4.5c-1.4-3,2.2-6.6,0.6-9.5c-0.8-1.5-2.8-2.2-4.1-3.4c-1.1-1.1-1.6-2.6-2.5-3.8
				c-1.5-1.9-4.1-2.9-6.6-3.2C146,162.9,144.3,162.7,141.7,163.1"/>
			<path class="st5" d="M132.3,170.7c-1.7,0.8-2.5,2.9-2.7,4.8c-0.2,1.9-0.2,3.9-1,5.6c-0.8,1.9-2.6,3.3-3,5.3
				c-0.6,2.6,1.1,5.6-0.4,7.8c-1,1.4-2.9,1.7-4.1,2.9c-1.7,1.7-1.5,4.4-1.3,6.7c7.4-0.1,14.8-0.1,22.2-0.2"/>
			<path class="st5" d="M140.3,168.3c2.6,0.1,4.9-2.3,4.8-4.8c0-2.6-2.2-4.8-4.8-5.1c-2.5-0.3-5.1,1.3-6.2,3.6
				c-0.5,1.1-0.7,2.3-0.4,3.4c0.4,1.1,1.2,2,2.3,2.6c2.1,1.2,4.8,1.2,6.9,0"/>
			<g>
				<path class="st6" d="M144.7,164c0.1,0,0.1,0.7-0.3,1.7c-0.4,1-1.3,2.3-2.9,3c-1.6,0.7-3.2,0.6-4.2,0.2c-1-0.4-1.5-0.9-1.5-0.9
					c0-0.1,0.6,0.3,1.6,0.5c1,0.3,2.5,0.3,3.9-0.3c1.4-0.6,2.3-1.8,2.8-2.7C144.5,164.7,144.6,164,144.7,164z"/>
			</g>
		</g>
		<g>
			<g>
				<path class="st11" d="M167.7,241.2l-5.5-5.9l-1.8,8.7l0.4,6.8c0,0.3,7.2,18.1,7.2,18.1c4.9,11.2,3.5,21.4,3.5,21.4l-52.7-1.5
					c0,0,0.8-15.3,6.7-25.4c2.7-4.6,2-11.5,0.7-16.8c-0.4-1.7-0.9-4.4-1.1-6.1l0-0.3l-2.7,4.8l-16.5-11.9
					c5.4-10.3,13.2-20.8,14.2-21.6c5.9-4.8,12.2-4.5,12.2-4.5l20.5,0.2c0,0,1.3,0.1,3.2,0.7c2.5,0.2,6.9,2.3,11.9,7
					c4.1,4,8.8,8.8,13.6,12.4L167.7,241.2"/>
			</g>
		</g>
		<g>
			<path class="st10" d="M120.6,277.9c-1,1.5-40.3,149.6-40.3,149.6l13.9,4.4l53-140.9L120.6,277.9z"/>
			<polygon class="st10" points="144.5,289.8 173.7,430.7 189.8,431.4 171.3,282.3 			"/>
			<path class="st5" d="M121.3,272.7L92.2,376.6l21.5,8.9l30.8-87.4l18.7,90.9l22.5-4.4l-15.3-110.2l-2.1-0.3
				c-1.3-0.2-2.6-0.1-3.8,0.2l-1.4,0.3c-1.6,0.4-3.2,0.4-4.8,0l-1-0.2c-1.5-0.4-3-0.4-4.5-0.1l-2.5,0.5c-1.8,0.4-3.7,0.3-5.5-0.4
				l-2.5-0.9c-1.7-0.6-3.5-0.7-5.2-0.4l-2.3,0.4c-1.3,0.2-2.6,0.2-3.9-0.1l-4-0.8c-1.6-0.3-3.3-0.4-5-0.1L121.3,272.7z"/>
			<g>
				<g>
					<path class="st11" d="M160.5,292.5c0,0-0.5,0.2-1.3,0.4c-0.9,0.2-2.1,0.5-3.6,0.8c-3.1,0.6-7.4,1.4-12.1,2.1
						c-4.8,0.7-9.1,1.2-12.2,1.4c-1.6,0.1-2.8,0.2-3.7,0.3c-0.9,0-1.4,0.1-1.4,0c0,0,0.5-0.1,1.4-0.2c1-0.1,2.2-0.3,3.7-0.4
						c3.1-0.4,7.4-0.9,12.2-1.6c4.7-0.7,9-1.4,12.1-1.9c1.5-0.2,2.7-0.5,3.7-0.6C160.1,292.5,160.5,292.4,160.5,292.5z"/>
				</g>
			</g>
		</g>
		<g>
			<g>
				<g>
					<g>
						<g>
							<path class="st6" d="M190.7,431.3l-0.1-1.7l-17,0.5l0.1,5.5l1,0c4.7,0.1,23.7,0.3,26.8-0.7
								C205.2,433.9,190.7,431.3,190.7,431.3z"/>
						</g>
					</g>
					<g class="st12">
						<g>
							<path class="st13" d="M180,435.4c-0.3-1.3-1.1-2.5-2.3-3.3c-1.2-0.8-2.6-1.2-4-1l0.1,4.4L180,435.4z"/>
						</g>
					</g>
				</g>
				<g class="st12">
					<g>
						<path class="st13" d="M197.8,432.8c0,0,5.1,1.2,4.5,2c-0.6,0.8-19.9,1.3-28.4,0.8l0-0.4l22.5-0.4
							C196.4,434.9,196.8,432.9,197.8,432.8z"/>
					</g>
				</g>
				<g>
					<g>
						<g>
							<path class="st5" d="M173.6,435.3c0,0,0.1,0,0.3,0c0.3,0,0.5,0,0.8,0c0.8,0,1.9,0,3.1,0c2.6,0,6.2,0,10.1-0.1
								c4-0.1,7.5-0.3,10.1-0.4c1.2-0.1,2.2-0.1,3.1-0.2c0.3,0,0.6,0,0.8-0.1c0.2,0,0.3,0,0.3,0c0,0-0.1,0-0.3,0c-0.3,0-0.5,0-0.8,0
								c-0.8,0-1.9,0.1-3.1,0.1c-2.6,0.1-6.2,0.3-10.1,0.4c-4,0.1-7.5,0.1-10.1,0.2c-1.2,0-2.2,0-3.1,0c-0.3,0-0.6,0-0.8,0
								C173.7,435.3,173.6,435.3,173.6,435.3z"/>
						</g>
					</g>
				</g>
				<g>
					<g>
						<g>
							<path class="st5" d="M196.4,435.1c0.1,0,0.1-0.7,0.5-1.4c0.4-0.7,1.1-1.1,1-1.1c0,0-0.7,0.3-1.2,1
								C196.2,434.4,196.3,435.2,196.4,435.1z"/>
						</g>
					</g>
				</g>
				<g>
					<g>
						<g>
							<path class="st5" d="M191.3,432.9c0,0,0.3-0.2,0.5-0.6c0.2-0.4,0.4-0.7,0.3-0.7c0,0-0.3,0.2-0.5,0.6
								C191.4,432.6,191.3,432.9,191.3,432.9z"/>
						</g>
					</g>
				</g>
				<g>
					<g>
						<g>
							<path class="st5" d="M189.9,432.3c0,0,0.3-0.1,0.6-0.4c0.3-0.3,0.5-0.5,0.4-0.5c0,0-0.3,0.1-0.6,0.4
								C190.1,432,189.9,432.2,189.9,432.3z"/>
						</g>
					</g>
				</g>
				<g>
					<g>
						<g>
							<path class="st5" d="M189,430.8c0,0.1,0.4,0.1,0.9,0.1s0.9-0.1,0.9-0.1c0-0.1-0.4-0.1-0.9-0.1
								C189.4,430.7,189,430.8,189,430.8z"/>
						</g>
					</g>
				</g>
				<g>
					<g>
						<g>
							<path class="st5" d="M188.7,429.8c0,0,0.4,0.2,1,0.2c0.6,0,1-0.1,1-0.2c0-0.1-0.5,0-1,0C189.1,429.8,188.7,429.7,188.7,429.8
								z"/>
						</g>
					</g>
				</g>
				<g>
					<g>
						<g>
							<path class="st5" d="M191.8,431.5c0,0,0.4,0.1,1.1,0c0.3,0,0.7-0.1,1.1-0.3c0.2-0.1,0.4-0.1,0.7-0.3c0.1-0.1,0.2-0.2,0.3-0.3
								c0-0.2-0.1-0.3-0.2-0.4c-1.1-0.5-2.1,0.1-2.4,0.6c-0.2,0.3-0.3,0.5-0.3,0.7c0,0.2,0,0.3,0,0.3c0,0,0.1-0.4,0.5-0.9
								c0.2-0.2,0.5-0.5,0.9-0.6c0.4-0.1,0.9-0.2,1.3,0c0.2,0.1,0.1,0.3-0.1,0.4c-0.2,0.1-0.4,0.2-0.6,0.3c-0.4,0.1-0.8,0.2-1.1,0.3
								C192.2,431.5,191.8,431.5,191.8,431.5z"/>
						</g>
					</g>
				</g>
				<g>
					<g>
						<g>
							<path class="st5" d="M192.1,431.6c0,0,0.2-0.3,0.1-0.7c0-0.2-0.1-0.5-0.3-0.7c-0.2-0.2-0.5-0.5-0.9-0.5
								c-0.3,0-0.4,0.3-0.3,0.5c0,0.2,0.1,0.3,0.2,0.4c0.2,0.2,0.4,0.4,0.5,0.6C191.7,431.5,192,431.6,192.1,431.6
								c-0.1,0-0.3-0.2-0.6-0.5c-0.2-0.2-0.3-0.4-0.5-0.6c-0.2-0.2-0.3-0.6,0-0.6c0.3,0,0.6,0.2,0.7,0.4c0.2,0.2,0.3,0.4,0.3,0.6
								C192.2,431.3,192.1,431.6,192.1,431.6z"/>
						</g>
					</g>
				</g>
				<g>
					<g>
						<g>
							<path class="st5" d="M173.8,431c0,0,0.5-0.1,1.2,0c0.8,0.1,1.8,0.3,2.8,1c0.9,0.7,1.5,1.5,1.8,2.2c0.3,0.7,0.3,1.1,0.4,1.1
								c0,0,0-0.1,0-0.3c0-0.2-0.1-0.5-0.2-0.8c-0.2-0.7-0.8-1.6-1.8-2.3c-1-0.7-2.1-0.9-2.9-1c-0.4,0-0.7,0-0.9,0
								C173.9,431,173.8,431,173.8,431z"/>
						</g>
					</g>
				</g>
				<g>
					<g>
						<g>
							<path class="st5" d="M182,433.8c0,0,1.1,0.2,2.5,0.2c1.4,0,2.5-0.2,2.5-0.2c0-0.1-1.1,0-2.5,0.1
								C183.2,433.8,182,433.7,182,433.8z"/>
						</g>
					</g>
				</g>
				<g>
					<g>
						<g>
							<path class="st5" d="M178.7,433.9c0,0,0.1,0.2,0.2,0.4c0.1,0.2,0.2,0.4,0.2,0.4c0.1,0,0.1-0.3-0.1-0.5
								C179,434,178.8,433.8,178.7,433.9z"/>
						</g>
					</g>
				</g>
				<g>
					<g>
						<g>
							<path class="st5" d="M177.4,432.5c0,0,0.1,0.2,0.3,0.4c0.2,0.2,0.4,0.3,0.4,0.2c0,0-0.1-0.2-0.3-0.4
								C177.7,432.5,177.5,432.4,177.4,432.5z"/>
						</g>
					</g>
				</g>
				<g>
					<g>
						<g>
							<path class="st5" d="M175.6,431.8c0,0.1,0.2,0,0.5,0.1c0.3,0.1,0.4,0.2,0.5,0.2c0,0-0.1-0.2-0.4-0.3
								C175.9,431.7,175.6,431.8,175.6,431.8z"/>
						</g>
					</g>
				</g>
				<g>
					<g>
						<g>
							<path class="st5" d="M174.4,431.6c0,0,0.1,0.1,0.2,0.2c0.1,0,0.3,0,0.3,0c0,0-0.1-0.1-0.2-0.2
								C174.5,431.5,174.4,431.5,174.4,431.6z"/>
						</g>
					</g>
				</g>
			</g>
		</g>
		<g>
			<polygon class="st6" points="80.4,424.5 77.8,435.6 94.8,435.6 95.5,428.4 			"/>
			<g>
				<path class="st5" d="M95.2,434c0,0.1-0.9,0.1-2.5,0.2c-1.5,0-3.6,0-6-0.1c-2.2-0.1-4.2-0.2-6-0.3c-1.5-0.1-2.5-0.1-2.5-0.2
					c0-0.1,0.9-0.1,2.5-0.2c1.5,0,3.6,0,6,0.1c2.2,0.1,4.2,0.2,6,0.3C94.2,433.8,95.2,433.9,95.2,434z"/>
			</g>
			<g>
				<path class="st5" d="M88,426.7c0.1,0,0.2,1.6,0,3.6c-0.1,2-0.4,3.6-0.5,3.5c-0.1,0-0.2-1.6,0-3.6
					C87.6,428.2,87.8,426.7,88,426.7z"/>
			</g>
			<polyline class="st14" points="77.8,435.6 94.8,435.6 95,434 78.1,433.5 77.8,435.4 			"/>
		</g>
	</g>
</g>
<g id="Speech_Bubble">
	<g>
		<circle class="st11" cx="91.3" cy="160.3" r="26"/>
		<polygon class="st11" points="103,181.7 120.8,186.3 112.4,171.5 		"/>
	</g>
	<g>
		<path class="st6" d="M93.1,140.4c0.8,0.1,1.6,0.2,2.4,0.4c3.8,1.1,6.9,3.1,8.6,6.8c1.5,3.2,1.3,6.3-0.7,9.3
			c-0.8,1.2-1.9,1.9-3.1,2.7c-0.8,0.5-1.7,1-2.4,1.5c-0.8,0.6-1.3,1.5-1.7,2.4c-0.1,0.2-0.1,0.5-0.1,0.7c-0.1,0.8-0.6,1.3-1.4,1.3
			c-2,0-4,0-6,0c-0.9,0-1.3-0.3-1.4-1.2c-0.3-2.3,0.3-4.4,1.9-6.1c1.2-1.3,2.6-2.3,4.1-3c0.7-0.3,1.3-0.7,1.9-1.2
			c1.4-1.3,1.2-3.4-0.4-4.4c-1.9-1.2-3.8-1.2-5.7-0.2c-0.6,0.3-1.1,0.9-1.6,1.4c-0.5,0.6-1,1.2-1.5,1.8c-0.5,0.6-1.1,0.7-1.8,0.2
			c-1.5-1.1-2.9-2.2-4.4-3.3c-0.6-0.4-0.7-1-0.3-1.6c1.3-2.2,3-4.1,5.2-5.4c1.9-1.1,4-1.7,6.2-1.9c0.1,0,0.3,0,0.4-0.1
			C91.9,140.4,92.5,140.4,93.1,140.4z"/>
		<path class="st6" d="M91.8,176.2c-1.1,0-2.1,0-3.2,0c-0.8,0-1.3-0.5-1.3-1.3c0-2.1,0-4.3,0-6.4c0-0.8,0.5-1.3,1.3-1.3
			c2.1,0,4.3,0,6.4,0c0.8,0,1.3,0.4,1.3,1.3c0,2.1,0,4.3,0,6.4c0,0.8-0.5,1.3-1.3,1.3C93.9,176.2,92.8,176.2,91.8,176.2z"/>
	</g>
	<rect y="310.7" class="st11" width="438.2" height="127.6"/>
	<g>
		<path class="st15" d="M50,388h-6.7l-9.4-28.5L29.1,388h-6.7l7.3-42.4h6.7l9.4,28.4l4.9-28.4h6.7L50,388z"/>
		<path class="st15" d="M59.6,371.4c0-3.7,0.6-7.4,1.9-11.3c1.6-5,3.9-8.8,6.9-11.3c3.1-2.6,6.6-3.9,10.7-3.9
			c4.2,0,7.6,1.6,10.4,4.8c2.7,3.2,4.1,7.5,4.1,13c0,5-1,9.6-2.9,13.8c-1.9,4.2-4.3,7.3-7.2,9.3c-2.9,2-6,3-9.5,3
			c-4.1,0-7.4-1.4-9.9-4.3C61,381,59.6,376.7,59.6,371.4z M66.7,371.2c0,3.1,0.8,5.6,2.3,7.5c1.5,1.9,3.4,2.8,5.6,2.8
			c1.8,0,3.5-0.7,5.3-2.1c1.7-1.4,3.2-3.7,4.5-6.8c1.3-3.2,1.9-6.4,1.9-9.7c0-3.4-0.8-6.1-2.4-8.1c-1.4-1.7-3.2-2.6-5.5-2.6
			c-1.8,0-3.6,0.7-5.4,2.1c-1.8,1.4-3.3,3.7-4.5,6.8C67.3,364.2,66.7,367.6,66.7,371.2z"/>
		<path class="st15" d="M132.6,369.1h-13.4l-3.3,19h-7.1l7.3-42.4h7.2l-2.8,16.4h13.4l2.8-16.4h7.1l-7.3,42.4h-7.1L132.6,369.1z"/>
		<path class="st15" d="M166.6,378.7h-13.8l-4.2,9.4h-7.4l19.7-42.4h7.9l5.6,42.4h-6.8L166.6,378.7z M165.7,371.6l-2-17.1l-7.7,17.1
			H165.7z"/>
		<path class="st15" d="M190.9,388h-7.2l3-16.5l-9.7-25.9h7.6l4.3,12c1,2.9,1.7,4.9,2.1,6.2c0.6-1.3,1.3-2.6,2.1-4l3.2-5.5l5-8.7
			h8.3l-16.1,26.7L190.9,388z"/>
		<path class="st15" d="M217.5,388l7.6-42.4h7.1l-7.6,42.4H217.5z"/>
		<path class="st15" d="M252,388h-6.8l-1.2-35.5l-5.5,35.5H232l7.3-42.4h10.2l1.1,29.7l11.7-29.7h10.3l-7.1,42.4h-6.5l6.8-35.2
			L252,388z"/>
		<path class="st15" d="M295.1,378.7h-13.8l-4.2,9.4h-7.4l19.7-42.4h7.9l5.6,42.4h-6.8L295.1,378.7z M294.2,371.6l-2-17.1l-7.7,17.1
			H294.2z"/>
		<path class="st15" d="M326.8,365.4h15.6l-3.1,18.2c-1.9,1.5-4.2,2.8-6.9,3.8c-2.7,1-5.4,1.4-8,1.4c-4.6,0-8.1-1.4-10.4-4.1
			c-2.8-3.3-4.2-7.8-4.2-13.6c0-5.1,1-9.7,2.9-13.9c1.9-4.2,4.3-7.3,7.1-9.3c2.8-1.9,5.9-2.9,9.4-2.9c3.8,0,7,1.1,9.5,3.3
			c2.5,2.2,4.2,5.6,5,10.1l-6.7,0.9c-1.2-4.8-3.8-7.2-7.8-7.2c-2.2,0-4.2,0.7-6.1,2c-1.8,1.3-3.4,3.5-4.6,6.5
			c-1.2,3-1.8,6.5-1.8,10.5c0,3.6,0.7,6.3,2,7.9c1.4,1.7,3.3,2.5,5.9,2.5c1.4,0,2.8-0.2,4.2-0.6c1.8-0.6,3.4-1.2,4.7-2.1l1.1-6.3
			h-8.9L326.8,365.4z"/>
		<path class="st15" d="M345.4,388l7.3-42.4h25.8l-1.2,7.1h-18.6l-1.7,9.6h18l-1.2,7.1h-18l-2,11.5h20l-1.2,7.1H345.4z"/>
		<path class="st15" d="M405.5,388h-6.7l-9.4-28.5l-4.9,28.5h-6.7l7.3-42.4h6.7l9.4,28.4l4.9-28.4h6.7L405.5,388z"/>
	</g>
</g>
</svg>
